<svg xmlns="http://www.w3.org/2000/svg" width="742.418" height="712.575">
  <g data-name="Group 29" transform="translate(-245 -109)">
    <path data-name="Path 339"
      d="M678.814 277.893h-3.9V170.916a61.915 61.915 0 00-61.918-61.915H386.349a61.915 61.915 0 00-61.916 61.916v586.882a61.915 61.915 0 0061.915 61.915h226.648a61.915 61.915 0 0061.915-61.915V354.041h3.9z"
      fill="#3f3d56" />
    <path data-name="Path 340"
      d="M662.287 166.768v595.175a46.959 46.959 0 01-46.942 46.952h-231.3a46.966 46.966 0 01-46.973-46.952V166.768a46.965 46.965 0 0146.971-46.951h28.058a22.329 22.329 0 0020.656 30.74h131.868a22.329 22.329 0 0020.656-30.74h30.055a46.959 46.959 0 0146.951 46.942z"
      fill="#fff" />
    <g data-name="Group 26">
      <path data-name="Path 45"
        d="M502.16 404.875a99.3 99.3 0 01-99.337-99.254v-.088c0-.208 0-.427.012-.635.3-54.4 44.863-98.7 99.325-98.7a99.337 99.337 0 11.011 198.674h-.011zm0-196.587a97.454 97.454 0 00-97.233 96.677c-.011.222-.011.4-.011.569a97.258 97.258 0 1097.259-97.246z"
        fill="#e6e6e6" />
      <g data-name="Group 27" transform="translate(420.59 261.594)">
        <circle data-name="Ellipse 7" cx="21.322" cy="21.322" transform="translate(16.803 .451)" fill="#3f3d56"
          r="21.322" />
        <path data-name="Path 63"
          d="M104.987 87.476H.387a2.141 2.141 0 01-.391-.031L49.468 1.759a3.463 3.463 0 016.029 0l33.2 57.5 1.59 2.751z"
          fill="#6c63ff" />
        <path data-name="Path 65"
          d="M163.223 87.477H72.755l17.53-25.464 1.261-1.835 22.844-33.184a4.622 4.622 0 016.866-.41 4.131 4.131 0 01.329.41z"
          fill="#6c63ff" />
      </g>
    </g>
    <path data-name="Path 39"
      d="M604.881 509.317H399.344a3.81 3.81 0 01-3.806-3.806v-50.984a3.811 3.811 0 013.806-3.806h205.537a3.811 3.811 0 013.806 3.806v50.985a3.811 3.811 0 01-3.806 3.806zm-205.537-57.074a2.286 2.286 0 00-2.284 2.284v50.985a2.286 2.286 0 002.284 2.284h205.537a2.286 2.286 0 002.284-2.284v-50.985a2.286 2.286 0 00-2.284-2.284z"
      fill="#e6e6e6" />
    <circle data-name="Ellipse 5" cx="15.986" cy="15.986" r="15.986" transform="translate(410.001 464.033)"
      fill="#6c63ff" />
    <path data-name="Path 40" d="M462.908 469.361a2.664 2.664 0 100 5.329h125.605a2.665 2.665 0 10.087-5.328H462.908z"
      fill="#e6e6e6" />
    <path data-name="Path 41" d="M462.908 485.347a2.664 2.664 0 100 5.329h125.605a2.665 2.665 0 10.087-5.328H462.908z"
      fill="#e6e6e6" />
    <path data-name="Path 42"
      d="M604.881 594.577H399.344a3.81 3.81 0 01-3.806-3.806v-50.984a3.811 3.811 0 013.806-3.806h205.537a3.811 3.811 0 013.806 3.806v50.985a3.811 3.811 0 01-3.806 3.805zm-205.537-57.074a2.286 2.286 0 00-2.284 2.284v50.985a2.286 2.286 0 002.284 2.284h205.537a2.286 2.286 0 002.284-2.284v-50.985a2.286 2.286 0 00-2.284-2.284z"
      fill="#e6e6e6" />
    <circle data-name="Ellipse 6" cx="15.986" cy="15.986" r="15.986" transform="translate(410.001 549.292)"
      fill="#6c63ff" />
    <path data-name="Path 43" d="M462.908 554.618a2.664 2.664 0 100 5.329h125.605a2.665 2.665 0 00.087-5.328H462.908z"
      fill="#e6e6e6" />
    <path data-name="Path 44" d="M462.908 570.607a2.664 2.664 0 100 5.329h125.605a2.665 2.665 0 00.087-5.328H462.908z"
      fill="#e6e6e6" />
    <path data-name="Path 39"
      d="M604.881 679.836H399.344a3.81 3.81 0 01-3.806-3.806v-50.984a3.811 3.811 0 013.806-3.806h205.537a3.811 3.811 0 013.806 3.806v50.985a3.811 3.811 0 01-3.806 3.806zm-205.537-57.074a2.286 2.286 0 00-2.284 2.284v50.985a2.286 2.286 0 002.284 2.284h205.537a2.286 2.286 0 002.284-2.284v-50.985a2.286 2.286 0 00-2.284-2.284z"
      fill="#e6e6e6" />
    <circle data-name="Ellipse 5" cx="15.986" cy="15.986" r="15.986" transform="translate(410.001 634.552)"
      fill="#6c63ff" />
    <path data-name="Path 40" d="M462.908 639.88a2.664 2.664 0 100 5.329h125.605a2.665 2.665 0 10.087-5.328H462.908z"
      fill="#e6e6e6" />
    <path data-name="Path 41" d="M462.908 655.866a2.664 2.664 0 100 5.329h125.605a2.665 2.665 0 10.087-5.328H462.908z"
      fill="#e6e6e6" />
    <g data-name="Group 28" transform="translate(733.282 333.482)">
      <path data-name="Path 409" d="M36.978 474.722H24.524L18.6 426.689h18.379z" fill="#feb8b8" />
      <path data-name="Path 410" d="M40.154 486.793H0v-.508a15.63 15.63 0 0115.628-15.629h24.527z" fill="#2f2e41" />
      <path data-name="Path 411" d="M191.68 466.568l-12.125 2.854-16.778-45.4 17.89-4.213z" fill="#feb8b8" />
      <path data-name="Path 412" d="M197.539 477.59l-39.085 9.2-.116-.494a15.63 15.63 0 0111.63-18.8l23.872-5.621z"
        fill="#2f2e41" />
      <path data-name="Path 413"
        d="M34.434 272.126c.024-2.5.765-61.577 16.958-83.913l.239-.33 56.431 7.786-1.262 12.4c2.482 2.414 22.006 22.816 27.644 71.128l59.9 160.867-27.845 2.531-82.432-175.609-43.62 190.884h-27.6z"
        fill="#2f2e41" />
      <path data-name="Path 414"
        d="M44.781 190.393l5.516-28.96c-1.08-1.39-5.865-8.065-4.8-15.89.695-5.105 3.742-9.582 9.059-13.309l14.3-33.362.193-.113c.963-.567 23.728-13.731 36.139-1.311.31.24 30.867 24.5 18.6 57.218l-15.148 45.45z"
        fill="#ccc" />
      <path data-name="Path 415"
        d="M25.589 229.573a10.241 10.241 0 008.649-13.106l29.527-21.273-17.676-6.723-25.329 21.232a10.3 10.3 0 004.829 19.871z"
        fill="#feb8b8" />
      <path data-name="Path 416"
        d="M31.016 195.159l45.078-35.516-13.4-45.787a16.451 16.451 0 011.661-13.02 15.216 15.216 0 019.977-7.2c7.717-1.633 14.722 2.688 20.817 12.845l.047.092c1.008 2.465 24.492 60.516 6.561 72.931-17.541 12.143-58.215 29.821-58.624 30l-.477.206z"
        fill="#ccc" />
      <circle data-name="Ellipse 66" cx="27.308" cy="27.308" r="27.308" transform="translate(63.619 30.758)"
        fill="#feb8b8" />
      <circle data-name="Ellipse 67" cx="24.158" cy="24.158" r="24.158" transform="translate(109.58)" fill="#2f2e41" />
      <path data-name="Path 417"
        d="M154.574 44.163a24.16 24.16 0 01-37.3-12.685 24.16 24.16 0 1047.126-9.907 24.151 24.151 0 01-9.826 22.592z"
        fill="#2f2e41" />
      <path data-name="Path 418"
        d="M59.236 44.187c4.217-7.55 5.831-10.7 11.269-15.3 4.809-4.061 10.724-5.253 15.495-1.406a28.737 28.737 0 11-17.044 23c-4.148-.579-5.573-5.708-9.72-6.294z"
        fill="#2f2e41" />
    </g>
    <path data-name="Path 419"
      d="M985.479 821.575H246.938c-1.071 0-1.938-.468-1.938-1.045s.868-1.045 1.938-1.045h738.541c1.07 0 1.938.468 1.938 1.045s-.867 1.045-1.938 1.045z"
      fill="#e6e6e6" />
  </g>
</svg>