<svg height="512pt" viewBox="0 0 512 512.0013" width="512pt" xmlns="http://www.w3.org/2000/svg"
    xmlns:xlink="http://www.w3.org/1999/xlink">
    <linearGradient id="a" gradientUnits="userSpaceOnUse" x1="-.00066000138" x2="511.9983259986" y1="256.0004839986"
        y2="256.0004839986">
        <stop offset="0" stop-color="#00f2fe" />
        <stop offset=".0208" stop-color="#03effe" />
        <stop offset=".2931" stop-color="#24d2fe" />
        <stop offset=".5538" stop-color="#3cbdfe" />
        <stop offset=".7956" stop-color="#4ab0fe" />
        <stop offset="1" stop-color="#4facfe" />
    </linearGradient>
    <path
        d="m512 256c0 24.339844-3.488281 48.492188-10.363281 71.796875-2.570313 8.703125-10.539063 14.34375-19.175781 14.34375-1.875 0-3.777344-.265625-5.667969-.824219-10.59375-3.125-16.648438-14.246094-13.519531-24.84375 5.789062-19.621094 8.726562-39.96875 8.726562-60.472656 0-11.046875 8.953125-20 20-20s20 8.953125 20 20zm-181.433594 202.789062c-23.832031 8.765626-48.921875 13.210938-74.566406 13.210938-119.105469 0-216-96.894531-216-216 0-119.101562 96.894531-216 216-216 3.964844 0 7.976562.109375 11.914062.324219 11.027344.597656 20.457032-7.855469 21.054688-18.886719.601562-11.027344-7.855469-20.457031-18.882812-21.054688-4.660157-.253906-9.398438-.37890575-14.085938-.37890575-68.378906 0-132.667969 26.62890575-181.019531 74.97656275-48.351563 48.355469-74.980469 112.640625-74.980469 181.019531 0 68.382812 26.628906 132.667969 74.980469 181.019531 48.351562 48.355469 112.640625 74.980469 181.019531 74.980469 30.375 0 60.105469-5.269531 88.375-15.667969 10.367188-3.8125 15.679688-15.308593 11.867188-25.675781-3.816407-10.367188-15.3125-15.679688-25.675782-11.867188zm-74.566406-338.789062c11.046875 0 20-8.953125 20-20 0-11.042969-8.953125-20-20-20-97.046875 0-176 78.953125-176 176 0 63.417969 34.34375 122.191406 89.628906 153.382812 3.105469 1.75 6.480469 2.582032 9.808594 2.582032 6.980469 0 13.765625-3.660156 17.4375-10.175782 5.429688-9.621093 2.03125-21.816406-7.589844-27.246093-42.738281-24.109375-69.285156-69.53125-69.285156-118.542969 0-74.988281 61.007812-136 136-136zm0 312c32.179688 0 63.671875-8.773438 91.070312-25.367188 9.449219-5.722656 12.46875-18.019531 6.746094-27.46875-5.722656-9.445312-18.023437-12.46875-27.46875-6.746093-21.148437 12.8125-45.472656 19.582031-70.347656 19.582031-11.046875 0-20 8.953125-20 20s8.953125 20 20 20zm223.839844-233.160156c16.261718-12.644532 27.019531-25.363282 27.46875-25.898438 3.484375-4.148437 5.140625-9.535156 4.582031-14.921875l-14.457031-140.070312c-1.132813-10.988281-10.96875-18.96875-21.945313-17.84375-10.988281 1.136719-18.976562 10.960937-17.839843 21.949219l13.53125 131.121093c-8.835938 8.976563-23.601563 21.628907-39.179688 28.3125v-161.488281c0-11.042969-8.957031-20-20-20-11.046875 0-20 8.957031-20 20v161.113281c-15.1875-6.75-29.472656-19.046875-38.105469-27.832031l14.828125-131.03125c1.242188-10.976562-6.652344-20.878906-17.625-22.121094-10.976562-1.242187-20.882812 6.648438-22.125 17.625l-15.847656 140.070313c-.613281 5.4375 1.023438 10.890625 4.539062 15.085937.445313.535156 11.167969 13.265625 27.394532 25.914063 15.949218 12.4375 31.664062 20.648437 46.9375 24.554687v268.621094c0 11.046875 8.957031 20 20 20 11.046875 0 20-8.953125 20-20v-268.425781c15.550781-3.816407 31.566406-12.078125 47.84375-24.734375zm0 0"
        fill="url(#a)" />
</svg>