<svg xmlns="http://www.w3.org/2000/svg" viewBox="0 0 2161.94 1713.38">
    <defs>
        <style>
            .prefix__prefix__prefix__b {
                opacity: .3
            }

            .prefix__prefix__prefix__c {
                fill: #aec3ff
            }

            .prefix__prefix__prefix__e {
                fill: #afcdfb
            }

            .prefix__prefix__prefix__i {
                fill: #2b478b
            }

            .prefix__prefix__prefix__k,
            .prefix__prefix__prefix__z {
                fill: #fff
            }

            .prefix__prefix__prefix__l {
                opacity: .8
            }

            .prefix__prefix__prefix__n {
                fill: #3e3e54
            }

            .prefix__prefix__prefix__o {
                fill: #2f2e40
            }

            .prefix__prefix__prefix__p {
                fill: #f4bbb9
            }

            .prefix__prefix__prefix__q {
                fill: #ceccde
            }

            .prefix__prefix__prefix__r {
                fill: #96646b
            }

            .prefix__prefix__prefix__s {
                fill: #575b84
            }

            .prefix__prefix__prefix__u,
            .prefix__prefix__prefix__z {
                isolation: isolate;
                opacity: .1
            }

            .prefix__prefix__prefix__x {
                fill: #f1f1f1
            }

            .prefix__prefix__prefix__y {
                fill: #6868f5
            }
        </style>
    </defs>
    <path
        d="M160 1682.79s-292.24-377.15 12.52-705.5c338.7-364.92 18.68-773.21 356.16-918.57 475.9-205 561.19 200.44 1094.13 99.95 445-83.92 435.57 571.78 304 805.77-109 194 311.22 290.18 96.1 717.48z"
        fill="#ebf3fa" />
    <g class="prefix__prefix__prefix__b">
        <path class="prefix__prefix__prefix__c"
            d="M1265.53 674.4s46.17-224.59 223-254.26c0 0 34.43-5.25 47 32.46s-56.07 40-98.08 56.5-139.08 84.26-171.92 165.3z" />
    </g>
    <g class="prefix__prefix__prefix__b">
        <path class="prefix__prefix__prefix__c"
            d="M1260.29 632.77s-23.81-184.23 103.85-253.57c0 0 25-13.08 44.59 12.48s-32.43 45.4-60.26 69.13-84.38 101.19-88.18 171.96z" />
    </g>
    <path
        d="M543.15 565.38c21.66-61.61 126.3-34.16 126.3-34.16s63.94 115.33 84.71 119.49-35.42-109.27-35.42-109.27c40.9-.94 140.71 56.45 140.71 56.45s-16 127.87 5.15 126.8 8.39-114 8.39-114c38.42 14.73 71.72 63.31 71.72 63.31 40.35 78-61.94 125.81-61.94 125.81s-4.58 44.44 19.16 97.54 5.52 9.88 10.65 26.38l-10.72-.79q-1-4.41-2.29-8.53a.56.56 0 000-.12c-.61-1.71-1.49-4.14-2.59-7.1-2.8-6.65-4.67-11.54-5.81-15.06-8.33-20.83-20.53-48.07-29.54-54.26a21.07 21.07 0 002.57-4.87q-1.28 2.26-2.65 4.75c-21.23 37.94-113.4 37.74-163.71 23.5s-27-27 2.24-48.37 86.4-11 104.11-18.86-6.51-18.92-40.76-18.81-53.78 32.92-109.18 34.11-89.69-105.37-89.69-105.37c37.12 14.58 106.77-1.36 110.35-14.27s-97.37-19-112.79-24.1-40.62-38.58-18.97-100.2z"
        fill="#cde0fb" />
    <path class="prefix__prefix__prefix__e"
        d="M382.77 1533.88c-37.94-66.17 66.2-137.72 66.2-137.72s150.74 31.5 170.26 16.32-123.62-52.09-123.62-52.09c30.38-36.87 157.28-81.3 157.28-81.3s100.83 111.74 116 92.22-94.33-94.38-94.33-94.38c42.31-22.76 110.63-15.15 110.63-15.15 99.77 23.89 63.94 150.77 63.94 150.77s35.78 38 100.85 57.51 13 2.67 31.44 10.72l-8.87 8.87c-3.1-1.65-6.2-3.16-9.29-4.48h-.06l-.13-.06c-2-.76-4.8-1.84-8.27-3.13-8-2.6-13.76-4.69-17.75-6.36-24.77-8.54-58.16-18.55-70.52-15.3a24.42 24.42 0 00-2.17-6c.7 1.91 1.42 3.89 2.17 6 17.34 47.72-53.18 129-104.16 162.65s-44.47 3.24-41-38.9 56.26-84.73 62.77-106.42-21.69-8.68-47.72 21.68-12 72.66-53.18 122.53-161.59-1.13-161.59-1.13c41.21-21.68 80.28-95.41 71.61-108.43s-91.12 71.55-107.4 81.31-65.15 6.39-103.09-59.73z" />
    <path class="prefix__prefix__prefix__e"
        d="M1835.63 651.61C1828.27 583 1714.06 586 1714.06 586s-93.62 103.08-116 102.34 62.83-103.76 62.83-103.76c-41.8-10.86-158.28 24-158.28 24s-14.49 135.32-36 129.1 18.93-119.17 18.93-119.17c-43 5.8-89 47.65-89 47.65-60.34 70.45 33.24 144.3 33.24 144.3s-6 46.79-43.28 95.64-8.06 8.83-17.33 24.55l11.21 1.78c1.39-2.86 2.86-5.61 4.42-8.22a.75.75 0 01.07-.12c1-1.61 2.53-3.89 4.38-6.67 4.49-6.15 7.59-10.74 9.62-14.08 13.6-19.4 32.73-44.46 43.5-48.64a21.55 21.55 0 01-1.58-5.52q.75 2.64 1.58 5.52c12.64 44.14 107.43 66.23 162.59 63.76s34.27-21.24 9.39-50.26-86.05-32.32-102.35-44.74 11.27-17.87 46.45-9.47 47.32 46.84 104 61.46 117.68-86.61 117.68-86.61c-41.68 6-109.42-27.22-110-41.36s104.69 4 121.78 2.5 51.09-29.79 43.72-98.37z"
        opacity=".5" />
    <path class="prefix__prefix__prefix__e"
        d="M1895.62 1485.81c75.66-62.09-16.66-195.36-16.66-195.36s-195.18-30.9-211.69-58 172-6.16 172-6.16c-19.64-58.07-151.63-169.18-151.63-169.18s-171.86 88.1-181.19 57.76 156.15-70.24 156.15-70.24C1622.26 998 1536.83 976 1536.83 976c-130.57-16.8-145.4 151.73-145.4 151.73s-60.22 29.24-147.17 23-16.75-2.69-42.6-1.46l6.6 14.68c4.47-.57 8.87-1 13.19-1.14h11.6c10.8.54 18.65.65 24.19.46 33.61 1 78.23 4.24 91.57 13.77a30.72 30.72 0 015.32-6.17q-2.55 2.94-5.32 6.17c-42.55 49.35 5 179 50.84 242.57s51.87 24.15 67-28-28.88-127.28-26.82-156.27 30-.53 47.38 47.75-18.77 92.61 8 171.22 194.36 72.27 194.36 72.27c-39.57-44.78-52.83-151-36.5-162.7s76.71 127.35 91.78 146.47 75.15 37.55 150.77-24.54z"
        opacity=".2" />
    <rect x="762.84" y="215.34" width="635.1" height="1107.43" rx="58.87" fill="#6376e5" />
    <path class="prefix__prefix__prefix__i"
        d="M1339.08 1330.16H821.71a66.33 66.33 0 01-66.25-66.26V274.2a66.33 66.33 0 0166.25-66.2h517.37a66.33 66.33 0 0166.25 66.25v989.7a66.33 66.33 0 01-66.25 66.21zM821.71 222.72a51.55 51.55 0 00-51.48 51.48v989.7a51.54 51.54 0 0051.48 51.48h517.37a51.53 51.53 0 0051.47-51.48V274.2a51.54 51.54 0 00-51.47-51.48z" />
    <path class="prefix__prefix__prefix__k" d="M883.02 490.63h417.72v417.72H883.02z" opacity=".9" />
    <path class="prefix__prefix__prefix__i"
        d="M924.89 864.51h16.6v16.6h-16.6zm16.6 0h16.6v16.6h-16.6zm16.6 0h16.6v16.6h-16.6zm16.6 0h16.6v16.6h-16.6z" />
    <path class="prefix__prefix__prefix__i"
        d="M991.29 864.51h16.6v16.6h-16.6zm33.21 0h16.6v16.6h-16.6zm16.6 0h16.6v16.6h-16.6zm49.8 0h16.6v16.6h-16.6zm33.2 0h17.58v16.6h-17.58zm17.58 0h16.6v16.6h-16.6zm33.2 0h16.6v16.6h-16.6zm16.6 0h16.6v16.6h-16.6zm16.6 0h16.6v16.6h-16.6zm16.6 0h16.6v16.6h-16.6zm16.6 0h16.6v16.6h-16.6zm16.61 0h17.58v16.6h-17.58zm-349.6 0h16.6v16.6h-16.6zm83-16.6h16.6v16.6h-16.6zm49.81 0h16.6v16.6h-16.6zm33.2 0h16.6v16.6h-16.6zm16.6 0h16.6v16.6h-16.6zm16.6 0h16.6v16.6h-16.6zm16.6 0h17.58v16.6h-17.58zm50.78 0h16.6v16.6h-16.6zm83.01 0h17.58v16.6h-17.58zm-349.6 0h16.6v16.6h-16.6zm33.2-16.6h16.6v16.6h-16.6zm16.6 0h16.6v16.6h-16.6zm33.2 0h16.6v16.6h-16.6zm33.21 0h16.6v16.6h-16.6zm16.6 0h16.6v16.6h-16.6zm16.6 0h16.6v16.6h-16.6zm33.2 0h16.6v16.6h-16.6zm16.6 0h16.6v16.6h-16.6zm16.6 0h17.58v16.6h-17.58zm17.58 0h16.6v16.6h-16.6zm33.2 0h16.6v16.6h-16.6zm33.2 0h16.6v16.6h-16.6zm16.6 0h16.6v16.6h-16.6zm33.21 0h17.58v16.6h-17.58zm-349.6 0h16.6v16.6h-16.6z" />
    <path class="prefix__prefix__prefix__i"
        d="M941.49 814.71h16.6v16.6h-16.6zm16.6 0h16.6v16.6h-16.6zm33.2 0h16.6v16.6h-16.6zm33.21 0h16.6v16.6h-16.6zm33.2 0h16.6v16.6h-16.6zm33.2 0h16.6v16.6h-16.6zm83.98 0h16.6v16.6h-16.6zm33.2 0h16.6v16.6h-16.6zm16.6 0h16.6v16.6h-16.6zm33.21 0h17.58v16.6h-17.58zm-349.6 0h16.6v16.6h-16.6zm83-16.6h16.6v16.6h-16.6zm33.21 0h16.6v16.6h-16.6zm16.6 0h16.6v16.6h-16.6zm16.6 0h16.6v16.6h-16.6zm33.2 0h16.6v16.6h-16.6zm16.6 0h16.6v16.6h-16.6zm34.18 0h16.6v16.6h-16.6zm33.2 0h16.6v16.6h-16.6zm83.01 0h17.58v16.6h-17.58zm-349.6 0h16.6v16.6h-16.6zm16.6-16.6h16.6v16.6h-16.6zm16.6 0h16.6v16.6h-16.6zm16.6 0h16.6v16.6h-16.6zm16.6 0h16.6v16.6h-16.6zm16.6 0h16.6v16.6h-16.6zm33.21 0h16.6v16.6h-16.6zm33.2 0h16.6v16.6h-16.6zm16.6 0h16.6v16.6h-16.6zm33.2 0h16.6v16.6h-16.6zm67.38 0h16.6v16.6h-16.6zm16.6 0h16.6v16.6h-16.6zm16.6 0h16.6v16.6h-16.6zm16.6 0h16.6v16.6h-16.6zm16.6 0h16.6v16.6h-16.6zm16.61 0h17.58v16.6h-17.58zm-349.6 0h16.6v16.6h-16.6zm166.01-16.6h16.6v16.6h-16.6zm16.6 0h16.6v16.6h-16.6zm16.6 0h16.6v16.6h-16.6zm34.18 0h16.6v16.6h-16.6zm-216.79-16.6h16.6v16.6h-16.6zm16.6 0h16.6v16.6h-16.6zm16.6 0h16.6v16.6h-16.6zm16.6 0h16.6v16.6h-16.6zm49.81 0h16.6v16.6h-16.6zm16.6 0h16.6v16.6h-16.6zm16.6 0h16.6v16.6h-16.6zm33.2 0h16.6v16.6h-16.6zm16.6 0h16.6v16.6h-16.6zm16.6 0h17.58v16.6h-17.58zm17.58 0h16.6v16.6h-16.6zm16.6 0h16.6v16.6h-16.6zm16.6 0h16.6v16.6h-16.6zm16.6 0h16.6v16.6h-16.6zm16.6 0h16.6v16.6h-16.6zm33.2 0h16.6v16.6h-16.6zm16.61 0h17.58v16.6h-17.58z" />
    <path class="prefix__prefix__prefix__i"
        d="M941.49 731.71h16.6v16.6h-16.6zm16.6 0h16.6v16.6h-16.6zm49.8 0h16.6v16.6h-16.6zm16.61 0h16.6v16.6h-16.6zm33.2 0h16.6v16.6h-16.6zm49.8 0h16.6v16.6h-16.6zm34.18 0h16.6v16.6h-16.6zm16.6 0h16.6v16.6h-16.6zm33.2 0h16.6v16.6h-16.6zm16.6 0h16.6v16.6h-16.6zm-283.19-16.6h16.6v16.6h-16.6zm33.2 0h16.6v16.6h-16.6zm16.6 0h16.6v16.6h-16.6zm16.6 0h16.6v16.6h-16.6zm16.6 0h16.6v16.6h-16.6zm33.21 0h16.6v16.6h-16.6zm16.6 0h16.6v16.6h-16.6zm16.6 0h16.6v16.6h-16.6zm16.6 0h16.6v16.6h-16.6zm16.6 0h16.6v16.6h-16.6zm16.6 0h17.58v16.6h-17.58zm83.98 0h16.6v16.6h-16.6zm16.6 0h16.6v16.6h-16.6zm33.21 0h17.58v16.6h-17.58zm-349.6 0h16.6v16.6h-16.6zm16.6-16.6h16.6v16.6h-16.6zm16.6 0h16.6v16.6h-16.6zm16.6 0h16.6v16.6h-16.6zm66.41 0h16.6v16.6h-16.6zm16.6 0h16.6v16.6h-16.6zm66.4 0h16.6v16.6h-16.6zm50.78 0h16.6v16.6h-16.6zm16.6 0h16.6v16.6h-16.6zm33.2 0h16.6v16.6h-16.6zm16.6 0h16.6v16.6h-16.6zm16.6 0h16.6v16.6h-16.6zm16.61 0h17.58v16.6h-17.58zm-349.6 0h16.6v16.6h-16.6zm49.8-16.6h16.6v16.6h-16.6zm16.6 0h16.6v16.6h-16.6zm16.6 0h16.6v16.6h-16.6zm16.6 0h16.6v16.6h-16.6zm16.61 0h16.6v16.6h-16.6zm16.6 0h16.6v16.6h-16.6zm49.8 0h16.6v16.6h-16.6zm50.78 0h16.6v16.6h-16.6zm16.6 0h16.6v16.6h-16.6zm66.4 0h16.6v16.6h-16.6zm-316.39 0h16.6v16.6h-16.6zm16.6-16.6h16.6v16.6h-16.6zm16.6 0h16.6v16.6h-16.6zm16.6 0h16.6v16.6h-16.6zm16.6 0h16.6v16.6h-16.6zm33.2 0h16.6v16.6h-16.6zm33.21 0h16.6v16.6h-16.6zm16.6 0h16.6v16.6h-16.6zm33.2 0h16.6v16.6h-16.6zm16.6 0h16.6v16.6h-16.6zm16.6 0h17.58v16.6h-17.58zm17.58 0h16.6v16.6h-16.6zm33.2 0h16.6v16.6h-16.6zm16.6 0h16.6v16.6h-16.6zm16.6 0h16.6v16.6h-16.6zm16.6 0h16.6v16.6h-16.6zm33.21 0h17.58v16.6h-17.58z" />
    <path class="prefix__prefix__prefix__i"
        d="M924.89 648.71h16.6v16.6h-16.6zm33.2 0h16.6v16.6h-16.6zm33.2 0h16.6v16.6h-16.6zm16.6 0h16.6v16.6h-16.6zm49.81 0h16.6v16.6h-16.6zm16.6 0h16.6v16.6h-16.6zm16.6 0h16.6v16.6h-16.6zm33.2 0h17.58v16.6h-17.58zm17.58 0h16.6v16.6h-16.6zm16.6 0h16.6v16.6h-16.6zm33.2 0h16.6v16.6h-16.6zm33.2 0h16.6v16.6h-16.6zm16.6 0h16.6v16.6h-16.6zm16.61 0h17.58v16.6h-17.58zm-349.6 0h16.6v16.6h-16.6zm16.6-16.6h16.6v16.6h-16.6zm66.4 0h16.6v16.6h-16.6zm16.6 0h16.6v16.6h-16.6zm33.21 0h16.6v16.6h-16.6zm16.6 0h16.6v16.6h-16.6zm33.2 0h16.6v16.6h-16.6zm16.6 0h16.6v16.6h-16.6zm34.18 0h16.6v16.6h-16.6zm16.6 0h16.6v16.6h-16.6zm16.6 0h16.6v16.6h-16.6zm16.6 0h16.6v16.6h-16.6zm16.6 0h16.6v16.6h-16.6zm16.6 0h16.6v16.6h-16.6zm-316.39 0h16.6v16.6h-16.6zm132.81-16.6h16.6v16.6h-16.6zm33.2 0h16.6v16.6h-16.6zm16.6 0h16.6v16.6h-16.6zm33.2 0h17.58v16.6h-17.58zm17.58 0h16.6v16.6h-16.6zm16.6 0h16.6v16.6h-16.6zm-233.39-16.6h16.6v16.6h-16.6zm16.6 0h16.6v16.6h-16.6zm16.6 0h16.6v16.6h-16.6zm16.6 0h16.6v16.6h-16.6z" />
    <path class="prefix__prefix__prefix__i"
        d="M991.29 598.91h16.6v16.6h-16.6zm33.21 0h16.6v16.6h-16.6zm16.6 0h16.6v16.6h-16.6zm49.8 0h16.6v16.6h-16.6zm67.38 0h16.6v16.6h-16.6zm16.6 0h16.6v16.6h-16.6zm33.2 0h16.6v16.6h-16.6zm49.81 0h17.58v16.6h-17.58zm-349.6 0h16.6v16.6h-16.6zm83-16.6h16.6v16.6h-16.6zm132.81 0h17.58v16.6h-17.58zm17.58 0h16.6v16.6h-16.6zm33.2 0h16.6v16.6h-16.6zm16.6 0h16.6v16.6h-16.6zm33.2 0h16.6v16.6h-16.6zm16.6 0h16.6v16.6h-16.6zm16.61 0h17.58v16.6h-17.58zm-349.6 0h16.6v16.6h-16.6zm33.2-16.61h16.6v16.6h-16.6zm16.6 0h16.6v16.6h-16.6zm33.2 0h16.6v16.6h-16.6zm33.21 0h16.6v16.6h-16.6zm16.6 0h16.6v16.6h-16.6zm33.2 0h16.6v16.6h-16.6zm16.6 0h16.6v16.6h-16.6zm33.2 0h17.58v16.6h-17.58zm67.38 0h16.6v16.6h-16.6zm16.6 0h16.6v16.6h-16.6zm16.6 0h16.6v16.6h-16.6zm-316.39 0h16.6v16.6h-16.6zm33.2-16.6h16.6v16.6h-16.6zm16.6 0h16.6v16.6h-16.6zm33.2 0h16.6v16.6h-16.6zm33.21 0h16.6v16.6h-16.6zm33.2 0h16.6v16.6h-16.6zm16.6 0h16.6v16.6h-16.6zm16.6 0h16.6v16.6h-16.6zm16.6 0h16.6v16.6h-16.6zm16.6 0h17.58v16.6h-17.58zm34.18 0h16.6v16.6h-16.6zm16.6 0h16.6v16.6h-16.6zm16.6 0h16.6v16.6h-16.6zm33.2 0h16.6v16.6h-16.6zm16.6 0h16.6v16.6h-16.6zm16.61 0h17.58v16.6h-17.58zm-349.6 0h16.6v16.6h-16.6zm83-16.6h16.6v16.6h-16.6zm66.41 0h16.6v16.6h-16.6zm16.6 0h16.6v16.6h-16.6zm33.2 0h16.6v16.6h-16.6zm16.6 0h17.58v16.6h-17.58zm17.58 0h16.6v16.6h-16.6zm16.6 0h16.6v16.6h-16.6zm83 0h16.6v16.6h-16.6zm-332.99 0h16.6v16.6h-16.6zm16.6-16.6h16.6v16.6h-16.6zm16.6 0h16.6v16.6h-16.6zm16.6 0h16.6v16.6h-16.6zm16.6 0h16.6v16.6h-16.6z" />
    <path class="prefix__prefix__prefix__i"
        d="M991.29 515.9h16.6v16.6h-16.6zm33.21 0h16.6v16.6h-16.6zm16.6 0h16.6v16.6h-16.6zm83 0h17.58v16.6h-17.58zm34.18 0h16.6v16.6h-16.6zm33.2 0h16.6v16.6h-16.6zm16.6 0h16.6v16.6h-16.6zm49.81 0h17.58v16.6h-17.58zm-349.6 0h16.6v16.6h-16.6z" />
    <g class="prefix__prefix__prefix__l">
        <path class="prefix__prefix__prefix__k"
            d="M852.81 548.6a5.92 5.92 0 01-5.91-5.91v-80.51a5.91 5.91 0 015.91-5.9H934a5.9 5.9 0 110 11.8h-75.29v74.61a5.91 5.91 0 01-5.9 5.91zm478.19.4a5.91 5.91 0 01-5.9-5.91v-75.37h-74.61a5.91 5.91 0 110-11.81H1331a5.91 5.91 0 015.9 5.91v81.23a5.91 5.91 0 01-5.9 5.95z" />
    </g>
    <g class="prefix__prefix__prefix__l">
        <path class="prefix__prefix__prefix__k"
            d="M1331 953.56h-81.24a5.91 5.91 0 010-11.81h75.34v-74.61a5.9 5.9 0 1111.8 0v80.51a5.91 5.91 0 01-5.9 5.91zm-397.68.36h-80.51a5.92 5.92 0 01-5.91-5.92v-81.22a5.91 5.91 0 1111.81 0v75.33h74.61a5.91 5.91 0 110 11.81z" />
    </g>
    <rect y="1679.59" width="2161.94" height="6.41" rx="2.59" fill="#2e3552" />
    <path class="prefix__prefix__prefix__n"
        d="M1274.21 1133.39v394h62.5v-359.31h250v359.28h62.5V739.43h-62.5c-20.71 0-52.5 106.9-52.5 214.32 0 81 9.54 150.37 23.11 179.64zm312.5 0h-.61c.21-.44.41-.9.61-1.36z" />
    <path class="prefix__prefix__prefix__o"
        d="M1505.82 544.43c-51.3 0-92.89 45.74-92.89 102.17v71.69h22.25l12.88-26.56-3.22 26.56h143l11.71-24.15-2.93 24.15h16.1V662c-.01-64.93-47.87-117.57-106.9-117.57zm-106.44 468.4l-57 24-198.19 159.69a57.56 57.56 0 00-12.84 31.09c-1.42 18.37-61.31 114.47-39.92 127.19s98.38 50.87 102.66 25.43 27.06-134.23 27.06-134.23l191.07-169.58z" />
    <path class="prefix__prefix__prefix__o"
        d="M1175.53 1359.06l-24.24 70.66s25.66 26.85 12.83 49.46v77.72h-20l-5.71-41s-22.73 40.46-34.22 41c-24.07 1.09-71.74 9.58-73.17-3.14s36.1-25.12 36.1-25.12l39.93-108.82 17.11-66.42zm372.14-364.6s12.83 124.36-24.24 147-201 94.68-201 94.68 69.86 65 55.61 80.55-78.43 57.94-87 49.46-104.09-110.23-92.68-142.73S1368 1084.9 1368 1084.9l18.53-66.42 5.7-53.7 59.89-38.16z" />
    <ellipse class="prefix__prefix__prefix__p" cx="1482.35" cy="646" rx="59.44" ry="58.91" />
    <path class="prefix__prefix__prefix__p"
        d="M1528.42 670.13s-2.85 53.7 41.35 70.66S1460 868 1460 868V745s20-21.2 0-53.7zm94.82 252.25l-11.41 55.12-34.22 189.36s28.52 80.56-10 79.14-20-87.61-20-87.61l20-156.87v-60.76zM1378 895.53L1365.16 945l-58.46 139.9s-39.92 66.42-7.13 65 32.8-65 32.8-65l67-113.05v-63.6z" />
    <path class="prefix__prefix__prefix__o"
        d="M1368 1308.18l47.06 43.81s32.79-7.06 45.62 31.09 21.39 62.18 21.39 62.18l-17.11 9.89-21.39-29.67s-12.83 53.7-25.66 57.94-77 32.5-71.29 0l31.38-45.22s4.27-50.88-8.56-55.12-47-46.63-47-46.63z" />
    <path class="prefix__prefix__prefix__n"
        d="M1549.93 1038.26s-134-48-142.58-43.8a64.89 64.89 0 01-20.09 5.16l.13-19.3s44.2-15.54 68.44-5.65 98.38 53.7 98.38 53.7z" />
    <path class="prefix__prefix__prefix__q"
        d="M1468.54 839.71s38.49-43.81 49.9-70.66a69.76 69.76 0 0137-36.06s85.61 19.11 84.19 53-54.18 86.21-54.18 86.21 7.13 188-31.37 185.12a81.43 81.43 0 01-17.11-33.91c-4.28-19.79-136.88-41-136.88-41s-11.41 19.79-12.84 11.31 11.41-216.22 11.41-216.22l68-44.54z" />
    <path class="prefix__prefix__prefix__q"
        d="M1628.65 772.36l1 .53a19.45 19.45 0 0110 17v104.88a19.59 19.59 0 007 15c5.49 4.63 10.59 11.3.08 14.77-17.11 5.66-84.13 33.92-85.55 24s-4.28-21.2 0-21.2c3.35 0 23.3-101.34 39.33-144.66a19.72 19.72 0 0125.24-11.62 19.47 19.47 0 012.9 1.3zm-210.73.23l-20 5.65-22.82 97.51s-27.09 5.65-18.53 15.54 44.2 35.33 44.2 35.33z" />
    <path class="prefix__prefix__prefix__o"
        d="M1532.23 572.57a48.86 48.86 0 00-38.44-19.44H1492c-35.16 0-63.66 31.54-63.66 70.44h11.78l1.9-14.36 2.79 14.36h69.88l5.85-12.15-1.54 12.15h13.75q9.62 47.35-27.65 94.72h23.41l11.75-24.29-2.92 24.29H1582l8.78-55.86c-.02-41.84-24.55-77.31-58.55-89.86z" />
    <path class="prefix__prefix__prefix__n"
        d="M338 1224.42c15-32.37 25.55-109.1 25.55-198.62 0-118.78-35.15-237-58-237h-69.1V1660h69.1v-397.23H582V1660h69.11v-435.58zm-32.5-1.51c.22.51.45 1 .67 1.51h-.67z" />
    <path class="prefix__prefix__prefix__r"
        d="M626.07 1065.48s83.22 34.21 56.83 54.32-81.19-24.14-79.16-30.17-8.12-20.12-8.12-20.12z" />
    <path class="prefix__prefix__prefix__s"
        d="M553 795.9l26.38 24.1 6.09 70.42 20.3 74.43s34.5 70.42 28.42 84.5 6.08 18.11 6.08 18.11l-46.68 18.1s-50.75-56.33-50.75-68.4S553 795.9 553 795.9z" />
    <path
        d="M553 795.9l26.38 24.1 6.09 70.42 20.3 74.43s34.5 70.42 28.42 84.5 6.08 18.11 6.08 18.11l-46.68 18.1s-50.75-56.33-50.75-68.4S553 795.9 553 795.9z"
        style="isolation:isolate" fill="#80c7eb" opacity=".8" />
    <path class="prefix__prefix__prefix__s"
        d="M802.66 1520.15s-10.15 46.27-12.18 50.3 38.57 18.1 38.57 18.1l48.71-34.2s-20.29-44.26-20.29-52.3z" />
    <path class="prefix__prefix__prefix__o"
        d="M536.75 1069.51L551 1085.6s294.33 36.22 300.42 92.55 48.71 321.89 24.36 329.93-87.29 38.23-87.29 22.13-40.63-237.39-32.49-277.63c0 0-351.17-44.26-359.29-94.55s8.12-72.43 8.12-72.43z" />
    <path class="prefix__prefix__prefix__u"
        d="M536.75 1069.51L551 1085.6s294.33 36.22 300.42 92.55 48.71 321.89 24.36 329.93-87.29 38.23-87.29 22.13-40.63-237.39-32.49-277.63c0 0-351.17-44.26-359.29-94.55s8.12-72.43 8.12-72.43z" />
    <path class="prefix__prefix__prefix__o"
        d="M798.6 1566.42s-8.12-18.1-12.18-12.07-18.27 76.45-4.06 76.45 144.12 32.2 162.39 28.2 52.78 2 48.72-18.11-24.36-22.13-24.36-22.13-75.11-44.26-79.17-66.39-26.38-10.06-26.38-10.06v14.09s-42.63 32.15-64.96 10.02z" />
    <path class="prefix__prefix__prefix__r"
        d="M412.93 643s14.21 68.4-16.24 74.43 38.57 46.27 38.57 46.27l44.66 24.15 32.48-32.19s-29.4-59.34-7.11-103.6-92.36-9.06-92.36-9.06z" />
    <path class="prefix__prefix__prefix__r"
        d="M512.4 755.67l-32.48 32.19-44.66-24.15s-69-40.23-38.57-46.27c19.59-3.88 20.69-33.57 19-54.26a185.15 185.15 0 00-2.76-20.18s114.69-35.21 92.36 9a76.81 76.81 0 00-7 21.65c-6.82 39.83 14.11 82.02 14.11 82.02z" />
    <path class="prefix__prefix__prefix__s" d="M626.07 1578.49v46.28h77.13l6.09-18.11-8.12-48.28-75.1 20.11z" />
    <path class="prefix__prefix__prefix__o"
        d="M307.38 1109.74s0 118.7 48.72 122.72 223.28 26.16 223.28 26.16 10.15 197.16 28.42 261.53 2 68.4 18.27 72.43 85.25-10.06 83.22-24.14-10.15-370.18-10.15-370.18 18.27-76.44-225.31-112.66z" />
    <path class="prefix__prefix__prefix__o"
        d="M632.16 1610.68s-12.16-26.15-14.16-18.1-26.39 78.46-2 84.49 101.49 38.23 152.23 36.22 56.84-4 56.84-4 14.21-20.11-4.06-32.19-93.37-82.48-97.43-90.53-34.51-14.08-34.51 0-42.71 42.22-56.91 24.11z" />
    <path class="prefix__prefix__prefix__u"
        d="M505.29 652.06a76.81 76.81 0 00-7 21.65c-10.11 6-16.87 4.5-29.56 4.5-18.81 0-26.4-23.84-38.56-36.21-1-11.49-17.26 1-17.26 1s114.71-35.2 92.38 9.06z" />
    <ellipse class="prefix__prefix__prefix__r" cx="463.68" cy="610.82" rx="66.98" ry="66.39" />
    <path
        d="M579.38 820s-10.15 72.43-16.24 98.58-14.21 146.86-18.27 163-28.42 20.12-77.13 14.08a91.56 91.56 0 00-9.22-.68c-30-1-64.32 10.18-96.09 18.91-18.27 5-35.7 9.25-51 9.94-23.14 1-29.92-24.39-29.13-51.91.75-25.61 8.08-53.07 14.92-62.77 12.32-17.46.21-174.24 4.75-225.94.69-7.89 1.77-13.32 3.37-15.45 12.18-16.1 91.34-56.33 100.22-54.7s84.5 48.66 84.5 48.66c18.27 0 17.68-19.63 17.68-19.63s12.76 23.66 37.12 29.69S579.38 820 579.38 820z"
        fill="#88c2e9" />
    <path class="prefix__prefix__prefix__r"
        d="M443.69 1080.86s130.75 4.13 107.85 19.52-124.4 29.48-126.43 9.36 18.58-28.88 18.58-28.88z" />
    <path class="prefix__prefix__prefix__u"
        d="M458.52 1095c.43 7.72-20.54 25.13-27.32 36.89-3.75 6.52-32.82-2.07-68.77-18a707.08 707.08 0 01-80.12-42c.75-25.61 8.08-53.07 14.92-62.77 12.32-17.46.21-174.24 4.75-225.94a22.88 22.88 0 013.37-1.37h24.36C412.93 820 317.53 985 317.53 985s125.85 102.6 138 106.63a3.63 3.63 0 012.99 3.37z" />
    <path
        d="M329.71 769.75h-24.36s-22.33 6-40.59 46.27-85.26 165-26.39 213.25 184.71 104.62 192.83 90.53 36.54-36.21 24.36-40.23-138-106.63-138-106.63S412.93 808 329.71 769.75z"
        fill="#80c7eb" />
    <path class="prefix__prefix__prefix__o"
        d="M453.37 579.92s2.94-40.33 39.21-23.88 33.9-28.89 22.94-36.9-10.61-10-50.7-4.63-117.89 14.49-92.73 94.32 48 59.32 48 59.32-20-71.87.26-58.18l20.27 13.69 10.69-2.24z" />
    <path class="prefix__prefix__prefix__n"
        d="M1949.72 1160.68c0-36.31-272.26-65.75-608.11-65.75s-608.11 29.44-608.11 65.75c0 14.07 40.92 27.11 110.57 37.81v449.84h33.17v-445.2c111.55 14.25 278.17 23.3 464.37 23.3 187.75 0 355.59-9.2 467.14-23.66v445.56h33.17v-450.27c67.96-10.62 107.8-23.5 107.8-37.38z" />
    <ellipse class="prefix__prefix__prefix__x" cx="1417.8" cy="1131.87" rx="123.82" ry="30.18" />
    <ellipse class="prefix__prefix__prefix__q" cx="1417.8" cy="1131.87" rx="101.49" ry="24.74" />
    <ellipse class="prefix__prefix__prefix__x" cx="957.03" cy="1156.02" rx="123.82" ry="30.18" />
    <ellipse class="prefix__prefix__prefix__q" cx="957.03" cy="1156.02" rx="101.49" ry="24.74" />
    <ellipse class="prefix__prefix__prefix__r" cx="1414.92" cy="1120.51" rx="59.03" ry="9.24" />
    <ellipse class="prefix__prefix__prefix__y" cx="1383.46" cy="1107.03" rx="18.64" ry="10.01" />
    <ellipse class="prefix__prefix__prefix__y" cx="1376.47" cy="1107.03" rx="18.64" ry="10.01" />
    <ellipse class="prefix__prefix__prefix__y" cx="1458.02" cy="1109.34" rx="18.64" ry="10.01" />
    <ellipse class="prefix__prefix__prefix__y" cx="1415.3" cy="1107.03" rx="18.64" ry="10.01" />
    <ellipse class="prefix__prefix__prefix__y" cx="1447.15" cy="1107.03" rx="18.64" ry="10.01" />
    <path class="prefix__prefix__prefix__n"
        d="M1471.23 1100.88q-50.54 17-113.4 0v-1.56a46.08 46.08 0 0144-45.88 291.26 291.26 0 0130 0 41.65 41.65 0 0139.43 41.51zm-16.54 42.42a376.24 376.24 0 01-74.88 0 23.79 23.79 0 01-21.59-23.56h118a23.79 23.79 0 01-21.53 23.56z" />
    <path class="prefix__prefix__prefix__q"
        d="M1399 1067.78a22.45 22.45 0 01-17.08 0 22.36 22.36 0 0117.08 0zm17.08 6.92a22.39 22.39 0 01-17.09 0 22.48 22.48 0 0117.09 0zm1.55-12.31a22.36 22.36 0 01-17.08 0 22.36 22.36 0 0117.08 0zm31.85 0a22.39 22.39 0 01-17.09 0 22.39 22.39 0 0117.09 0zm-8.55 6.93a22.45 22.45 0 01-17.08 0 22.36 22.36 0 0117.08 0z" />
    <ellipse class="prefix__prefix__prefix__r" cx="956.17" cy="1144.65" rx="59.03" ry="9.24" />
    <ellipse class="prefix__prefix__prefix__y" cx="924.72" cy="1131.18" rx="18.64" ry="10.01" />
    <ellipse class="prefix__prefix__prefix__y" cx="917.73" cy="1131.18" rx="18.64" ry="10.01" />
    <ellipse class="prefix__prefix__prefix__y" cx="999.28" cy="1133.49" rx="18.64" ry="10.01" />
    <ellipse class="prefix__prefix__prefix__y" cx="956.56" cy="1131.18" rx="18.64" ry="10.01" />
    <ellipse class="prefix__prefix__prefix__y" cx="988.41" cy="1131.18" rx="18.64" ry="10.01" />
    <path class="prefix__prefix__prefix__n"
        d="M1012.48 1125q-50.54 17-113.39 0v-1.56a46.08 46.08 0 0144-45.88 294.11 294.11 0 0130 0 41.63 41.63 0 0139.42 41.52zm-16.54 42.44a376.24 376.24 0 01-74.88 0 23.79 23.79 0 01-21.58-23.56h118a23.79 23.79 0 01-21.54 23.56z" />
    <path class="prefix__prefix__prefix__q"
        d="M940.25 1091.92a22.39 22.39 0 01-17.09 0 22.39 22.39 0 0117.09 0zm17.09 6.93a22.48 22.48 0 01-17.09 0 22.39 22.39 0 0117.09 0zm1.55-12.32a22.36 22.36 0 01-17.08 0 22.36 22.36 0 0117.08 0zm31.85 0a22.39 22.39 0 01-17.09 0 22.39 22.39 0 0117.09 0zm-8.55 6.93a22.45 22.45 0 01-17.08 0 22.36 22.36 0 0117.08 0z" />
    <path class="prefix__prefix__prefix__y"
        d="M1524.32 1123.7l.28 6.23.37 8.08s-37.46 2.1-45 10a3.57 3.57 0 00-.48.55l-15-3.25v-7.33l.61-.33.32-.17a137.48 137.48 0 0158.9-13.78z" />
    <path class="prefix__prefix__prefix__u"
        d="M1524.32 1123.7l.28 6.23c-16.61.51-48 10.32-48 10.32l-11.5-2.6a137 137 0 0159.22-13.95z" />
    <path class="prefix__prefix__prefix__z"
        d="M1465.38 1137.48l11.18 2.77 3.44 7.75a3.57 3.57 0 00-.48.55l-15-3.25v-7.33l.61-.33z" />
    <path class="prefix__prefix__prefix__y"
        d="M1071.66 1149.85l.29 6.23.36 8.09s-37.45 2.09-45 10a5 5 0 00-.48.54l-15-3.25v-7.33l.61-.33.33-.16a137.55 137.55 0 0158.89-13.79z" />
    <path class="prefix__prefix__prefix__u"
        d="M1071.66 1149.85l.29 6.23c-16.61.51-48 10.32-48 10.32l-11.51-2.6a137.32 137.32 0 0159.22-13.95z" />
    <path class="prefix__prefix__prefix__z"
        d="M1012.72 1163.64l11.19 2.76 3.4 7.77a5 5 0 00-.48.54l-15-3.25v-7.33l.61-.33z" />
    <path class="prefix__prefix__prefix__n"
        d="M1749.89 937a37.52 37.52 0 00-11.06-7.57V851.3a3.47 3.47 0 00-3.49-3.46h-19.52a3.47 3.47 0 00-3.49 3.46V928a35.11 35.11 0 00-24.25 33.29V1129a15.43 15.43 0 0015.5 15.36h41.83a15.36 15.36 0 0015.43-15.29V963.23a36.78 36.78 0 00-10.95-26.23z" />
    <path class="prefix__prefix__prefix__y"
        d="M1688.08 985.84h72.76v95.26h-72.76zm52.32-132.66h-1.57v-1.88a3.47 3.47 0 00-3.49-3.46h-19.52a3.47 3.47 0 00-3.49 3.46v1.88h-1.57v8h1.57v40.95h26.5V861.2h1.57z" />
    <path class="prefix__prefix__prefix__q"
        d="M1167.3 1004.89c-1.92-4.07-3.44-6.95-4-7.94-32.66 8-54.45 1.23-57.89 0-1.68 3.15-12.17 23.25-16.41 42.53-3.83 17.38-1.61 29 6.61 34.64l.24.17c9.07 5.92 17.72 11.17 25.71 15.59l3 1.65.1.06.07.09a47.42 47.42 0 013.06 4.27 16.65 16.65 0 013.1 8.32v86.35h-.55c-20.83.42-33.73 3.92-33.73 6.92 0 3.29 15.47 7 37.65 7s37.65-3.67 37.65-7c0-3-12.67-6.44-33.15-6.91h-.55l.51-79.88a34.93 34.93 0 013.71-15.59c.41-.81.86-1.6 1.32-2.35s.76-1.18 1.17-1.74l.07-.1.11-.06c1-.55 2.12-1.16 3.27-1.8l.14-.08c7.56-4.23 15.71-9.19 24.22-14.75 7.6-5 10.24-15 7.86-29.83-2.14-14.04-8.42-29.27-13.29-39.56z" />
    <path class="prefix__prefix__prefix__y"
        d="M1169.26 1072.56c-8.93 5.83-16.29 10.2-21.93 13.35a129.36 129.36 0 00-24.65.68c-5.77-3.19-13.56-7.77-23.15-14l-.27-.19c-8.79-6-9-18.69-6.15-31.67 7.28-.8 18.88-.45 34.46 5.07 18.46 6.53 37.78 2.84 49-.52 1.82 11.42.69 22.04-7.31 27.28z" />
    <ellipse class="prefix__prefix__prefix__y" cx="1116.21" cy="1033.5" rx="2.53" ry="2.5" />
    <ellipse class="prefix__prefix__prefix__k" cx="1109.13" cy="1056.53" rx="2.53" ry="2.5" />
    <ellipse class="prefix__prefix__prefix__y" cx="1122.27" cy="1039.51" rx="1.52" ry="1.5" />
    <ellipse class="prefix__prefix__prefix__k" cx="1128.33" cy="1068.05" rx="1.52" ry="1.5" />
    <ellipse class="prefix__prefix__prefix__k" cx="1117.72" cy="1069.55" rx="1.52" ry="1.5" />
    <ellipse class="prefix__prefix__prefix__y" cx="1148.54" cy="1019.48" rx="1.52" ry="1.5" />
    <path class="prefix__prefix__prefix__q"
        d="M1285.8 923.48c-1.92-4.07-3.44-7-4-7.94-32.66 8-54.45 1.24-57.88 0-1.68 3.15-12.17 23.25-16.41 42.53-3.83 17.38-1.61 29 6.6 34.64l.25.17c9.07 5.92 17.72 11.17 25.71 15.59l3 1.65.1.06.07.09a47.57 47.57 0 013.06 4.28 16.68 16.68 0 013.1 8.31v86.36h-.4c-20.83.42-33.73 3.92-33.73 6.92 0 3.29 15.47 7 37.65 7s37.65-3.67 37.65-7c0-3-12.67-6.44-33.15-6.91h-.56l.52-79.88a34.86 34.86 0 013.71-15.58c.41-.82.85-1.61 1.32-2.36s.76-1.18 1.17-1.74l.07-.1.11-.06c1-.55 2.12-1.16 3.27-1.8l.14-.08c7.56-4.23 15.71-9.19 24.22-14.75 7.6-5 10.24-15 7.86-29.83-2.25-14.05-8.58-29.28-13.45-39.57z" />
    <path class="prefix__prefix__prefix__y"
        d="M1287.75 991.15c-8.92 5.83-16.28 10.2-21.92 13.35a129.36 129.36 0 00-24.65.68c-5.77-3.19-13.56-7.77-23.15-14l-.27-.19c-8.79-6-9-18.69-6.15-31.67 7.28-.8 18.88-.45 34.46 5.07 18.46 6.53 37.78 2.84 49-.52 1.81 11.42.69 22.04-7.32 27.28z" />
    <ellipse class="prefix__prefix__prefix__y" cx="1234.7" cy="952.09" rx="2.53" ry="2.5" />
    <ellipse class="prefix__prefix__prefix__k" cx="1227.63" cy="975.12" rx="2.53" ry="2.5" />
    <ellipse class="prefix__prefix__prefix__y" cx="1240.77" cy="958.1" rx="1.52" ry="1.5" />
    <ellipse class="prefix__prefix__prefix__k" cx="1246.83" cy="986.64" rx="1.52" ry="1.5" />
    <ellipse class="prefix__prefix__prefix__k" cx="1236.22" cy="988.14" rx="1.52" ry="1.5" />
    <ellipse class="prefix__prefix__prefix__y" cx="1267.04" cy="938.07" rx="1.52" ry="1.5" />
</svg>