<svg xmlns="http://www.w3.org/2000/svg" xmlns:xlink="http://www.w3.org/1999/xlink" viewBox="0 0 792.29 631.57">
    <defs>
        <linearGradient id="prefix__prefix__prefix__a" x1="783.68" y1="-101.65" x2="783.68" y2="140.27"
            gradientTransform="matrix(1 0 0 -1 -163.09 499.14)" gradientUnits="userSpaceOnUse">
            <stop offset="0" stop-color="gray" stop-opacity=".25" />
            <stop offset=".54" stop-color="gray" stop-opacity=".12" />
            <stop offset="1" stop-color="gray" stop-opacity=".1" />
        </linearGradient>
        <linearGradient id="prefix__prefix__prefix__b" x1="634.55" y1="312.94" x2="634.55" y2="437.85"
            xlink:href="#prefix__prefix__prefix__a" />
        <linearGradient id="prefix__prefix__prefix__c" x1="746.77" y1="12.4" x2="746.77" y2="499.13"
            gradientTransform="matrix(1 0 0 -1 -163.09 499.13)" xlink:href="#prefix__prefix__prefix__a" />
        <linearGradient id="prefix__prefix__prefix__d" x1="897.64" y1="57.79" x2="897.64" y2="289.67"
            xlink:href="#prefix__prefix__prefix__a" />
        <linearGradient id="prefix__prefix__prefix__e" x1="824.06" y1="-132.44" x2="824.06" y2="-74.73"
            gradientTransform="matrix(1 0 0 -1 -163.09 499.13)" xlink:href="#prefix__prefix__prefix__a" />
        <linearGradient id="prefix__prefix__prefix__f" x1="614.09" y1="140.36" x2="614.09" y2="243.57"
            xlink:href="#prefix__prefix__prefix__a" />
        <linearGradient id="prefix__prefix__prefix__g" x1="610.07" y1="54.81" x2="610.07" y2="146.41"
            xlink:href="#prefix__prefix__prefix__a" />
        <linearGradient id="prefix__prefix__prefix__h" x1="583.68" y1="259.77" x2="583.68" y2="410.21"
            gradientTransform="matrix(1 0 0 -1 0 578.36)" xlink:href="#prefix__prefix__prefix__a" />
        <linearGradient id="prefix__prefix__prefix__i" x1="621.79" y1="225.28" x2="621.79" y2="339.89"
            xlink:href="#prefix__prefix__prefix__a" />
        <style>
            .prefix__prefix__prefix__b {
                fill: #fda57d
            }

            .prefix__prefix__prefix__e {
                fill: #fff
            }

            .prefix__prefix__prefix__f {
                fill: #6c63ff
            }

            .prefix__prefix__prefix__g {
                fill: #dbdbdb
            }

            .prefix__prefix__prefix__p {
                opacity: .9
            }

            .prefix__prefix__prefix__q {
                fill: #25468f
            }

            .prefix__prefix__prefix__r {
                opacity: .8
            }
        </style>
    </defs>
    <path
        d="M792.29 426.79a67.92 67.92 0 00-134.65-12.66l-208.75-5.66 2.29 35.87s-29.76 68.68 126.67 87v69.45h180.86V485.36a67.87 67.87 0 0033.58-58.57z"
        fill="url(#prefix__prefix__prefix__a)" />
    <path class="prefix__prefix__prefix__b" d="M458.35 445.79s-28.5 65.77 121.32 83.32v66.51h173.2V419.5l-296.72-8z" />
    <path
        d="M544.91 171.34a31.93 31.93 0 01-43.91 10l-93-61.28a31.94 31.94 0 01-10-43.91 31.93 31.93 0 0143.91-10l93 61.28a31.92 31.92 0 0110 43.91z"
        fill="url(#prefix__prefix__prefix__b)" />
    <path class="prefix__prefix__prefix__b"
        d="M539.74 168a29.69 29.69 0 01-40.82 9.28l-86.45-57a29.7 29.7 0 01-9.28-40.82A29.69 29.69 0 01444 70.17l86.45 57a29.69 29.69 0 019.29 40.83z" />
    <circle class="prefix__prefix__prefix__b" cx="719.98" cy="429" r="65.04" />
    <rect x="448.85" width="269.65" height="486.73" rx="10.24" fill="url(#prefix__prefix__prefix__c)" />
    <rect class="prefix__prefix__prefix__e" x="452.5" y="6.58" width="262.37" height="473.58" rx="13.64" />
    <path class="prefix__prefix__prefix__f"
        d="M649.6 18.46a21.27 21.27 0 01-21 18.09H538a21.28 21.28 0 01-21-18.09h-48a10 10 0 00-10 10v429.9a10 10 0 0010 10h229.3a10 10 0 0010-10V28.42a10 10 0 00-10-10z" />
    <path class="prefix__prefix__prefix__g"
        d="M556.65 24.12h54.81a1.83 1.83 0 011.83 1.82 1.83 1.83 0 01-1.83 1.83h-54.81a1.83 1.83 0 01-1.83-1.83 1.83 1.83 0 011.83-1.82z" />
    <circle class="prefix__prefix__prefix__g" cx="625.71" cy="25.58" r="2.19" />
    <path
        d="M762 440.47c-18.87 4.36-31.83-7.94-36.2-26.82l-43.35-161a35.33 35.33 0 0126.38-42.25 35.31 35.31 0 0142.23 26.43L786.48 402c4.37 18.79-5.58 34.11-24.48 38.47z"
        fill="url(#prefix__prefix__prefix__d)" />
    <path class="prefix__prefix__prefix__b"
        d="M710.71 218.51a29.6 29.6 0 0135.5 22.18l39.88 172.62a29.59 29.59 0 01-22.17 35.5 29.6 29.6 0 01-35.51-22.17L688.53 254a29.6 29.6 0 0122.18-35.49z" />
    <path fill="url(#prefix__prefix__prefix__e)" d="M537.19 573.86h247.56v57.71H537.19z" />
    <path fill="#4d8af0" d="M543.88 580.55h234.18v45.16H543.88z" />
    <path
        d="M508.8 344.11a31.55 31.55 0 01-43.38 9.89l-62.36-40.35a31.56 31.56 0 01-9.86-43.38 31.55 31.55 0 0143.38-9.86l62.36 40.35a31.55 31.55 0 019.86 43.35z"
        fill="url(#prefix__prefix__prefix__f)" />
    <path
        d="M493.16 429.53a31.83 31.83 0 01-43.77 10l-38.63-28.23a31.84 31.84 0 01-9.95-43.77 31.83 31.83 0 0143.77-9.95l38.63 28.21a31.82 31.82 0 019.95 43.74z"
        fill="url(#prefix__prefix__prefix__g)" />
    <circle cx="583.68" cy="243.37" r="75.22" fill="url(#prefix__prefix__prefix__h)" opacity=".5" />
    <path class="prefix__prefix__prefix__b"
        d="M490 427.43a29.69 29.69 0 01-40.82 9.28l-36-26.27a29.7 29.7 0 01-9.28-40.82 29.69 29.69 0 0140.82-9.28l36 26.27a29.69 29.69 0 019.28 40.82zm15.39-85.5a29.69 29.69 0 01-40.82 9.28l-58.68-38a29.7 29.7 0 01-9.28-40.82 29.69 29.69 0 0140.87-9.25l58.68 38a29.68 29.68 0 019.23 40.79z" />
    <path
        d="M524.94 259.12a31.68 31.68 0 01-43.58 9.88l-79-51.46a31.7 31.7 0 01-9.91-43.54 31.69 31.69 0 0143.55-9.92l79 51.46a31.69 31.69 0 019.94 43.58z"
        fill="url(#prefix__prefix__prefix__i)" />
    <path class="prefix__prefix__prefix__b"
        d="M515.74 255.42a29.69 29.69 0 01-40.82 9.28l-74-48.2a29.7 29.7 0 01-9.28-40.82 29.7 29.7 0 0140.84-9.28l74 48.2a29.69 29.69 0 019.26 40.82z" />
    <g class="prefix__prefix__prefix__p">
        <path class="prefix__prefix__prefix__e" d="M523.25 166.71h120.84v120.84H523.25z" />
    </g>
    <path class="prefix__prefix__prefix__q"
        d="M535.37 274.87h4.8v4.8h-4.8zm4.8 0h4.8v4.8h-4.8zm4.8 0h4.8v4.8h-4.8zm4.8 0h4.8v4.8h-4.8zm4.81 0h4.8v4.8h-4.8zm9.6 0h4.8v4.8h-4.8zm4.8 0h4.8v4.8h-4.8zm14.41 0h4.8v4.8h-4.8zm9.6 0h5.09v4.8h-5.09zm5.09 0h4.8v4.8h-4.8zm9.6 0h4.8v4.8h-4.8zm4.81 0h4.8v4.8h-4.8zm4.8 0h4.8v4.8h-4.8zm4.8 0h4.8v4.8h-4.8zm4.8 0h4.8v4.8h-4.8zm4.81 0h5.09v4.8h-5.09zm-101.13 0h4.8v4.8h-4.8zm24.01-4.8h4.8v4.8h-4.8zm14.4 0h4.8v4.8h-4.8zm9.61 0h4.8v4.8h-4.8zm4.8 0h4.8v4.8h-4.8zm4.8 0h4.8v4.8h-4.8zm4.8 0h5.09v4.8h-5.09zm14.69 0h4.8v4.8h-4.8zm24.02 0h5.09v4.8h-5.09zm-101.13 0h4.8v4.8h-4.8zm9.6-4.81h4.8v4.8h-4.8zm4.8 0h4.8v4.8h-4.8zm9.61 0h4.8v4.8h-4.8zm9.6 0h4.8v4.8h-4.8zm4.8 0h4.8v4.8h-4.8zm4.8 0h4.8v4.8h-4.8zm9.61 0h4.8v4.8h-4.8zm4.8 0h4.8v4.8h-4.8zm4.8 0h5.09v4.8h-5.09zm5.09 0h4.8v4.8h-4.8zm9.6 0h4.8v4.8h-4.8zm9.61 0h4.8v4.8h-4.8zm4.8 0h4.8v4.8h-4.8zm9.61 0h5.09v4.8h-5.09zm-101.13 0h4.8v4.8h-4.8zm9.6-4.8h4.8v4.8h-4.8zm4.8 0h4.8v4.8h-4.8zm9.61 0h4.8v4.8h-4.8zm9.6 0h4.8v4.8h-4.8zm9.6 0h4.8v4.8h-4.8zm9.61 0h4.8v4.8h-4.8zm24.29 0h4.8v4.8h-4.8zm9.61 0h4.8v4.8h-4.8zm4.8 0h4.8v4.8h-4.8zm9.61 0h5.09v4.8h-5.09zm-101.13 0h4.8v4.8h-4.8zm24.01-4.8h4.8v4.8h-4.8zm9.6 0h4.8v4.8h-4.8zm4.8 0h4.8v4.8h-4.8zm4.8 0h4.8v4.8h-4.8zm9.61 0h4.8v4.8h-4.8zm4.8 0h4.8v4.8h-4.8zm9.89 0h4.8v4.8h-4.8zm9.6 0h4.8v4.8h-4.8zm24.02 0h5.09v4.8h-5.09zm-101.13 0h4.8v4.8h-4.8zm4.8-4.8h4.8v4.8h-4.8zm4.8 0h4.8v4.8h-4.8zm4.8 0h4.8v4.8h-4.8zm4.8 0h4.8v4.8h-4.8z" />
    <path class="prefix__prefix__prefix__q"
        d="M554.58 250.86h4.8v4.8h-4.8zm9.6 0h4.8v4.8h-4.8zm9.6 0h4.8v4.8h-4.8zm4.81 0h4.8v4.8h-4.8zm9.6 0h4.8v4.8h-4.8zm19.49 0h4.8v4.8h-4.8zm4.81 0h4.8v4.8h-4.8zm4.8 0h4.8v4.8h-4.8zm4.8 0h4.8v4.8h-4.8zm4.8 0h4.8v4.8h-4.8zm4.81 0h5.09v4.8h-5.09zm-101.13 0h4.8v4.8h-4.8zm48.02-4.8h4.8v4.8h-4.8zm4.8 0h4.8v4.8h-4.8zm4.8 0h4.8v4.8h-4.8zm9.89 0h4.8v4.8h-4.8zm-62.71-4.81h4.8v4.8h-4.8zm4.8 0h4.8v4.8h-4.8zm4.8 0h4.8v4.8h-4.8zm4.8 0h4.8v4.8h-4.8zm14.41 0h4.8v4.8h-4.8zm4.8 0h4.8v4.8h-4.8zm4.8 0h4.8v4.8h-4.8zm9.61 0h4.8v4.8h-4.8zm4.8 0h4.8v4.8h-4.8zm4.8 0h5.09v4.8h-5.09zm5.09 0h4.8v4.8h-4.8zm4.8 0h4.8v4.8h-4.8zm4.8 0h4.8v4.8h-4.8zm4.81 0h4.8v4.8h-4.8zm4.8 0h4.8v4.8h-4.8zm9.6 0h4.8v4.8h-4.8zm4.81 0h5.09v4.8h-5.09zm-91.53-4.8h4.8v4.8h-4.8zm4.8 0h4.8v4.8h-4.8zm14.41 0h4.8v4.8h-4.8zm4.8 0h4.8v4.8h-4.8zm9.6 0h4.8v4.8h-4.8zm14.41 0h4.8v4.8h-4.8zm9.89 0h4.8v4.8h-4.8zm4.8 0h4.8v4.8h-4.8zm9.61 0h4.8v4.8h-4.8zm4.8 0h4.8v4.8h-4.8zm-81.92-4.8h4.8v4.8h-4.8z" />
    <path class="prefix__prefix__prefix__q"
        d="M544.97 231.65h4.8v4.8h-4.8zm4.8 0h4.8v4.8h-4.8zm4.81 0h4.8v4.8h-4.8zm4.8 0h4.8v4.8h-4.8zm9.6 0h4.8v4.8h-4.8zm4.8 0h4.8v4.8h-4.8zm4.81 0h4.8v4.8h-4.8zm4.8 0h4.8v4.8h-4.8zm4.8 0h4.8v4.8h-4.8zm4.8 0h5.09v4.8h-5.09zm24.3 0h4.8v4.8h-4.8zm4.8 0h4.8v4.8h-4.8zm9.61 0h5.09v4.8h-5.09zm-101.13 0h4.8v4.8h-4.8zm4.8-4.8h4.8v4.8h-4.8zm4.8 0h4.8v4.8h-4.8zm4.8 0h4.8v4.8h-4.8zm19.21 0h4.8v4.8h-4.8zm4.8 0h4.8v4.8h-4.8zm19.21 0h4.8v4.8h-4.8zm14.69 0h4.8v4.8h-4.8zm4.8 0h4.8v4.8h-4.8zm9.61 0h4.8v4.8h-4.8zm4.8 0h4.8v4.8h-4.8zm4.8 0h4.8v4.8h-4.8zm4.81 0h5.09v4.8h-5.09zm-101.13 0h4.8v4.8h-4.8zm14.4-4.81h4.8v4.8h-4.8zm4.8 0h4.8v4.8h-4.8zm4.81 0h4.8v4.8h-4.8zm4.8 0h4.8v4.8h-4.8zm4.8 0h4.8v4.8h-4.8zm4.8 0h4.8v4.8h-4.8zm14.41 0h4.8v4.8h-4.8zm14.69 0h4.8v4.8h-4.8zm4.8 0h4.8v4.8h-4.8zm19.21 0h4.8v4.8h-4.8zm-91.52 0h4.8v4.8h-4.8zm4.8-4.8h4.8v4.8h-4.8zm4.8 0h4.8v4.8h-4.8z" />
    <path class="prefix__prefix__prefix__q"
        d="M544.97 217.24h4.8v4.8h-4.8zm4.8 0h4.8v4.8h-4.8zm9.61 0h4.8v4.8h-4.8zm9.6 0h4.8v4.8h-4.8zm4.8 0h4.8v4.8h-4.8zm9.61 0h4.8v4.8h-4.8zm4.8 0h4.8v4.8h-4.8zm4.8 0h5.09v4.8h-5.09zm5.09 0h4.8v4.8h-4.8zm9.6 0h4.8v4.8h-4.8zm4.81 0h4.8v4.8h-4.8zm4.8 0h4.8v4.8h-4.8zm4.8 0h4.8v4.8h-4.8zm9.61 0h5.09v4.8h-5.09zm-96.33-4.8h4.8v4.8h-4.8zm9.6 0h4.8v4.8h-4.8zm9.61 0h4.8v4.8h-4.8zm4.8 0h4.8v4.8h-4.8zm14.4 0h4.8v4.8h-4.8zm4.81 0h4.8v4.8h-4.8zm4.8 0h4.8v4.8h-4.8zm9.6 0h5.09v4.8h-5.09zm5.09 0h4.8v4.8h-4.8zm4.8 0h4.8v4.8h-4.8zm9.61 0h4.8v4.8h-4.8zm9.6 0h4.8v4.8h-4.8zm4.8 0h4.8v4.8h-4.8zm4.81 0h5.09v4.8h-5.09zm-101.13 0h4.8v4.8h-4.8zm4.8-4.8h4.8v4.8h-4.8zm19.21 0h4.8v4.8h-4.8zm4.8 0h4.8v4.8h-4.8zm9.6 0h4.8v4.8h-4.8zm4.8 0h4.8v4.8h-4.8zm9.61 0h4.8v4.8h-4.8zm4.8 0h4.8v4.8h-4.8zm9.89 0h4.8v4.8h-4.8zm4.8 0h4.8v4.8h-4.8zm4.8 0h4.8v4.8h-4.8zm4.81 0h4.8v4.8h-4.8zm4.8 0h4.8v4.8h-4.8zm4.8 0h4.8v4.8h-4.8zm-91.52 0h4.8v4.8h-4.8z" />
    <path class="prefix__prefix__prefix__q"
        d="M568.98 202.84h4.8v4.8h-4.8zm9.61 0h4.8v4.8h-4.8zm4.8 0h4.8v4.8h-4.8zm9.6 0h5.09v4.8h-5.09zm5.09 0h4.8v4.8h-4.8zm4.8 0h4.8v4.8h-4.8zm-67.51-4.81h4.8v4.8h-4.8zm4.8 0h4.8v4.8h-4.8zm4.8 0h4.8v4.8h-4.8zm4.8 0h4.8v4.8h-4.8zm4.81 0h4.8v4.8h-4.8zm9.6 0h4.8v4.8h-4.8zm4.8 0h4.8v4.8h-4.8zm14.41 0h4.8v4.8h-4.8zm19.49 0h4.8v4.8h-4.8zm4.8 0h4.8v4.8h-4.8zm9.61 0h4.8v4.8h-4.8zm14.41 0h5.09v4.8h-5.09zm-101.13 0h4.8v4.8h-4.8zm24.01-4.8h4.8v4.8h-4.8zm38.41 0h5.09v4.8h-5.09zm5.09 0h4.8v4.8h-4.8zm9.6 0h4.8v4.8h-4.8zm4.81 0h4.8v4.8h-4.8zm9.6 0h4.8v4.8h-4.8zm4.8 0h4.8v4.8h-4.8zm4.81 0h5.09v4.8h-5.09zm-101.13 0h4.8v4.8h-4.8zm9.6-4.8h4.8v4.8h-4.8zm4.8 0h4.8v4.8h-4.8z" />
    <path class="prefix__prefix__prefix__q"
        d="M554.58 188.43h4.8v4.8h-4.8zm9.6 0h4.8v4.8h-4.8zm4.8 0h4.8v4.8h-4.8zm9.61 0h4.8v4.8h-4.8zm4.8 0h4.8v4.8h-4.8zm9.6 0h5.09v4.8h-5.09zm19.5 0h4.8v4.8h-4.8zm4.8 0h4.8v4.8h-4.8zm4.8 0h4.8v4.8h-4.8zm-91.52 0h4.8v4.8h-4.8zm9.6-4.8h4.8v4.8h-4.8zm4.8 0h4.8v4.8h-4.8zm9.61 0h4.8v4.8h-4.8zm9.6 0h4.8v4.8h-4.8zm9.6 0h4.8v4.8h-4.8zm4.81 0h4.8v4.8h-4.8zm4.8 0h4.8v4.8h-4.8zm4.8 0h4.8v4.8h-4.8zm4.8 0h5.09v4.8h-5.09zm9.89 0h4.8v4.8h-4.8zm4.8 0h4.8v4.8h-4.8zm4.81 0h4.8v4.8h-4.8zm9.6 0h4.8v4.8h-4.8zm4.8 0h4.8v4.8h-4.8zm4.81 0h5.09v4.8h-5.09zm-101.13 0h4.8v4.8h-4.8z" />
    <path class="prefix__prefix__prefix__q"
        d="M554.58 178.83h4.8v4.8h-4.8zm19.2 0h4.8v4.8h-4.8zm4.81 0h4.8v4.8h-4.8zm9.6 0h4.8v4.8h-4.8zm4.8 0h5.09v4.8h-5.09zm5.09 0h4.8v4.8h-4.8zm4.8 0h4.8v4.8h-4.8zm24.01 0h4.8v4.8h-4.8zm-96.32 0h4.8v4.8h-4.8zm4.8-4.81h4.8v4.8h-4.8zm4.8 0h4.8v4.8h-4.8zm4.8 0h4.8v4.8h-4.8zm4.8 0h4.8v4.8h-4.8zm4.81 0h4.8v4.8h-4.8zm9.6 0h4.8v4.8h-4.8zm4.8 0h4.8v4.8h-4.8zm24.01 0h5.09v4.8h-5.09zm9.89 0h4.8v4.8h-4.8zm9.61 0h4.8v4.8h-4.8zm4.8 0h4.8v4.8h-4.8zm14.41 0h5.09v4.8h-5.09zm-101.13 0h4.8v4.8h-4.8z" />
    <g class="prefix__prefix__prefix__r">
        <path class="prefix__prefix__prefix__e"
            d="M514.52 183.48a1.7 1.7 0 01-1.71-1.71v-23.29a1.71 1.71 0 011.71-1.71H538a1.71 1.71 0 110 3.42h-21.78v21.58a1.7 1.7 0 01-1.7 1.71zm138.31.1a1.71 1.71 0 01-1.71-1.7v-21.8h-21.58a1.71 1.71 0 110-3.41h23.29a1.71 1.71 0 011.71 1.71v23.5a1.71 1.71 0 01-1.71 1.7z" />
    </g>
    <g class="prefix__prefix__prefix__r">
        <path class="prefix__prefix__prefix__e"
            d="M652.83 300.63h-23.5a1.71 1.71 0 010-3.42h21.79v-21.58a1.71 1.71 0 113.42 0v23.29a1.72 1.72 0 01-1.71 1.71zm-115.02.1h-23.29a1.7 1.7 0 01-1.71-1.71v-23.5a1.71 1.71 0 013.41 0v21.8h21.59a1.71 1.71 0 010 3.41z" />
    </g>
    <circle cx="171.62" cy="295.42" r="158.77" style="isolation:isolate" opacity=".3" fill="#6c63ff" />
    <path class="prefix__prefix__prefix__f" d="M106.42 93.44L.7 221.7l156.46 184.65 104.3-122.63L106.42 93.44z" />
    <path style="isolation:isolate" opacity=".1" d="M106.42 93.44L.7 221.7l156.46 184.65 104.3-122.63L106.42 93.44z" />
    <path d="M4.93 223.11a53.27 53.27 0 018.62-11.51l97.1-98.43s33.82-5.64 40.87 11.28l-124 101.48z" fill="#f2f2f2" />
    <path class="prefix__prefix__prefix__f"
        d="M0 221l143.77 219.88s14.09 9.87 28.19 4.23l147.29-99.37-156.45-236.8-141 109.94z" />
    <path
        d="M55.009 208.095l90.214-64.826 1.33 1.852-90.214 64.825zm-3.114 25.521l1.902-1.258 118.394 179.01-1.901 1.258zM184.664 416.74l95.832-70.498 1.351 1.837-95.832 70.498zm-24.211-269.095l1.871-1.303 122.633 176.183-1.872 1.302zM12.9 214.152l111.546-102.356.953 1.039L13.854 215.19zm4.28 1.403l116.563-102.91.933 1.058L18.114 216.612zm2.839.015l121.01-100.857.903 1.083-121.01 100.857z"
        fill="#3f3d56" />
    <g class="prefix__prefix__prefix__p">
        <path class="prefix__prefix__prefix__e" d="M134.679 295.045l59.208-40.314 40.775 59.887-59.208 40.313z" />
    </g>
    <path class="prefix__prefix__prefix__q" d="M177.113 344.608l2.356-1.604 1.62 2.38-2.355 1.604z" />
    <path class="prefix__prefix__prefix__q" d="M179.46 343.004l2.355-1.604 1.621 2.381-2.356 1.604z" />
    <path class="prefix__prefix__prefix__q"
        d="M181.811 341.4l2.356-1.605 1.621 2.38-2.356 1.605zm2.361-1.601l2.356-1.604 1.62 2.38-2.355 1.604z" />
    <path class="prefix__prefix__prefix__q"
        d="M186.524 338.193l2.356-1.604 1.62 2.381-2.355 1.604zm4.706-3.203l2.356-1.605 1.621 2.38-2.356 1.605z" />
    <path class="prefix__prefix__prefix__q"
        d="M193.582 333.384l2.356-1.604 1.621 2.38-2.356 1.605zm7.065-4.801l2.355-1.604 1.621 2.38-2.356 1.605zm4.707-3.196l2.497-1.7 1.62 2.381-2.496 1.7z" />
    <path class="prefix__prefix__prefix__q"
        d="M207.84 323.68l2.356-1.603 1.621 2.38-2.356 1.604zm4.699-3.198l2.355-1.604 1.621 2.38-2.355 1.605zm2.36-1.611l2.356-1.604 1.62 2.38-2.355 1.605z" />
    <path class="prefix__prefix__prefix__q" d="M217.25 317.276l2.357-1.604 1.62 2.38-2.355 1.605z" />
    <path class="prefix__prefix__prefix__q" d="M219.603 315.681l2.356-1.604 1.62 2.38-2.355 1.605z" />
    <path class="prefix__prefix__prefix__q" d="M221.95 314.068l2.355-1.604 1.621 2.38-2.356 1.604z" />
    <path class="prefix__prefix__prefix__q"
        d="M224.305 312.467l2.488-1.694 1.62 2.38-2.487 1.694zm-49.552 33.742l2.356-1.604 1.62 2.38-2.355 1.604zm10.152-10.391l2.356-1.604 1.62 2.38-2.355 1.604zm7.059-4.809l2.356-1.604 1.62 2.38-2.355 1.604zm4.704-3.201l2.356-1.604 1.62 2.38-2.355 1.605zm2.36-1.6l2.356-1.604 1.62 2.38-2.355 1.604z" />
    <path class="prefix__prefix__prefix__q" d="M201.374 324.604L203.73 323l1.621 2.38-2.356 1.605z" />
    <path class="prefix__prefix__prefix__q"
        d="M203.726 323.002l2.496-1.7 1.62 2.38-2.495 1.7zm7.194-4.905l2.356-1.604 1.62 2.38-2.355 1.604zm11.766-8.006l2.488-1.694 1.621 2.38-2.488 1.695zm-49.552 33.742l2.356-1.604 1.62 2.38-2.355 1.605zm3.088-5.59l2.356-1.604 1.621 2.381-2.356 1.604z" />
    <path class="prefix__prefix__prefix__q"
        d="M178.574 336.638l2.356-1.604 1.621 2.38-2.356 1.605zm4.713-3.196l2.355-1.604 1.621 2.381-2.356 1.604zm4.706-3.214l2.356-1.604 1.62 2.38-2.355 1.605z" />
    <path class="prefix__prefix__prefix__q" d="M190.345 328.633l2.356-1.604 1.62 2.38-2.355 1.605z" />
    <path class="prefix__prefix__prefix__q"
        d="M192.697 327.028l2.356-1.604 1.62 2.38-2.355 1.605zm4.703-3.206l2.355-1.604 1.621 2.38-2.356 1.605z" />
    <path class="prefix__prefix__prefix__q" d="M199.746 322.219l2.356-1.604 1.62 2.38-2.355 1.604z" />
    <path class="prefix__prefix__prefix__q" d="M202.107 320.626l2.496-1.7 1.621 2.381-2.496 1.7z" />
    <path class="prefix__prefix__prefix__q"
        d="M204.603 318.93l2.356-1.604 1.62 2.38-2.355 1.604zm4.699-3.209l2.355-1.604 1.621 2.38-2.356 1.605zm4.712-3.206l2.356-1.604 1.62 2.38-2.355 1.605z" />
    <path class="prefix__prefix__prefix__q"
        d="M216.366 310.92l2.356-1.604 1.62 2.38-2.355 1.605zm4.702-3.214l2.488-1.694 1.62 2.38-2.487 1.694zm-49.552 33.742l2.356-1.604 1.62 2.38-2.355 1.604zm3.088-5.59l2.356-1.604 1.62 2.38-2.355 1.604z" />
    <path class="prefix__prefix__prefix__q"
        d="M176.956 334.263l2.356-1.604 1.62 2.38-2.355 1.604zm4.712-3.206l2.356-1.604 1.62 2.38-2.355 1.604zm4.697-3.214l2.355-1.604 1.621 2.38-2.355 1.604zm4.704-3.191l2.355-1.604 1.621 2.381-2.355 1.604zm4.712-3.205l2.356-1.604 1.62 2.38-2.355 1.604zm11.902-8.112l2.356-1.604 1.62 2.381-2.355 1.604zm4.712-3.195l2.356-1.604 1.62 2.38-2.355 1.604z" />
    <path class="prefix__prefix__prefix__q"
        d="M214.747 308.534l2.356-1.604 1.62 2.381-2.355 1.604zm4.693-3.204l2.487-1.694 1.621 2.38-2.488 1.695zm-49.543 33.742l2.356-1.604 1.62 2.38-2.355 1.605zm10.143-10.391l2.355-1.604 1.621 2.38-2.356 1.605zm4.698-3.208l2.356-1.604 1.62 2.38-2.355 1.604zm2.36-1.601l2.356-1.604 1.62 2.38-2.355 1.605z" />
    <path class="prefix__prefix__prefix__q"
        d="M189.45 322.267l2.356-1.604 1.62 2.38-2.355 1.604zm4.712-3.196l2.356-1.604 1.621 2.38-2.356 1.605z" />
    <path class="prefix__prefix__prefix__q"
        d="M196.509 317.458l2.356-1.604 1.62 2.38-2.355 1.604zm4.857-3.29l2.356-1.604 1.62 2.381-2.355 1.604zm4.698-3.208l2.356-1.604 1.621 2.38-2.356 1.605zm11.655-6.373l2.498-1.686 1.613 2.39-2.498 1.686zm-49.44 32.099l2.355-1.604 1.621 2.381-2.356 1.604z" />
    <path class="prefix__prefix__prefix__q" d="M169.01 332.71l2.356-1.604 1.621 2.38-2.356 1.605z" />
    <path class="prefix__prefix__prefix__q" d="M171.357 331.097l2.355-1.604 1.621 2.38-2.355 1.604z" />
    <path class="prefix__prefix__prefix__q"
        d="M173.709 329.502l2.355-1.604 1.621 2.38-2.355 1.604zm2.36-1.602l2.356-1.603 1.62 2.38-2.355 1.604z" />
    <path class="prefix__prefix__prefix__q"
        d="M178.421 326.296l2.356-1.604 1.62 2.38-2.355 1.604zm4.699-3.209l2.355-1.604 1.621 2.38-2.356 1.605zm4.712-3.196l2.355-1.604 1.621 2.38-2.356 1.605z" />
    <path class="prefix__prefix__prefix__q"
        d="M190.184 318.286l2.355-1.604 1.621 2.38-2.356 1.605zm4.706-3.204l2.356-1.604 1.62 2.38-2.355 1.605zm9.546-6.508l2.356-1.604 1.62 2.381-2.355 1.604z" />
    <path class="prefix__prefix__prefix__q"
        d="M206.788 306.98l2.356-1.605 1.62 2.38-2.355 1.605zm2.36-1.601l2.356-1.604 1.62 2.38-2.355 1.604z" />
    <path class="prefix__prefix__prefix__q" d="M211.5 303.773l2.356-1.604 1.62 2.381-2.355 1.604z" />
    <path class="prefix__prefix__prefix__q" d="M213.847 302.17l2.355-1.604 1.621 2.38-2.356 1.605z" />
    <path class="prefix__prefix__prefix__q"
        d="M216.202 300.57l2.488-1.695 1.621 2.38-2.488 1.695zm-49.552 33.741l2.356-1.604 1.62 2.38-2.355 1.605zm21.915-18.401l2.356-1.603 1.62 2.38-2.355 1.604zm2.36-1.6l2.356-1.604 1.621 2.38-2.356 1.604z" />
    <path class="prefix__prefix__prefix__q"
        d="M193.272 312.696l2.355-1.604 1.621 2.381-2.355 1.604zm4.838-3.283l2.357-1.604 1.62 2.38-2.355 1.605zm-32.337 18.537l2.356-1.605 1.62 2.38-2.355 1.605z" />
    <path class="prefix__prefix__prefix__q" d="M168.12 326.336l2.355-1.604 1.621 2.38-2.356 1.604z" />
    <path class="prefix__prefix__prefix__q" d="M170.472 324.74l2.355-1.603 1.621 2.38-2.356 1.604z" />
    <path class="prefix__prefix__prefix__q"
        d="M172.824 323.145l2.355-1.604 1.621 2.381-2.356 1.604zm7.058-4.809l2.356-1.604 1.62 2.38-2.355 1.605zm2.36-1.611l2.356-1.604 1.621 2.381-2.356 1.604z" />
    <path class="prefix__prefix__prefix__q"
        d="M184.594 315.13l2.356-1.604 1.621 2.38-2.356 1.605zm4.713-3.206l2.356-1.604 1.62 2.38-2.355 1.605z" />
    <path class="prefix__prefix__prefix__q" d="M191.653 310.32l2.356-1.603 1.62 2.38-2.355 1.605z" />
    <path class="prefix__prefix__prefix__q" d="M194.004 308.728l2.497-1.7 1.62 2.381-2.496 1.7z" />
    <path class="prefix__prefix__prefix__q"
        d="M196.492 307.027l2.356-1.604 1.62 2.381-2.355 1.604zm2.355-1.609l2.356-1.604 1.62 2.381-2.355 1.604z" />
    <path class="prefix__prefix__prefix__q" d="M201.199 303.823l2.356-1.604 1.62 2.38-2.355 1.605z" />
    <path class="prefix__prefix__prefix__q"
        d="M203.55 302.218l2.357-1.604 1.62 2.38-2.355 1.605zm2.361-1.601l2.356-1.604 1.62 2.381-2.355 1.604zm4.699-3.208l2.355-1.604 1.621 2.38-2.356 1.604z" />
    <path class="prefix__prefix__prefix__q"
        d="M212.965 295.808l2.488-1.694 1.621 2.38-2.488 1.695zm-46.464 28.152l2.356-1.604 1.62 2.38-2.355 1.605z" />
    <path class="prefix__prefix__prefix__q"
        d="M168.853 322.365l2.356-1.604 1.62 2.38-2.355 1.605zm7.064-4.811l2.356-1.604 1.621 2.38-2.356 1.605z" />
    <path class="prefix__prefix__prefix__q"
        d="M178.264 315.95l2.355-1.603 1.621 2.38-2.355 1.604zm4.712-3.205l2.356-1.604 1.62 2.38-2.355 1.604zm7.049-4.81l2.355-1.604 1.621 2.381-2.356 1.604zm4.849-3.283l2.355-1.604 1.621 2.38-2.355 1.605zm2.354-1.619l2.356-1.604 1.62 2.38-2.355 1.604zm4.704-3.19l2.356-1.604 1.62 2.38-2.355 1.604zm2.361-1.611l2.355-1.604 1.621 2.38-2.356 1.604zm-41.765 24.962l2.356-1.604 1.62 2.38-2.355 1.604zm4.706-3.214l2.356-1.604 1.621 2.38-2.356 1.604z" />
    <path class="prefix__prefix__prefix__q"
        d="M169.586 318.384l2.356-1.604 1.621 2.38-2.356 1.605zm2.361-1.61l2.356-1.604 1.62 2.38-2.355 1.604z" />
    <path class="prefix__prefix__prefix__q"
        d="M174.299 315.178l2.356-1.604 1.62 2.381-2.355 1.604zm4.696-3.214l2.356-1.604 1.621 2.38-2.356 1.605z" />
    <path class="prefix__prefix__prefix__q" d="M181.347 310.37l2.356-1.605 1.621 2.38-2.356 1.605z" />
    <path class="prefix__prefix__prefix__q"
        d="M183.7 308.774l2.355-1.604 1.621 2.38-2.356 1.605zm2.36-1.611l2.355-1.604 1.621 2.38-2.355 1.605z" />
    <path class="prefix__prefix__prefix__q" d="M188.406 305.56l2.356-1.604 1.62 2.38-2.355 1.604z" />
    <path class="prefix__prefix__prefix__q"
        d="M190.767 303.967l2.497-1.7 1.62 2.381-2.496 1.7zm11.907-8.111l2.356-1.604 1.62 2.38-2.355 1.605z" />
    <path class="prefix__prefix__prefix__q"
        d="M205.026 294.261l2.356-1.604 1.62 2.38-2.355 1.605zm4.702-3.214l2.488-1.694 1.62 2.38-2.487 1.695zm-49.552 33.742l2.356-1.604 1.62 2.38-2.355 1.604z" />
    <path class="prefix__prefix__prefix__q"
        d="M160.91 320.808l2.355-1.604 1.621 2.38-2.356 1.605zm2.354-1.608l2.356-1.605 1.62 2.38-2.355 1.605z" />
    <path class="prefix__prefix__prefix__q"
        d="M165.616 317.604l2.356-1.604 1.62 2.38-2.355 1.605zm9.401-6.414l2.355-1.604 1.621 2.38-2.356 1.604zm2.36-1.601l2.356-1.604 1.62 2.38-2.355 1.604zm9.41-6.415l2.356-1.604 1.621 2.38-2.356 1.605zm7.204-4.892l2.356-1.604 1.62 2.38-2.355 1.604z" />
    <path class="prefix__prefix__prefix__q"
        d="M196.343 296.677l2.356-1.604 1.62 2.38-2.355 1.604zm4.712-3.197l2.356-1.603 1.621 2.38-2.356 1.604z" />
    <path class="prefix__prefix__prefix__q" d="M203.407 291.876l2.356-1.604 1.621 2.38-2.356 1.604z" />
    <path class="prefix__prefix__prefix__q" d="M205.754 290.272l2.356-1.604 1.62 2.38-2.355 1.605z" />
    <path class="prefix__prefix__prefix__q"
        d="M208.1 288.671l2.487-1.694 1.621 2.381-2.488 1.694zm-49.543 33.742l2.356-1.604 1.621 2.38-2.356 1.605zm5.43-7.195l2.356-1.604 1.621 2.381-2.356 1.604z" />
    <path class="prefix__prefix__prefix__q"
        d="M166.34 313.623l2.355-1.604 1.621 2.38-2.356 1.605zm2.36-1.61l2.355-1.604 1.621 2.38-2.355 1.604z" />
    <path class="prefix__prefix__prefix__q" d="M171.052 310.417l2.355-1.604 1.621 2.381-2.355 1.604z" />
    <path class="prefix__prefix__prefix__q"
        d="M173.398 308.814l2.356-1.604 1.62 2.38-2.355 1.605zm2.36-1.611l2.356-1.604 1.62 2.38-2.355 1.605zm7.056-4.795l2.356-1.604 1.62 2.38-2.355 1.604zm7.204-4.903l2.356-1.604 1.62 2.38-2.355 1.605zm2.355-1.609l2.355-1.604 1.621 2.38-2.356 1.605zm9.406-6.396l2.356-1.604 1.62 2.38-2.355 1.605zm-44.84 30.528l2.356-1.604 1.62 2.38-2.355 1.604zm.723-3.981l2.356-1.604 1.62 2.38-2.355 1.605zm2.355-1.609l2.356-1.604 1.62 2.38-2.355 1.605z" />
    <path class="prefix__prefix__prefix__q" d="M162.369 312.843l2.356-1.604 1.62 2.38-2.355 1.604z" />
    <path class="prefix__prefix__prefix__q"
        d="M164.72 311.238l2.357-1.604 1.62 2.38-2.355 1.604zm4.713-3.196l2.356-1.604 1.62 2.38-2.355 1.604zm4.707-3.214l2.356-1.604 1.62 2.38-2.355 1.604z" />
    <path class="prefix__prefix__prefix__q"
        d="M176.492 303.233l2.356-1.604 1.62 2.38-2.355 1.604zm4.704-3.201l2.356-1.604 1.62 2.38-2.355 1.605zm2.354-1.609l2.356-1.604 1.621 2.38-2.356 1.605zm2.362-1.603l2.496-1.699 1.62 2.38-2.496 1.7z" />
    <path class="prefix__prefix__prefix__q"
        d="M188.39 295.13l2.355-1.604 1.621 2.38-2.356 1.604zm4.706-3.214l2.356-1.604 1.62 2.38-2.355 1.604z" />
    <path class="prefix__prefix__prefix__q" d="M195.448 290.32l2.356-1.604 1.62 2.381-2.355 1.604z" />
    <path class="prefix__prefix__prefix__q"
        d="M197.8 288.725l2.356-1.604 1.62 2.38-2.355 1.605zm2.36-1.61l2.356-1.604 1.621 2.38-2.356 1.604zm4.702-3.205l2.488-1.694 1.621 2.38-2.488 1.695zm-48.818 29.762l2.355-1.604 1.621 2.38-2.355 1.604zm4.706-3.215l2.356-1.604 1.621 2.38-2.356 1.605zm4.713-3.196l2.355-1.604 1.621 2.381-2.356 1.604z" />
    <path class="prefix__prefix__prefix__q"
        d="M167.815 305.656l2.355-1.604 1.621 2.38-2.356 1.605zm7.058-4.809l2.356-1.604 1.62 2.38-2.355 1.605z" />
    <path class="prefix__prefix__prefix__q" d="M177.225 299.252l2.356-1.604 1.62 2.38-2.355 1.604z" />
    <path class="prefix__prefix__prefix__q"
        d="M179.577 297.647l2.356-1.604 1.62 2.38-2.355 1.604zm4.706-3.202l2.496-1.7 1.621 2.381-2.496 1.7z" />
    <path class="prefix__prefix__prefix__q" d="M186.77 292.754l2.357-1.604 1.62 2.38-2.355 1.605z" />
    <path class="prefix__prefix__prefix__q"
        d="M189.117 291.14l2.356-1.603 1.62 2.38-2.355 1.604zm4.713-3.205l2.355-1.604 1.621 2.38-2.356 1.605zm4.712-3.195l2.356-1.605 1.62 2.38-2.355 1.605z" />
    <path class="prefix__prefix__prefix__q" d="M200.888 283.126l2.356-1.604 1.62 2.38-2.355 1.604z" />
    <path class="prefix__prefix__prefix__q"
        d="M203.244 281.525l2.488-1.694 1.62 2.38-2.487 1.694zm-49.552 33.742l2.355-1.604 1.621 2.38-2.355 1.604z" />
    <path class="prefix__prefix__prefix__q"
        d="M154.425 311.296l2.356-1.604 1.62 2.38-2.355 1.605zm9.419-6.42l2.356-1.604 1.62 2.38-2.355 1.604z" />
    <path class="prefix__prefix__prefix__q"
        d="M166.196 303.28l2.356-1.603 1.62 2.38-2.355 1.604zm4.698-3.208l2.356-1.604 1.621 2.38-2.356 1.605zm2.361-1.601l2.355-1.604 1.621 2.381-2.355 1.604zm4.704-3.2l2.355-1.604 1.621 2.38-2.355 1.605zm2.354-1.609l2.356-1.604 1.62 2.38-2.355 1.605zm4.839-3.293l2.356-1.604 1.621 2.38-2.356 1.604z" />
    <path class="prefix__prefix__prefix__q"
        d="M187.499 288.765l2.355-1.604 1.621 2.38-2.355 1.605zm2.36-1.61l2.356-1.604 1.62 2.38-2.355 1.604z" />
    <path class="prefix__prefix__prefix__q" d="M192.211 285.56l2.356-1.605 1.62 2.381-2.355 1.604z" />
    <path class="prefix__prefix__prefix__q"
        d="M194.563 283.964l2.356-1.604 1.62 2.38-2.355 1.605zm2.36-1.61l2.356-1.604 1.62 2.38-2.355 1.604zm-44.85 30.537l2.356-1.604 1.62 2.38-2.355 1.605zm17.203-15.194l2.356-1.604 1.62 2.38-2.355 1.604zm4.702-3.207l2.356-1.603 1.62 2.38-2.355 1.604z" />
    <path class="prefix__prefix__prefix__q"
        d="M176.33 292.896l2.356-1.604 1.62 2.38-2.355 1.604zm4.708-3.206l2.496-1.7 1.62 2.38-2.495 1.7z" />
    <path class="prefix__prefix__prefix__q" d="M183.534 287.993l2.356-1.604 1.62 2.38-2.355 1.605z" />
    <path class="prefix__prefix__prefix__q"
        d="M185.88 286.38l2.356-1.604 1.62 2.38-2.355 1.604zm-34.692 20.155l2.356-1.604 1.62 2.38-2.355 1.604zm2.355-1.619l2.355-1.604 1.621 2.38-2.355 1.604z" />
    <path class="prefix__prefix__prefix__q" d="M155.895 303.32l2.355-1.603 1.621 2.38-2.355 1.604z" />
    <path class="prefix__prefix__prefix__q" d="M158.247 301.726l2.355-1.604 1.621 2.38-2.355 1.604z" />
    <path class="prefix__prefix__prefix__q"
        d="M160.599 300.12l2.355-1.604 1.621 2.381-2.355 1.604zm4.696-3.214l2.356-1.604 1.62 2.38-2.355 1.605z" />
    <path class="prefix__prefix__prefix__q"
        d="M167.647 295.311l2.356-1.604 1.62 2.38-2.355 1.605zm7.065-4.801l2.355-1.604 1.621 2.38-2.356 1.605zm9.55-6.506l2.355-1.604 1.621 2.38-2.356 1.605zm2.36-1.611l2.356-1.604 1.62 2.381-2.355 1.604zm4.704-3.19l2.356-1.604 1.62 2.38-2.355 1.605zm7.052-4.815l2.488-1.694 1.621 2.38-2.488 1.695zm-49.542 33.742l2.356-1.604 1.62 2.38-2.355 1.605zm10.134-10.385l2.356-1.604 1.62 2.38-2.355 1.604zm18.83-12.816l2.497-1.7 1.62 2.38-2.496 1.7z" />
    <path class="prefix__prefix__prefix__q"
        d="M180.297 283.232l2.355-1.604 1.621 2.38-2.355 1.605zm4.706-3.214l2.356-1.604 1.621 2.38-2.356 1.605z" />
    <path class="prefix__prefix__prefix__q"
        d="M187.355 278.423l2.356-1.604 1.621 2.38-2.356 1.604zm4.703-3.206l2.355-1.604 1.621 2.38-2.356 1.604z" />
    <path class="prefix__prefix__prefix__q"
        d="M194.404 273.613l2.356-1.604 1.62 2.381-2.355 1.604zm2.356-1.61l2.488-1.694 1.62 2.38-2.488 1.694zm-49.543 33.741l2.356-1.604 1.621 2.381-2.356 1.604zm3.07-5.584l2.356-1.604 1.62 2.381-2.355 1.604zm2.361-1.6l2.355-1.604 1.621 2.38-2.356 1.604zm4.704-3.2l2.355-1.605 1.621 2.381-2.356 1.604zm4.706-3.205l2.356-1.604 1.62 2.38-2.355 1.605z" />
    <path class="prefix__prefix__prefix__q"
        d="M164.41 290.55l2.356-1.604 1.62 2.38-2.355 1.605zm4.488-1.754l2.365-1.596 1.613 2.39-2.365 1.597zm2.576-3.047l2.356-1.604 1.621 2.38-2.356 1.605zm4.708-3.196l2.496-1.7 1.621 2.381-2.496 1.7zm9.545-6.516l2.356-1.604 1.62 2.38-2.355 1.605z" />
    <path class="prefix__prefix__prefix__q"
        d="M188.079 274.442l2.356-1.604 1.62 2.38-2.355 1.605zm2.36-1.611l2.356-1.604 1.62 2.38-2.355 1.605zm-44.85 30.538l2.356-1.604 1.62 2.38-2.355 1.605zm3.08-5.584l2.356-1.604 1.62 2.38-2.355 1.604zm2.36-1.601l2.356-1.604 1.62 2.38-2.355 1.605zm4.704-3.2l2.356-1.604 1.62 2.38-2.355 1.604zm4.707-3.214l2.355-1.604 1.621 2.38-2.356 1.604zm4.712-3.206l2.356-1.604 1.62 2.38-2.355 1.604z" />
    <path class="prefix__prefix__prefix__q"
        d="M167.28 286.408l2.366-1.596 1.613 2.39-2.366 1.597zm2.576-3.035l2.356-1.603 1.62 2.38-2.355 1.604z" />
    <path class="prefix__prefix__prefix__q" d="M172.202 281.76l2.356-1.604 1.62 2.38-2.355 1.605z" />
    <path class="prefix__prefix__prefix__q"
        d="M174.563 280.168l2.497-1.7 1.62 2.38-2.496 1.7zm4.833-3.31l2.356-1.604 1.62 2.38-2.355 1.604zm2.36-1.601l2.356-1.604 1.62 2.38-2.355 1.604z" />
    <path class="prefix__prefix__prefix__q"
        d="M184.108 273.662l2.356-1.604 1.62 2.38-2.355 1.604zm4.704-3.201l2.356-1.604 1.62 2.381-2.355 1.604zm2.355-1.609l2.356-1.604 1.62 2.381-2.355 1.604zm2.355-1.61l2.488-1.694 1.621 2.38-2.488 1.694zm-49.552 33.751l2.356-1.604 1.621 2.381-2.356 1.604zm10.144-10.395l2.356-1.604 1.621 2.38-2.356 1.605zm9.419-6.41l2.356-1.604 1.621 2.38-2.356 1.605z" />
    <path class="prefix__prefix__prefix__q"
        d="M165.885 282.593l2.356-1.604 1.621 2.38-2.356 1.605zm4.699-3.208l2.355-1.604 1.621 2.38-2.355 1.604z" />
    <path class="prefix__prefix__prefix__q"
        d="M172.935 277.792l2.496-1.7 1.621 2.38-2.496 1.7zm2.496-1.707l2.356-1.604 1.62 2.381-2.355 1.604z" />
    <path class="prefix__prefix__prefix__q"
        d="M177.777 274.482l2.356-1.604 1.621 2.38-2.356 1.605zm11.771-8.015l2.356-1.604 1.62 2.38-2.355 1.604zm-47.196 32.141l2.356-1.604 1.62 2.38-2.355 1.604z" />
    <path class="prefix__prefix__prefix__q" d="M143.085 294.627l2.356-1.604 1.62 2.38-2.355 1.605z" />
    <path class="prefix__prefix__prefix__q"
        d="M145.432 293.024l2.355-1.604 1.621 2.38-2.356 1.604zm2.36-1.601l2.356-1.604 1.62 2.38-2.355 1.605z" />
    <path class="prefix__prefix__prefix__q" d="M150.144 289.818l2.356-1.604 1.62 2.38-2.355 1.604z" />
    <path class="prefix__prefix__prefix__q"
        d="M152.496 288.223l2.356-1.604 1.62 2.38-2.355 1.604zm4.707-3.214l2.355-1.604 1.621 2.38-2.356 1.604z" />
    <path class="prefix__prefix__prefix__q"
        d="M159.555 283.413l2.355-1.604 1.621 2.381-2.356 1.604zm11.761-8.007l2.497-1.7 1.62 2.381-2.496 1.7zm4.843-3.299l2.356-1.604 1.62 2.38-2.355 1.604zm4.712-3.207l2.356-1.603 1.62 2.38-2.355 1.604z" />
    <path class="prefix__prefix__prefix__q"
        d="M183.223 267.295l2.356-1.603 1.62 2.38-2.355 1.604zm7.062-4.805l2.488-1.694 1.621 2.381-2.488 1.694zm-49.552 33.742l2.356-1.604 1.62 2.38-2.355 1.605z" />
    <g class="prefix__prefix__prefix__r">
        <path class="prefix__prefix__prefix__e"
            d="M136.05 306.28a1 1 0 01-1.41-.28l-7.86-11.54A1 1 0 01127 293l11.51-7.83a1 1 0 011.16 1.69L129 294.17l7.28 10.69a1 1 0 01-.23 1.42zm67.81-46.09a1 1 0 01-1.41-.28l-7.36-10.8-10.57 7.2a1 1 0 01-1.15-1.69l11.41-7.77a1 1 0 011.41.28l7.93 11.64a1 1 0 01-.26 1.42z" />
    </g>
    <g class="prefix__prefix__prefix__r">
        <path class="prefix__prefix__prefix__e"
            d="M243.35 318.2l-11.51 7.8a1 1 0 01-1.16-1.7l10.68-7.27-7.28-10.69a1 1 0 111.67-1.14l7.86 11.54a1 1 0 01-.26 1.46zM187 356.62l-11.42 7.77a1 1 0 01-1.41-.28l-7.93-11.64a1 1 0 111.67-1.14l7.36 10.8 10.57-7.2a1 1 0 011.16 1.69z" />
    </g><text transform="rotate(-37 431.565 -25.487)" font-size="27" font-family="AzkasiaDemo,Azkasia">MENU</text>
    <g class="prefix__prefix__prefix__p">
        <path class="prefix__prefix__prefix__e" d="M523.25 166.71h120.84v120.84H523.25z" />
    </g>
    <path class="prefix__prefix__prefix__q"
        d="M535.37 274.87h4.8v4.8h-4.8zm4.8 0h4.8v4.8h-4.8zm4.8 0h4.8v4.8h-4.8zm4.8 0h4.8v4.8h-4.8zm4.81 0h4.8v4.8h-4.8zm9.6 0h4.8v4.8h-4.8zm4.8 0h4.8v4.8h-4.8zm14.41 0h4.8v4.8h-4.8zm9.6 0h5.09v4.8h-5.09zm5.09 0h4.8v4.8h-4.8zm9.6 0h4.8v4.8h-4.8zm4.81 0h4.8v4.8h-4.8zm4.8 0h4.8v4.8h-4.8zm4.8 0h4.8v4.8h-4.8zm4.8 0h4.8v4.8h-4.8zm4.81 0h5.09v4.8h-5.09zm-101.13 0h4.8v4.8h-4.8zm24.01-4.8h4.8v4.8h-4.8zm14.4 0h4.8v4.8h-4.8zm9.61 0h4.8v4.8h-4.8zm4.8 0h4.8v4.8h-4.8zm4.8 0h4.8v4.8h-4.8zm4.8 0h5.09v4.8h-5.09zm14.69 0h4.8v4.8h-4.8zm24.02 0h5.09v4.8h-5.09zm-101.13 0h4.8v4.8h-4.8zm9.6-4.81h4.8v4.8h-4.8zm4.8 0h4.8v4.8h-4.8zm9.61 0h4.8v4.8h-4.8zm9.6 0h4.8v4.8h-4.8zm4.8 0h4.8v4.8h-4.8zm4.8 0h4.8v4.8h-4.8zm9.61 0h4.8v4.8h-4.8zm4.8 0h4.8v4.8h-4.8zm4.8 0h5.09v4.8h-5.09zm5.09 0h4.8v4.8h-4.8zm9.6 0h4.8v4.8h-4.8zm9.61 0h4.8v4.8h-4.8zm4.8 0h4.8v4.8h-4.8zm9.61 0h5.09v4.8h-5.09zm-101.13 0h4.8v4.8h-4.8zm9.6-4.8h4.8v4.8h-4.8zm4.8 0h4.8v4.8h-4.8zm9.61 0h4.8v4.8h-4.8zm9.6 0h4.8v4.8h-4.8zm9.6 0h4.8v4.8h-4.8zm9.61 0h4.8v4.8h-4.8zm24.29 0h4.8v4.8h-4.8zm9.61 0h4.8v4.8h-4.8zm4.8 0h4.8v4.8h-4.8zm9.61 0h5.09v4.8h-5.09zm-101.13 0h4.8v4.8h-4.8zm24.01-4.8h4.8v4.8h-4.8zm9.6 0h4.8v4.8h-4.8zm4.8 0h4.8v4.8h-4.8zm4.8 0h4.8v4.8h-4.8zm9.61 0h4.8v4.8h-4.8zm4.8 0h4.8v4.8h-4.8zm9.89 0h4.8v4.8h-4.8zm9.6 0h4.8v4.8h-4.8zm24.02 0h5.09v4.8h-5.09zm-101.13 0h4.8v4.8h-4.8zm4.8-4.8h4.8v4.8h-4.8zm4.8 0h4.8v4.8h-4.8zm4.8 0h4.8v4.8h-4.8zm4.8 0h4.8v4.8h-4.8z" />
    <path class="prefix__prefix__prefix__q"
        d="M554.58 250.86h4.8v4.8h-4.8zm9.6 0h4.8v4.8h-4.8zm9.6 0h4.8v4.8h-4.8zm4.81 0h4.8v4.8h-4.8zm9.6 0h4.8v4.8h-4.8zm19.49 0h4.8v4.8h-4.8zm4.81 0h4.8v4.8h-4.8zm4.8 0h4.8v4.8h-4.8zm4.8 0h4.8v4.8h-4.8zm4.8 0h4.8v4.8h-4.8zm4.81 0h5.09v4.8h-5.09zm-101.13 0h4.8v4.8h-4.8zm48.02-4.8h4.8v4.8h-4.8zm4.8 0h4.8v4.8h-4.8zm4.8 0h4.8v4.8h-4.8zm9.89 0h4.8v4.8h-4.8zm-62.71-4.81h4.8v4.8h-4.8zm4.8 0h4.8v4.8h-4.8zm4.8 0h4.8v4.8h-4.8zm4.8 0h4.8v4.8h-4.8zm14.41 0h4.8v4.8h-4.8zm4.8 0h4.8v4.8h-4.8zm4.8 0h4.8v4.8h-4.8zm9.61 0h4.8v4.8h-4.8zm4.8 0h4.8v4.8h-4.8zm4.8 0h5.09v4.8h-5.09zm5.09 0h4.8v4.8h-4.8zm4.8 0h4.8v4.8h-4.8zm4.8 0h4.8v4.8h-4.8zm4.81 0h4.8v4.8h-4.8zm4.8 0h4.8v4.8h-4.8zm9.6 0h4.8v4.8h-4.8zm4.81 0h5.09v4.8h-5.09zm-91.53-4.8h4.8v4.8h-4.8zm4.8 0h4.8v4.8h-4.8zm14.41 0h4.8v4.8h-4.8zm4.8 0h4.8v4.8h-4.8zm9.6 0h4.8v4.8h-4.8zm14.41 0h4.8v4.8h-4.8zm9.89 0h4.8v4.8h-4.8zm4.8 0h4.8v4.8h-4.8zm9.61 0h4.8v4.8h-4.8zm4.8 0h4.8v4.8h-4.8zm-81.92-4.8h4.8v4.8h-4.8z" />
    <path class="prefix__prefix__prefix__q"
        d="M544.97 231.65h4.8v4.8h-4.8zm4.8 0h4.8v4.8h-4.8zm4.81 0h4.8v4.8h-4.8zm4.8 0h4.8v4.8h-4.8zm9.6 0h4.8v4.8h-4.8zm4.8 0h4.8v4.8h-4.8zm4.81 0h4.8v4.8h-4.8zm4.8 0h4.8v4.8h-4.8zm4.8 0h4.8v4.8h-4.8zm4.8 0h5.09v4.8h-5.09zm24.3 0h4.8v4.8h-4.8zm4.8 0h4.8v4.8h-4.8zm9.61 0h5.09v4.8h-5.09zm-101.13 0h4.8v4.8h-4.8zm4.8-4.8h4.8v4.8h-4.8zm4.8 0h4.8v4.8h-4.8zm4.8 0h4.8v4.8h-4.8zm19.21 0h4.8v4.8h-4.8zm4.8 0h4.8v4.8h-4.8zm19.21 0h4.8v4.8h-4.8zm14.69 0h4.8v4.8h-4.8zm4.8 0h4.8v4.8h-4.8zm9.61 0h4.8v4.8h-4.8zm4.8 0h4.8v4.8h-4.8zm4.8 0h4.8v4.8h-4.8zm4.81 0h5.09v4.8h-5.09zm-101.13 0h4.8v4.8h-4.8zm14.4-4.81h4.8v4.8h-4.8zm4.8 0h4.8v4.8h-4.8zm4.81 0h4.8v4.8h-4.8zm4.8 0h4.8v4.8h-4.8zm4.8 0h4.8v4.8h-4.8zm4.8 0h4.8v4.8h-4.8zm14.41 0h4.8v4.8h-4.8zm14.69 0h4.8v4.8h-4.8zm4.8 0h4.8v4.8h-4.8zm19.21 0h4.8v4.8h-4.8zm-91.52 0h4.8v4.8h-4.8zm4.8-4.8h4.8v4.8h-4.8zm4.8 0h4.8v4.8h-4.8z" />
    <path class="prefix__prefix__prefix__q"
        d="M544.97 217.24h4.8v4.8h-4.8zm4.8 0h4.8v4.8h-4.8zm9.61 0h4.8v4.8h-4.8zm9.6 0h4.8v4.8h-4.8zm4.8 0h4.8v4.8h-4.8zm9.61 0h4.8v4.8h-4.8zm4.8 0h4.8v4.8h-4.8zm4.8 0h5.09v4.8h-5.09zm5.09 0h4.8v4.8h-4.8zm9.6 0h4.8v4.8h-4.8zm4.81 0h4.8v4.8h-4.8zm4.8 0h4.8v4.8h-4.8zm4.8 0h4.8v4.8h-4.8zm9.61 0h5.09v4.8h-5.09zm-96.33-4.8h4.8v4.8h-4.8zm9.6 0h4.8v4.8h-4.8zm9.61 0h4.8v4.8h-4.8zm4.8 0h4.8v4.8h-4.8zm14.4 0h4.8v4.8h-4.8zm4.81 0h4.8v4.8h-4.8zm4.8 0h4.8v4.8h-4.8zm9.6 0h5.09v4.8h-5.09zm5.09 0h4.8v4.8h-4.8zm4.8 0h4.8v4.8h-4.8zm9.61 0h4.8v4.8h-4.8zm9.6 0h4.8v4.8h-4.8zm4.8 0h4.8v4.8h-4.8zm4.81 0h5.09v4.8h-5.09zm-101.13 0h4.8v4.8h-4.8zm4.8-4.8h4.8v4.8h-4.8zm19.21 0h4.8v4.8h-4.8zm4.8 0h4.8v4.8h-4.8zm9.6 0h4.8v4.8h-4.8zm4.8 0h4.8v4.8h-4.8zm9.61 0h4.8v4.8h-4.8zm4.8 0h4.8v4.8h-4.8zm9.89 0h4.8v4.8h-4.8zm4.8 0h4.8v4.8h-4.8zm4.8 0h4.8v4.8h-4.8zm4.81 0h4.8v4.8h-4.8zm4.8 0h4.8v4.8h-4.8zm4.8 0h4.8v4.8h-4.8zm-91.52 0h4.8v4.8h-4.8z" />
    <path class="prefix__prefix__prefix__q"
        d="M568.98 202.84h4.8v4.8h-4.8zm9.61 0h4.8v4.8h-4.8zm4.8 0h4.8v4.8h-4.8zm9.6 0h5.09v4.8h-5.09zm5.09 0h4.8v4.8h-4.8zm4.8 0h4.8v4.8h-4.8zm-67.51-4.81h4.8v4.8h-4.8zm4.8 0h4.8v4.8h-4.8zm4.8 0h4.8v4.8h-4.8zm4.8 0h4.8v4.8h-4.8zm4.81 0h4.8v4.8h-4.8zm9.6 0h4.8v4.8h-4.8zm4.8 0h4.8v4.8h-4.8zm14.41 0h4.8v4.8h-4.8zm19.49 0h4.8v4.8h-4.8zm4.8 0h4.8v4.8h-4.8zm9.61 0h4.8v4.8h-4.8zm14.41 0h5.09v4.8h-5.09zm-101.13 0h4.8v4.8h-4.8zm24.01-4.8h4.8v4.8h-4.8zm38.41 0h5.09v4.8h-5.09zm5.09 0h4.8v4.8h-4.8zm9.6 0h4.8v4.8h-4.8zm4.81 0h4.8v4.8h-4.8zm9.6 0h4.8v4.8h-4.8zm4.8 0h4.8v4.8h-4.8zm4.81 0h5.09v4.8h-5.09zm-101.13 0h4.8v4.8h-4.8zm9.6-4.8h4.8v4.8h-4.8zm4.8 0h4.8v4.8h-4.8z" />
    <path class="prefix__prefix__prefix__q"
        d="M554.58 188.43h4.8v4.8h-4.8zm9.6 0h4.8v4.8h-4.8zm4.8 0h4.8v4.8h-4.8zm9.61 0h4.8v4.8h-4.8zm4.8 0h4.8v4.8h-4.8zm9.6 0h5.09v4.8h-5.09zm19.5 0h4.8v4.8h-4.8zm4.8 0h4.8v4.8h-4.8zm4.8 0h4.8v4.8h-4.8zm-91.52 0h4.8v4.8h-4.8zm9.6-4.8h4.8v4.8h-4.8zm4.8 0h4.8v4.8h-4.8zm9.61 0h4.8v4.8h-4.8zm9.6 0h4.8v4.8h-4.8zm9.6 0h4.8v4.8h-4.8zm4.81 0h4.8v4.8h-4.8zm4.8 0h4.8v4.8h-4.8zm4.8 0h4.8v4.8h-4.8zm4.8 0h5.09v4.8h-5.09zm9.89 0h4.8v4.8h-4.8zm4.8 0h4.8v4.8h-4.8zm4.81 0h4.8v4.8h-4.8zm9.6 0h4.8v4.8h-4.8zm4.8 0h4.8v4.8h-4.8zm4.81 0h5.09v4.8h-5.09zm-101.13 0h4.8v4.8h-4.8z" />
    <path class="prefix__prefix__prefix__q"
        d="M554.58 178.83h4.8v4.8h-4.8zm19.2 0h4.8v4.8h-4.8zm4.81 0h4.8v4.8h-4.8zm9.6 0h4.8v4.8h-4.8zm4.8 0h5.09v4.8h-5.09zm5.09 0h4.8v4.8h-4.8zm4.8 0h4.8v4.8h-4.8zm24.01 0h4.8v4.8h-4.8zm-96.32 0h4.8v4.8h-4.8zm4.8-4.81h4.8v4.8h-4.8zm4.8 0h4.8v4.8h-4.8zm4.8 0h4.8v4.8h-4.8zm4.8 0h4.8v4.8h-4.8zm4.81 0h4.8v4.8h-4.8zm9.6 0h4.8v4.8h-4.8zm4.8 0h4.8v4.8h-4.8zm24.01 0h5.09v4.8h-5.09zm9.89 0h4.8v4.8h-4.8zm9.61 0h4.8v4.8h-4.8zm4.8 0h4.8v4.8h-4.8zm14.41 0h5.09v4.8h-5.09zm-101.13 0h4.8v4.8h-4.8z" />
    <g class="prefix__prefix__prefix__r">
        <path class="prefix__prefix__prefix__e"
            d="M514.52 183.48a1.7 1.7 0 01-1.71-1.71v-23.29a1.71 1.71 0 011.71-1.71H538a1.71 1.71 0 110 3.42h-21.78v21.58a1.7 1.7 0 01-1.7 1.71zm138.31.1a1.71 1.71 0 01-1.71-1.7v-21.8h-21.58a1.71 1.71 0 110-3.41h23.29a1.71 1.71 0 011.71 1.71v23.5a1.71 1.71 0 01-1.71 1.7z" />
    </g>
    <g class="prefix__prefix__prefix__r">
        <path class="prefix__prefix__prefix__e"
            d="M652.83 300.63h-23.5a1.71 1.71 0 010-3.42h21.79v-21.58a1.71 1.71 0 113.42 0v23.29a1.72 1.72 0 01-1.71 1.71zm-115.02.1h-23.29a1.7 1.7 0 01-1.71-1.71v-23.5a1.71 1.71 0 013.41 0v21.8h21.59a1.71 1.71 0 010 3.41z" />
    </g>
</svg>