<svg xmlns="http://www.w3.org/2000/svg" xmlns:xlink="http://www.w3.org/1999/xlink" viewBox="0 0 792.29 631.57">
    <defs>
        <linearGradient id="prefix__a" x1="783.68" y1="-101.65" x2="783.68" y2="140.27"
            gradientTransform="matrix(1 0 0 -1 -163.09 499.14)" gradientUnits="userSpaceOnUse">
            <stop offset="0" stop-color="gray" stop-opacity=".25" />
            <stop offset=".54" stop-color="gray" stop-opacity=".12" />
            <stop offset="1" stop-color="gray" stop-opacity=".1" />
        </linearGradient>
        <linearGradient id="prefix__b" x1="634.55" y1="312.94" x2="634.55" y2="437.85" xlink:href="#prefix__a" />
        <linearGradient id="prefix__c" x1="746.77" y1="12.4" x2="746.77" y2="499.13"
            gradientTransform="matrix(1 0 0 -1 -163.09 499.13)" xlink:href="#prefix__a" />
        <linearGradient id="prefix__d" x1="897.64" y1="57.79" x2="897.64" y2="289.67" xlink:href="#prefix__a" />
        <linearGradient id="prefix__e" x1="824.06" y1="-132.44" x2="824.06" y2="-74.73"
            gradientTransform="matrix(1 0 0 -1 -163.09 499.13)" xlink:href="#prefix__a" />
        <linearGradient id="prefix__f" x1="614.09" y1="140.36" x2="614.09" y2="243.57" xlink:href="#prefix__a" />
        <linearGradient id="prefix__g" x1="610.07" y1="54.81" x2="610.07" y2="146.41" xlink:href="#prefix__a" />
        <linearGradient id="prefix__h" x1="583.68" y1="259.77" x2="583.68" y2="410.21"
            gradientTransform="matrix(1 0 0 -1 0 578.36)" xlink:href="#prefix__a" />
        <linearGradient id="prefix__i" x1="621.79" y1="225.28" x2="621.79" y2="339.89" xlink:href="#prefix__a" />
        <style>
            .prefix__b {
                fill: #fda57d
            }

            .prefix__e {
                fill: #fff
            }

            .prefix__f {
                fill: #6c63ff
            }

            .prefix__g {
                fill: #dbdbdb
            }

            .prefix__p {
                opacity: .9
            }

            .prefix__q {
                fill: #25468f
            }

            .prefix__r {
                opacity: .8
            }

            .prefix__v {
                fill: #3f3d56
            }
        </style>
    </defs>
    <path
        d="M792.29 426.79a67.92 67.92 0 00-134.65-12.66l-208.75-5.66 2.29 35.87s-29.76 68.68 126.67 87v69.45h180.86V485.36a67.87 67.87 0 0033.58-58.57z"
        fill="url(#prefix__a)" />
    <path class="prefix__b" d="M458.35 445.79s-28.5 65.77 121.32 83.32v66.51h173.2V419.5l-296.72-8z" />
    <path
        d="M544.91 171.34a31.93 31.93 0 01-43.91 10l-93-61.28a31.94 31.94 0 01-10-43.91 31.93 31.93 0 0143.91-10l93 61.28a31.92 31.92 0 0110 43.91z"
        fill="url(#prefix__b)" />
    <path class="prefix__b"
        d="M539.74 168a29.69 29.69 0 01-40.82 9.28l-86.45-57a29.7 29.7 0 01-9.28-40.82A29.69 29.69 0 01444 70.17l86.45 57a29.69 29.69 0 019.29 40.83z" />
    <circle class="prefix__b" cx="719.98" cy="429" r="65.04" />
    <rect x="448.85" width="269.65" height="486.73" rx="10.24" fill="url(#prefix__c)" />
    <rect class="prefix__e" x="452.5" y="6.58" width="262.37" height="473.58" rx="13.64" />
    <path class="prefix__f"
        d="M649.6 18.46a21.27 21.27 0 01-21 18.09H538a21.28 21.28 0 01-21-18.09h-48a10 10 0 00-10 10v429.9a10 10 0 0010 10h229.3a10 10 0 0010-10V28.42a10 10 0 00-10-10z" />
    <path class="prefix__g"
        d="M556.65 24.12h54.81a1.83 1.83 0 011.83 1.82 1.83 1.83 0 01-1.83 1.83h-54.81a1.83 1.83 0 01-1.83-1.83 1.83 1.83 0 011.83-1.82z" />
    <circle class="prefix__g" cx="625.71" cy="25.58" r="2.19" />
    <path
        d="M762 440.47c-18.87 4.36-31.83-7.94-36.2-26.82l-43.35-161a35.33 35.33 0 0126.38-42.25 35.31 35.31 0 0142.23 26.43L786.48 402c4.37 18.79-5.58 34.11-24.48 38.47z"
        fill="url(#prefix__d)" />
    <path class="prefix__b"
        d="M710.71 218.51a29.6 29.6 0 0135.5 22.18l39.88 172.62a29.59 29.59 0 01-22.17 35.5 29.6 29.6 0 01-35.51-22.17L688.53 254a29.6 29.6 0 0122.18-35.49z" />
    <path fill="url(#prefix__e)" d="M537.19 573.86h247.56v57.71H537.19z" />
    <path fill="#4d8af0" d="M543.88 580.55h234.18v45.16H543.88z" />
    <path
        d="M508.8 344.11a31.55 31.55 0 01-43.38 9.89l-62.36-40.35a31.56 31.56 0 01-9.86-43.38 31.55 31.55 0 0143.38-9.86l62.36 40.35a31.55 31.55 0 019.86 43.35z"
        fill="url(#prefix__f)" />
    <path
        d="M493.16 429.53a31.83 31.83 0 01-43.77 10l-38.63-28.23a31.84 31.84 0 01-9.95-43.77 31.83 31.83 0 0143.77-9.95l38.63 28.21a31.82 31.82 0 019.95 43.74z"
        fill="url(#prefix__g)" />
    <circle cx="583.68" cy="243.37" r="75.22" fill="url(#prefix__h)" opacity=".5" />
    <path class="prefix__b"
        d="M490 427.43a29.69 29.69 0 01-40.82 9.28l-36-26.27a29.7 29.7 0 01-9.28-40.82 29.69 29.69 0 0140.82-9.28l36 26.27a29.69 29.69 0 019.28 40.82zM505.39 341.93a29.69 29.69 0 01-40.82 9.28l-58.68-38a29.7 29.7 0 01-9.28-40.82 29.69 29.69 0 0140.87-9.25l58.68 38a29.68 29.68 0 019.23 40.79z" />
    <path
        d="M524.94 259.12a31.68 31.68 0 01-43.58 9.88l-79-51.46a31.7 31.7 0 01-9.91-43.54 31.69 31.69 0 0143.55-9.92l79 51.46a31.69 31.69 0 019.94 43.58z"
        fill="url(#prefix__i)" />
    <path class="prefix__b"
        d="M515.74 255.42a29.69 29.69 0 01-40.82 9.28l-74-48.2a29.7 29.7 0 01-9.28-40.82 29.7 29.7 0 0140.84-9.28l74 48.2a29.69 29.69 0 019.26 40.82z" />
    <g class="prefix__p">
        <path class="prefix__e" d="M523.25 166.71h120.84v120.84H523.25z" />
    </g>
    <path class="prefix__q"
        d="M535.37 274.87h4.8v4.8h-4.8zM540.17 274.87h4.8v4.8h-4.8zM544.97 274.87h4.8v4.8h-4.8zM549.77 274.87h4.8v4.8h-4.8zM554.58 274.87h4.8v4.8h-4.8zM564.18 274.87h4.8v4.8h-4.8zM568.98 274.87h4.8v4.8h-4.8zM583.39 274.87h4.8v4.8h-4.8zM592.99 274.87h5.09v4.8h-5.09zM598.08 274.87h4.8v4.8h-4.8zM607.68 274.87h4.8v4.8h-4.8zM612.49 274.87h4.8v4.8h-4.8zM617.29 274.87h4.8v4.8h-4.8zM622.09 274.87h4.8v4.8h-4.8zM626.89 274.87h4.8v4.8h-4.8zM631.7 274.87h5.09v4.8h-5.09zM530.57 274.87h4.8v4.8h-4.8zM554.58 270.07h4.8v4.8h-4.8zM568.98 270.07h4.8v4.8h-4.8zM578.59 270.07h4.8v4.8h-4.8zM583.39 270.07h4.8v4.8h-4.8zM588.19 270.07h4.8v4.8h-4.8zM592.99 270.07h5.09v4.8h-5.09zM607.68 270.07h4.8v4.8h-4.8zM631.7 270.07h5.09v4.8h-5.09zM530.57 270.07h4.8v4.8h-4.8zM540.17 265.26h4.8v4.8h-4.8zM544.97 265.26h4.8v4.8h-4.8zM554.58 265.26h4.8v4.8h-4.8zM564.18 265.26h4.8v4.8h-4.8zM568.98 265.26h4.8v4.8h-4.8zM573.78 265.26h4.8v4.8h-4.8zM583.39 265.26h4.8v4.8h-4.8zM588.19 265.26h4.8v4.8h-4.8zM592.99 265.26h5.09v4.8h-5.09zM598.08 265.26h4.8v4.8h-4.8zM607.68 265.26h4.8v4.8h-4.8zM617.29 265.26h4.8v4.8h-4.8zM622.09 265.26h4.8v4.8h-4.8zM631.7 265.26h5.09v4.8h-5.09zM530.57 265.26h4.8v4.8h-4.8zM540.17 260.46h4.8v4.8h-4.8zM544.97 260.46h4.8v4.8h-4.8zM554.58 260.46h4.8v4.8h-4.8zM564.18 260.46h4.8v4.8h-4.8zM573.78 260.46h4.8v4.8h-4.8zM583.39 260.46h4.8v4.8h-4.8zM607.68 260.46h4.8v4.8h-4.8zM617.29 260.46h4.8v4.8h-4.8zM622.09 260.46h4.8v4.8h-4.8zM631.7 260.46h5.09v4.8h-5.09zM530.57 260.46h4.8v4.8h-4.8zM554.58 255.66h4.8v4.8h-4.8zM564.18 255.66h4.8v4.8h-4.8zM568.98 255.66h4.8v4.8h-4.8zM573.78 255.66h4.8v4.8h-4.8zM583.39 255.66h4.8v4.8h-4.8zM588.19 255.66h4.8v4.8h-4.8zM598.08 255.66h4.8v4.8h-4.8zM607.68 255.66h4.8v4.8h-4.8zM631.7 255.66h5.09v4.8h-5.09zM530.57 255.66h4.8v4.8h-4.8zM535.37 250.86h4.8v4.8h-4.8zM540.17 250.86h4.8v4.8h-4.8zM544.97 250.86h4.8v4.8h-4.8zM549.77 250.86h4.8v4.8h-4.8z" />
    <path class="prefix__q"
        d="M554.58 250.86h4.8v4.8h-4.8zM564.18 250.86h4.8v4.8h-4.8zM573.78 250.86h4.8v4.8h-4.8zM578.59 250.86h4.8v4.8h-4.8zM588.19 250.86h4.8v4.8h-4.8zM607.68 250.86h4.8v4.8h-4.8zM612.49 250.86h4.8v4.8h-4.8zM617.29 250.86h4.8v4.8h-4.8zM622.09 250.86h4.8v4.8h-4.8zM626.89 250.86h4.8v4.8h-4.8zM631.7 250.86h5.09v4.8h-5.09zM530.57 250.86h4.8v4.8h-4.8zM578.59 246.06h4.8v4.8h-4.8zM583.39 246.06h4.8v4.8h-4.8zM588.19 246.06h4.8v4.8h-4.8zM598.08 246.06h4.8v4.8h-4.8zM535.37 241.25h4.8v4.8h-4.8zM540.17 241.25h4.8v4.8h-4.8zM544.97 241.25h4.8v4.8h-4.8zM549.77 241.25h4.8v4.8h-4.8zM564.18 241.25h4.8v4.8h-4.8zM568.98 241.25h4.8v4.8h-4.8zM573.78 241.25h4.8v4.8h-4.8zM583.39 241.25h4.8v4.8h-4.8zM588.19 241.25h4.8v4.8h-4.8zM592.99 241.25h5.09v4.8h-5.09zM598.08 241.25h4.8v4.8h-4.8zM602.88 241.25h4.8v4.8h-4.8zM607.68 241.25h4.8v4.8h-4.8zM612.49 241.25h4.8v4.8h-4.8zM617.29 241.25h4.8v4.8h-4.8zM626.89 241.25h4.8v4.8h-4.8zM631.7 241.25h5.09v4.8h-5.09zM540.17 236.45h4.8v4.8h-4.8zM544.97 236.45h4.8v4.8h-4.8zM559.38 236.45h4.8v4.8h-4.8zM564.18 236.45h4.8v4.8h-4.8zM573.78 236.45h4.8v4.8h-4.8zM588.19 236.45h4.8v4.8h-4.8zM598.08 236.45h4.8v4.8h-4.8zM602.88 236.45h4.8v4.8h-4.8zM612.49 236.45h4.8v4.8h-4.8zM617.29 236.45h4.8v4.8h-4.8zM535.37 231.65h4.8v4.8h-4.8z" />
    <path class="prefix__q"
        d="M544.97 231.65h4.8v4.8h-4.8zM549.77 231.65h4.8v4.8h-4.8zM554.58 231.65h4.8v4.8h-4.8zM559.38 231.65h4.8v4.8h-4.8zM568.98 231.65h4.8v4.8h-4.8zM573.78 231.65h4.8v4.8h-4.8zM578.59 231.65h4.8v4.8h-4.8zM583.39 231.65h4.8v4.8h-4.8zM588.19 231.65h4.8v4.8h-4.8zM592.99 231.65h5.09v4.8h-5.09zM617.29 231.65h4.8v4.8h-4.8zM622.09 231.65h4.8v4.8h-4.8zM631.7 231.65h5.09v4.8h-5.09zM530.57 231.65h4.8v4.8h-4.8zM535.37 226.85h4.8v4.8h-4.8zM540.17 226.85h4.8v4.8h-4.8zM544.97 226.85h4.8v4.8h-4.8zM564.18 226.85h4.8v4.8h-4.8zM568.98 226.85h4.8v4.8h-4.8zM588.19 226.85h4.8v4.8h-4.8zM602.88 226.85h4.8v4.8h-4.8zM607.68 226.85h4.8v4.8h-4.8zM617.29 226.85h4.8v4.8h-4.8zM622.09 226.85h4.8v4.8h-4.8zM626.89 226.85h4.8v4.8h-4.8zM631.7 226.85h5.09v4.8h-5.09zM530.57 226.85h4.8v4.8h-4.8zM544.97 222.04h4.8v4.8h-4.8zM549.77 222.04h4.8v4.8h-4.8zM554.58 222.04h4.8v4.8h-4.8zM559.38 222.04h4.8v4.8h-4.8zM564.18 222.04h4.8v4.8h-4.8zM568.98 222.04h4.8v4.8h-4.8zM583.39 222.04h4.8v4.8h-4.8zM598.08 222.04h4.8v4.8h-4.8zM602.88 222.04h4.8v4.8h-4.8zM622.09 222.04h4.8v4.8h-4.8zM530.57 222.04h4.8v4.8h-4.8zM535.37 217.24h4.8v4.8h-4.8zM540.17 217.24h4.8v4.8h-4.8z" />
    <path class="prefix__q"
        d="M544.97 217.24h4.8v4.8h-4.8zM549.77 217.24h4.8v4.8h-4.8zM559.38 217.24h4.8v4.8h-4.8zM568.98 217.24h4.8v4.8h-4.8zM573.78 217.24h4.8v4.8h-4.8zM583.39 217.24h4.8v4.8h-4.8zM588.19 217.24h4.8v4.8h-4.8zM592.99 217.24h5.09v4.8h-5.09zM598.08 217.24h4.8v4.8h-4.8zM607.68 217.24h4.8v4.8h-4.8zM612.49 217.24h4.8v4.8h-4.8zM617.29 217.24h4.8v4.8h-4.8zM622.09 217.24h4.8v4.8h-4.8zM631.7 217.24h5.09v4.8h-5.09zM535.37 212.44h4.8v4.8h-4.8zM544.97 212.44h4.8v4.8h-4.8zM554.58 212.44h4.8v4.8h-4.8zM559.38 212.44h4.8v4.8h-4.8zM573.78 212.44h4.8v4.8h-4.8zM578.59 212.44h4.8v4.8h-4.8zM583.39 212.44h4.8v4.8h-4.8zM592.99 212.44h5.09v4.8h-5.09zM598.08 212.44h4.8v4.8h-4.8zM602.88 212.44h4.8v4.8h-4.8zM612.49 212.44h4.8v4.8h-4.8zM622.09 212.44h4.8v4.8h-4.8zM626.89 212.44h4.8v4.8h-4.8zM631.7 212.44h5.09v4.8h-5.09zM530.57 212.44h4.8v4.8h-4.8zM535.37 207.64h4.8v4.8h-4.8zM554.58 207.64h4.8v4.8h-4.8zM559.38 207.64h4.8v4.8h-4.8zM568.98 207.64h4.8v4.8h-4.8zM573.78 207.64h4.8v4.8h-4.8zM583.39 207.64h4.8v4.8h-4.8zM588.19 207.64h4.8v4.8h-4.8zM598.08 207.64h4.8v4.8h-4.8zM602.88 207.64h4.8v4.8h-4.8zM607.68 207.64h4.8v4.8h-4.8zM612.49 207.64h4.8v4.8h-4.8zM617.29 207.64h4.8v4.8h-4.8zM622.09 207.64h4.8v4.8h-4.8zM530.57 207.64h4.8v4.8h-4.8z" />
    <path class="prefix__q"
        d="M568.98 202.84h4.8v4.8h-4.8zM578.59 202.84h4.8v4.8h-4.8zM583.39 202.84h4.8v4.8h-4.8zM592.99 202.84h5.09v4.8h-5.09zM598.08 202.84h4.8v4.8h-4.8zM602.88 202.84h4.8v4.8h-4.8zM535.37 198.03h4.8v4.8h-4.8zM540.17 198.03h4.8v4.8h-4.8zM544.97 198.03h4.8v4.8h-4.8zM549.77 198.03h4.8v4.8h-4.8zM554.58 198.03h4.8v4.8h-4.8zM564.18 198.03h4.8v4.8h-4.8zM568.98 198.03h4.8v4.8h-4.8zM583.39 198.03h4.8v4.8h-4.8zM602.88 198.03h4.8v4.8h-4.8zM607.68 198.03h4.8v4.8h-4.8zM617.29 198.03h4.8v4.8h-4.8zM631.7 198.03h5.09v4.8h-5.09zM530.57 198.03h4.8v4.8h-4.8zM554.58 193.23h4.8v4.8h-4.8zM592.99 193.23h5.09v4.8h-5.09zM598.08 193.23h4.8v4.8h-4.8zM607.68 193.23h4.8v4.8h-4.8zM612.49 193.23h4.8v4.8h-4.8zM622.09 193.23h4.8v4.8h-4.8zM626.89 193.23h4.8v4.8h-4.8zM631.7 193.23h5.09v4.8h-5.09zM530.57 193.23h4.8v4.8h-4.8zM540.17 188.43h4.8v4.8h-4.8zM544.97 188.43h4.8v4.8h-4.8z" />
    <path class="prefix__q"
        d="M554.58 188.43h4.8v4.8h-4.8zM564.18 188.43h4.8v4.8h-4.8zM568.98 188.43h4.8v4.8h-4.8zM578.59 188.43h4.8v4.8h-4.8zM583.39 188.43h4.8v4.8h-4.8zM592.99 188.43h5.09v4.8h-5.09zM612.49 188.43h4.8v4.8h-4.8zM617.29 188.43h4.8v4.8h-4.8zM622.09 188.43h4.8v4.8h-4.8zM530.57 188.43h4.8v4.8h-4.8zM540.17 183.63h4.8v4.8h-4.8zM544.97 183.63h4.8v4.8h-4.8zM554.58 183.63h4.8v4.8h-4.8zM564.18 183.63h4.8v4.8h-4.8zM573.78 183.63h4.8v4.8h-4.8zM578.59 183.63h4.8v4.8h-4.8zM583.39 183.63h4.8v4.8h-4.8zM588.19 183.63h4.8v4.8h-4.8zM592.99 183.63h5.09v4.8h-5.09zM602.88 183.63h4.8v4.8h-4.8zM607.68 183.63h4.8v4.8h-4.8zM612.49 183.63h4.8v4.8h-4.8zM622.09 183.63h4.8v4.8h-4.8zM626.89 183.63h4.8v4.8h-4.8zM631.7 183.63h5.09v4.8h-5.09zM530.57 183.63h4.8v4.8h-4.8z" />
    <path class="prefix__q"
        d="M554.58 178.83h4.8v4.8h-4.8zM573.78 178.83h4.8v4.8h-4.8zM578.59 178.83h4.8v4.8h-4.8zM588.19 178.83h4.8v4.8h-4.8zM592.99 178.83h5.09v4.8h-5.09zM598.08 178.83h4.8v4.8h-4.8zM602.88 178.83h4.8v4.8h-4.8zM626.89 178.83h4.8v4.8h-4.8zM530.57 178.83h4.8v4.8h-4.8zM535.37 174.02h4.8v4.8h-4.8zM540.17 174.02h4.8v4.8h-4.8zM544.97 174.02h4.8v4.8h-4.8zM549.77 174.02h4.8v4.8h-4.8zM554.58 174.02h4.8v4.8h-4.8zM564.18 174.02h4.8v4.8h-4.8zM568.98 174.02h4.8v4.8h-4.8zM592.99 174.02h5.09v4.8h-5.09zM602.88 174.02h4.8v4.8h-4.8zM612.49 174.02h4.8v4.8h-4.8zM617.29 174.02h4.8v4.8h-4.8zM631.7 174.02h5.09v4.8h-5.09zM530.57 174.02h4.8v4.8h-4.8z" />
    <g class="prefix__r">
        <path class="prefix__e"
            d="M514.52 183.48a1.7 1.7 0 01-1.71-1.71v-23.29a1.71 1.71 0 011.71-1.71H538a1.71 1.71 0 110 3.42h-21.78v21.58a1.7 1.7 0 01-1.7 1.71zM652.83 183.58a1.71 1.71 0 01-1.71-1.7v-21.8h-21.58a1.71 1.71 0 110-3.41h23.29a1.71 1.71 0 011.71 1.71v23.5a1.71 1.71 0 01-1.71 1.7z" />
    </g>
    <g class="prefix__r">
        <path class="prefix__e"
            d="M652.83 300.63h-23.5a1.71 1.71 0 010-3.42h21.79v-21.58a1.71 1.71 0 113.42 0v23.29a1.72 1.72 0 01-1.71 1.71zM537.81 300.73h-23.29a1.7 1.7 0 01-1.71-1.71v-23.5a1.71 1.71 0 013.41 0v21.8h21.59a1.71 1.71 0 010 3.41z" />
    </g>
    <circle cx="171.62" cy="295.42" r="158.77" style="isolation:isolate" opacity=".3" fill="#6c63ff" />
    <path class="prefix__f" d="M106.42 93.44L.7 221.7l156.46 184.65 104.3-122.63L106.42 93.44z" />
    <path style="isolation:isolate" opacity=".1" d="M106.42 93.44L.7 221.7l156.46 184.65 104.3-122.63L106.42 93.44z" />
    <path d="M4.93 223.11a53.27 53.27 0 018.62-11.51l97.1-98.43s33.82-5.64 40.87 11.28l-124 101.48z" fill="#f2f2f2" />
    <path class="prefix__f" d="M0 221l143.77 219.88s14.09 9.87 28.19 4.23l147.29-99.37-156.45-236.8-141 109.94z" />
    <path class="prefix__v"
        d="M55.009 208.095l90.214-64.826 1.33 1.852-90.214 64.825zM51.895 233.616l1.902-1.258 118.394 179.01-1.901 1.258zM184.664 416.74l95.832-70.498 1.351 1.837-95.832 70.498zM160.453 147.645l1.871-1.303 122.633 176.183-1.872 1.302zM12.9 214.152l111.546-102.356.953 1.039L13.854 215.19zM17.18 215.555l116.563-102.91.933 1.058L18.114 216.612zM20.019 215.57l121.01-100.857.903 1.083-121.01 100.857z" />
    <g class="prefix__p">
        <path class="prefix__e" d="M134.679 295.045l59.208-40.314 40.775 59.887-59.208 40.313z" />
    </g>
    <path class="prefix__q" d="M177.113 344.608l2.356-1.604 1.62 2.38-2.355 1.604z" />
    <path class="prefix__q" d="M179.46 343.004l2.355-1.604 1.621 2.381-2.356 1.604z" />
    <path class="prefix__q"
        d="M181.811 341.4l2.356-1.605 1.621 2.38-2.356 1.605zM184.172 339.799l2.356-1.604 1.62 2.38-2.355 1.604z" />
    <path class="prefix__q"
        d="M186.524 338.193l2.356-1.604 1.62 2.381-2.355 1.604zM191.23 334.99l2.356-1.605 1.621 2.38-2.356 1.605z" />
    <path class="prefix__q"
        d="M193.582 333.384l2.356-1.604 1.621 2.38-2.356 1.605zM200.647 328.583l2.355-1.604 1.621 2.38-2.356 1.605zM205.354 325.387l2.497-1.7 1.62 2.381-2.496 1.7z" />
    <path class="prefix__q"
        d="M207.84 323.68l2.356-1.603 1.621 2.38-2.356 1.604zM212.539 320.482l2.355-1.604 1.621 2.38-2.355 1.605zM214.899 318.871l2.356-1.604 1.62 2.38-2.355 1.605z" />
    <path class="prefix__q" d="M217.25 317.276l2.357-1.604 1.62 2.38-2.355 1.605z" />
    <path class="prefix__q" d="M219.603 315.681l2.356-1.604 1.62 2.38-2.355 1.605z" />
    <path class="prefix__q" d="M221.95 314.068l2.355-1.604 1.621 2.38-2.356 1.604z" />
    <path class="prefix__q"
        d="M224.305 312.467l2.488-1.694 1.62 2.38-2.487 1.694zM174.753 346.209l2.356-1.604 1.62 2.38-2.355 1.604zM184.905 335.818l2.356-1.604 1.62 2.38-2.355 1.604zM191.964 331.009l2.356-1.604 1.62 2.38-2.355 1.604zM196.668 327.808l2.356-1.604 1.62 2.38-2.355 1.605zM199.028 326.208l2.356-1.604 1.62 2.38-2.355 1.604z" />
    <path class="prefix__q" d="M201.374 324.604L203.73 323l1.621 2.38-2.356 1.605z" />
    <path class="prefix__q"
        d="M203.726 323.002l2.496-1.7 1.62 2.38-2.495 1.7zM210.92 318.097l2.356-1.604 1.62 2.38-2.355 1.604zM222.686 310.091l2.488-1.694 1.621 2.38-2.488 1.695zM173.134 343.833l2.356-1.604 1.62 2.38-2.355 1.605zM176.222 338.243l2.356-1.604 1.621 2.381-2.356 1.604z" />
    <path class="prefix__q"
        d="M178.574 336.638l2.356-1.604 1.621 2.38-2.356 1.605zM183.287 333.442l2.355-1.604 1.621 2.381-2.356 1.604zM187.993 330.228l2.356-1.604 1.62 2.38-2.355 1.605z" />
    <path class="prefix__q" d="M190.345 328.633l2.356-1.604 1.62 2.38-2.355 1.605z" />
    <path class="prefix__q"
        d="M192.697 327.028l2.356-1.604 1.62 2.38-2.355 1.605zM197.4 323.822l2.355-1.604 1.621 2.38-2.356 1.605z" />
    <path class="prefix__q" d="M199.746 322.219l2.356-1.604 1.62 2.38-2.355 1.604z" />
    <path class="prefix__q" d="M202.107 320.626l2.496-1.7 1.621 2.381-2.496 1.7z" />
    <path class="prefix__q"
        d="M204.603 318.93l2.356-1.604 1.62 2.38-2.355 1.604zM209.302 315.721l2.355-1.604 1.621 2.38-2.356 1.605zM214.014 312.515l2.356-1.604 1.62 2.38-2.355 1.605z" />
    <path class="prefix__q"
        d="M216.366 310.92l2.356-1.604 1.62 2.38-2.355 1.605zM221.068 307.706l2.488-1.694 1.62 2.38-2.487 1.694zM171.516 341.448l2.356-1.604 1.62 2.38-2.355 1.604zM174.604 335.858l2.356-1.604 1.62 2.38-2.355 1.604z" />
    <path class="prefix__q"
        d="M176.956 334.263l2.356-1.604 1.62 2.38-2.355 1.604zM181.668 331.057l2.356-1.604 1.62 2.38-2.355 1.604zM186.365 327.843l2.355-1.604 1.621 2.38-2.355 1.604zM191.069 324.652l2.355-1.604 1.621 2.381-2.355 1.604zM195.781 321.447l2.356-1.604 1.62 2.38-2.355 1.604zM207.683 313.335l2.356-1.604 1.62 2.381-2.355 1.604zM212.395 310.14l2.356-1.604 1.62 2.38-2.355 1.604z" />
    <path class="prefix__q"
        d="M214.747 308.534l2.356-1.604 1.62 2.381-2.355 1.604zM219.44 305.33l2.487-1.694 1.621 2.38-2.488 1.695zM169.897 339.072l2.356-1.604 1.62 2.38-2.355 1.605zM180.04 328.681l2.355-1.604 1.621 2.38-2.356 1.605zM184.738 325.473l2.356-1.604 1.62 2.38-2.355 1.604zM187.098 323.872l2.356-1.604 1.62 2.38-2.355 1.605z" />
    <path class="prefix__q"
        d="M189.45 322.267l2.356-1.604 1.62 2.38-2.355 1.604zM194.162 319.071l2.356-1.604 1.621 2.38-2.356 1.605z" />
    <path class="prefix__q"
        d="M196.509 317.458l2.356-1.604 1.62 2.38-2.355 1.604zM201.366 314.168l2.356-1.604 1.62 2.381-2.355 1.604zM206.064 310.96l2.356-1.604 1.621 2.38-2.356 1.605zM217.719 304.587l2.498-1.686 1.613 2.39-2.498 1.686zM168.279 336.686l2.355-1.604 1.621 2.381-2.356 1.604z" />
    <path class="prefix__q" d="M169.01 332.71l2.356-1.604 1.621 2.38-2.356 1.605z" />
    <path class="prefix__q" d="M171.357 331.097l2.355-1.604 1.621 2.38-2.355 1.604z" />
    <path class="prefix__q"
        d="M173.709 329.502l2.355-1.604 1.621 2.38-2.355 1.604zM176.069 327.9l2.356-1.603 1.62 2.38-2.355 1.604z" />
    <path class="prefix__q"
        d="M178.421 326.296l2.356-1.604 1.62 2.38-2.355 1.604zM183.12 323.087l2.355-1.604 1.621 2.38-2.356 1.605zM187.832 319.891l2.355-1.604 1.621 2.38-2.356 1.605z" />
    <path class="prefix__q"
        d="M190.184 318.286l2.355-1.604 1.621 2.38-2.356 1.605zM194.89 315.082l2.356-1.604 1.62 2.38-2.355 1.605zM204.436 308.574l2.356-1.604 1.62 2.381-2.355 1.604z" />
    <path class="prefix__q"
        d="M206.788 306.98l2.356-1.605 1.62 2.38-2.355 1.605zM209.148 305.379l2.356-1.604 1.62 2.38-2.355 1.604z" />
    <path class="prefix__q" d="M211.5 303.773l2.356-1.604 1.62 2.381-2.355 1.604z" />
    <path class="prefix__q" d="M213.847 302.17l2.355-1.604 1.621 2.38-2.356 1.605z" />
    <path class="prefix__q"
        d="M216.202 300.57l2.488-1.695 1.621 2.38-2.488 1.695zM166.65 334.311l2.356-1.604 1.62 2.38-2.355 1.605zM188.565 315.91l2.356-1.603 1.62 2.38-2.355 1.604zM190.925 314.31l2.356-1.604 1.621 2.38-2.356 1.604z" />
    <path class="prefix__q"
        d="M193.272 312.696l2.355-1.604 1.621 2.381-2.355 1.604zM198.11 309.413l2.357-1.604 1.62 2.38-2.355 1.605zM165.773 327.95l2.356-1.605 1.62 2.38-2.355 1.605z" />
    <path class="prefix__q" d="M168.12 326.336l2.355-1.604 1.621 2.38-2.356 1.604z" />
    <path class="prefix__q" d="M170.472 324.74l2.355-1.603 1.621 2.38-2.356 1.604z" />
    <path class="prefix__q"
        d="M172.824 323.145l2.355-1.604 1.621 2.381-2.356 1.604zM179.882 318.336l2.356-1.604 1.62 2.38-2.355 1.605zM182.242 316.725l2.356-1.604 1.621 2.381-2.356 1.604z" />
    <path class="prefix__q"
        d="M184.594 315.13l2.356-1.604 1.621 2.38-2.356 1.605zM189.307 311.924l2.356-1.604 1.62 2.38-2.355 1.605z" />
    <path class="prefix__q" d="M191.653 310.32l2.356-1.603 1.62 2.38-2.355 1.605z" />
    <path class="prefix__q" d="M194.004 308.728l2.497-1.7 1.62 2.381-2.496 1.7z" />
    <path class="prefix__q"
        d="M196.492 307.027l2.356-1.604 1.62 2.381-2.355 1.604zM198.847 305.418l2.356-1.604 1.62 2.381-2.355 1.604z" />
    <path class="prefix__q" d="M201.199 303.823l2.356-1.604 1.62 2.38-2.355 1.605z" />
    <path class="prefix__q"
        d="M203.55 302.218l2.357-1.604 1.62 2.38-2.355 1.605zM205.911 300.617l2.356-1.604 1.62 2.381-2.355 1.604zM210.61 297.409l2.355-1.604 1.621 2.38-2.356 1.604z" />
    <path class="prefix__q"
        d="M212.965 295.808l2.488-1.694 1.621 2.38-2.488 1.695zM166.501 323.96l2.356-1.604 1.62 2.38-2.355 1.605z" />
    <path class="prefix__q"
        d="M168.853 322.365l2.356-1.604 1.62 2.38-2.355 1.605zM175.917 317.554l2.356-1.604 1.621 2.38-2.356 1.605z" />
    <path class="prefix__q"
        d="M178.264 315.95l2.355-1.603 1.621 2.38-2.355 1.604zM182.976 312.745l2.356-1.604 1.62 2.38-2.355 1.604zM190.025 307.935l2.355-1.604 1.621 2.381-2.356 1.604zM194.874 304.652l2.355-1.604 1.621 2.38-2.355 1.605zM197.228 303.033l2.356-1.604 1.62 2.38-2.355 1.604zM201.932 299.843l2.356-1.604 1.62 2.38-2.355 1.604zM204.293 298.232l2.355-1.604 1.621 2.38-2.356 1.604zM162.528 323.194l2.356-1.604 1.62 2.38-2.355 1.604zM167.234 319.98l2.356-1.604 1.621 2.38-2.356 1.604z" />
    <path class="prefix__q"
        d="M169.586 318.384l2.356-1.604 1.621 2.38-2.356 1.605zM171.947 316.774l2.356-1.604 1.62 2.38-2.355 1.604z" />
    <path class="prefix__q"
        d="M174.299 315.178l2.356-1.604 1.62 2.381-2.355 1.604zM178.995 311.964l2.356-1.604 1.621 2.38-2.356 1.605z" />
    <path class="prefix__q" d="M181.347 310.37l2.356-1.605 1.621 2.38-2.356 1.605z" />
    <path class="prefix__q"
        d="M183.7 308.774l2.355-1.604 1.621 2.38-2.356 1.605zM186.06 307.163l2.355-1.604 1.621 2.38-2.355 1.605z" />
    <path class="prefix__q" d="M188.406 305.56l2.356-1.604 1.62 2.38-2.355 1.604z" />
    <path class="prefix__q"
        d="M190.767 303.967l2.497-1.7 1.62 2.381-2.496 1.7zM202.674 295.856l2.356-1.604 1.62 2.38-2.355 1.605z" />
    <path class="prefix__q"
        d="M205.026 294.261l2.356-1.604 1.62 2.38-2.355 1.605zM209.728 291.047l2.488-1.694 1.62 2.38-2.487 1.695zM160.176 324.789l2.356-1.604 1.62 2.38-2.355 1.604z" />
    <path class="prefix__q"
        d="M160.91 320.808l2.355-1.604 1.621 2.38-2.356 1.605zM163.264 319.2l2.356-1.605 1.62 2.38-2.355 1.605z" />
    <path class="prefix__q"
        d="M165.616 317.604l2.356-1.604 1.62 2.38-2.355 1.605zM175.017 311.19l2.355-1.604 1.621 2.38-2.356 1.604zM177.377 309.589l2.356-1.604 1.62 2.38-2.355 1.604zM186.787 303.174l2.356-1.604 1.621 2.38-2.356 1.605zM193.991 298.282l2.356-1.604 1.62 2.38-2.355 1.604z" />
    <path class="prefix__q"
        d="M196.343 296.677l2.356-1.604 1.62 2.38-2.355 1.604zM201.055 293.48l2.356-1.603 1.621 2.38-2.356 1.604z" />
    <path class="prefix__q" d="M203.407 291.876l2.356-1.604 1.621 2.38-2.356 1.604z" />
    <path class="prefix__q" d="M205.754 290.272l2.356-1.604 1.62 2.38-2.355 1.605z" />
    <path class="prefix__q"
        d="M208.1 288.671l2.487-1.694 1.621 2.381-2.488 1.694zM158.557 322.413l2.356-1.604 1.621 2.38-2.356 1.605zM163.987 315.218l2.356-1.604 1.621 2.381-2.356 1.604z" />
    <path class="prefix__q"
        d="M166.34 313.623l2.355-1.604 1.621 2.38-2.356 1.605zM168.7 312.013l2.355-1.604 1.621 2.38-2.355 1.604z" />
    <path class="prefix__q" d="M171.052 310.417l2.355-1.604 1.621 2.381-2.355 1.604z" />
    <path class="prefix__q"
        d="M173.398 308.814l2.356-1.604 1.62 2.38-2.355 1.605zM175.758 307.203l2.356-1.604 1.62 2.38-2.355 1.605zM182.814 302.408l2.356-1.604 1.62 2.38-2.355 1.604zM190.018 297.505l2.356-1.604 1.62 2.38-2.355 1.605zM192.373 295.896l2.355-1.604 1.621 2.38-2.356 1.605zM201.779 289.5l2.356-1.604 1.62 2.38-2.355 1.605zM156.939 320.028l2.356-1.604 1.62 2.38-2.355 1.604zM157.662 316.047l2.356-1.604 1.62 2.38-2.355 1.605zM160.017 314.438l2.356-1.604 1.62 2.38-2.355 1.605z" />
    <path class="prefix__q" d="M162.369 312.843l2.356-1.604 1.62 2.38-2.355 1.604z" />
    <path class="prefix__q"
        d="M164.72 311.238l2.357-1.604 1.62 2.38-2.355 1.604zM169.433 308.042l2.356-1.604 1.62 2.38-2.355 1.604zM174.14 304.828l2.356-1.604 1.62 2.38-2.355 1.604z" />
    <path class="prefix__q"
        d="M176.492 303.233l2.356-1.604 1.62 2.38-2.355 1.604zM181.196 300.032l2.356-1.604 1.62 2.38-2.355 1.605zM183.55 298.423l2.356-1.604 1.621 2.38-2.356 1.605zM185.912 296.82l2.496-1.699 1.62 2.38-2.496 1.7z" />
    <path class="prefix__q"
        d="M188.39 295.13l2.355-1.604 1.621 2.38-2.356 1.604zM193.096 291.916l2.356-1.604 1.62 2.38-2.355 1.604z" />
    <path class="prefix__q" d="M195.448 290.32l2.356-1.604 1.62 2.381-2.355 1.604z" />
    <path class="prefix__q"
        d="M197.8 288.725l2.356-1.604 1.62 2.38-2.355 1.605zM200.16 287.115l2.356-1.604 1.621 2.38-2.356 1.604zM204.862 283.91l2.488-1.694 1.621 2.38-2.488 1.695zM156.044 313.672l2.355-1.604 1.621 2.38-2.355 1.604zM160.75 310.457l2.356-1.604 1.621 2.38-2.356 1.605zM165.463 307.261l2.355-1.604 1.621 2.381-2.356 1.604z" />
    <path class="prefix__q"
        d="M167.815 305.656l2.355-1.604 1.621 2.38-2.356 1.605zM174.873 300.847l2.356-1.604 1.62 2.38-2.355 1.605z" />
    <path class="prefix__q" d="M177.225 299.252l2.356-1.604 1.62 2.38-2.355 1.604z" />
    <path class="prefix__q"
        d="M179.577 297.647l2.356-1.604 1.62 2.38-2.355 1.604zM184.283 294.445l2.496-1.7 1.621 2.381-2.496 1.7z" />
    <path class="prefix__q" d="M186.77 292.754l2.357-1.604 1.62 2.38-2.355 1.605z" />
    <path class="prefix__q"
        d="M189.117 291.14l2.356-1.603 1.62 2.38-2.355 1.604zM193.83 287.935l2.355-1.604 1.621 2.38-2.356 1.605zM198.542 284.74l2.356-1.605 1.62 2.38-2.355 1.605z" />
    <path class="prefix__q" d="M200.888 283.126l2.356-1.604 1.62 2.38-2.355 1.604z" />
    <path class="prefix__q"
        d="M203.244 281.525l2.488-1.694 1.62 2.38-2.487 1.694zM153.692 315.267l2.355-1.604 1.621 2.38-2.355 1.604z" />
    <path class="prefix__q"
        d="M154.425 311.296l2.356-1.604 1.62 2.38-2.355 1.605zM163.844 304.876l2.356-1.604 1.62 2.38-2.355 1.604z" />
    <path class="prefix__q"
        d="M166.196 303.28l2.356-1.603 1.62 2.38-2.355 1.604zM170.894 300.072l2.356-1.604 1.621 2.38-2.356 1.605zM173.255 298.471l2.355-1.604 1.621 2.381-2.355 1.604zM177.959 295.271l2.355-1.604 1.621 2.38-2.355 1.605zM180.313 293.662l2.356-1.604 1.62 2.38-2.355 1.605zM185.152 290.369l2.356-1.604 1.621 2.38-2.356 1.604z" />
    <path class="prefix__q"
        d="M187.499 288.765l2.355-1.604 1.621 2.38-2.355 1.605zM189.859 287.155l2.356-1.604 1.62 2.38-2.355 1.604z" />
    <path class="prefix__q" d="M192.211 285.56l2.356-1.605 1.62 2.381-2.355 1.604z" />
    <path class="prefix__q"
        d="M194.563 283.964l2.356-1.604 1.62 2.38-2.355 1.605zM196.923 282.354l2.356-1.604 1.62 2.38-2.355 1.604zM152.073 312.891l2.356-1.604 1.62 2.38-2.355 1.605zM169.276 297.697l2.356-1.604 1.62 2.38-2.355 1.604zM173.978 294.49l2.356-1.603 1.62 2.38-2.355 1.604z" />
    <path class="prefix__q"
        d="M176.33 292.896l2.356-1.604 1.62 2.38-2.355 1.604zM181.038 289.69l2.496-1.7 1.62 2.38-2.495 1.7z" />
    <path class="prefix__q" d="M183.534 287.993l2.356-1.604 1.62 2.38-2.355 1.605z" />
    <path class="prefix__q"
        d="M185.88 286.38l2.356-1.604 1.62 2.38-2.355 1.604zM151.188 306.535l2.356-1.604 1.62 2.38-2.355 1.604zM153.543 304.916l2.355-1.604 1.621 2.38-2.355 1.604z" />
    <path class="prefix__q" d="M155.895 303.32l2.355-1.603 1.621 2.38-2.355 1.604z" />
    <path class="prefix__q" d="M158.247 301.726l2.355-1.604 1.621 2.38-2.355 1.604z" />
    <path class="prefix__q"
        d="M160.599 300.12l2.355-1.604 1.621 2.381-2.355 1.604zM165.295 296.906l2.356-1.604 1.62 2.38-2.355 1.605z" />
    <path class="prefix__q"
        d="M167.647 295.311l2.356-1.604 1.62 2.38-2.355 1.605zM174.712 290.51l2.355-1.604 1.621 2.38-2.356 1.605zM184.262 284.004l2.355-1.604 1.621 2.38-2.356 1.605zM186.622 282.393l2.356-1.604 1.62 2.381-2.355 1.604zM191.326 279.203l2.356-1.604 1.62 2.38-2.355 1.605zM198.378 274.388l2.488-1.694 1.621 2.38-2.488 1.695zM148.836 308.13l2.356-1.604 1.62 2.38-2.355 1.605zM158.97 297.745l2.356-1.604 1.62 2.38-2.355 1.604zM177.8 284.929l2.497-1.7 1.62 2.38-2.496 1.7z" />
    <path class="prefix__q"
        d="M180.297 283.232l2.355-1.604 1.621 2.38-2.355 1.605zM185.003 280.018l2.356-1.604 1.621 2.38-2.356 1.605z" />
    <path class="prefix__q"
        d="M187.355 278.423l2.356-1.604 1.621 2.38-2.356 1.604zM192.058 275.217l2.355-1.604 1.621 2.38-2.356 1.604z" />
    <path class="prefix__q"
        d="M194.404 273.613l2.356-1.604 1.62 2.381-2.355 1.604zM196.76 272.003l2.488-1.694 1.62 2.38-2.488 1.694zM147.217 305.744l2.356-1.604 1.621 2.381-2.356 1.604zM150.287 300.16l2.356-1.604 1.62 2.381-2.355 1.604zM152.648 298.56l2.355-1.604 1.621 2.38-2.356 1.604zM157.352 295.36l2.355-1.605 1.621 2.381-2.356 1.604zM162.058 292.155l2.356-1.604 1.62 2.38-2.355 1.605z" />
    <path class="prefix__q"
        d="M164.41 290.55l2.356-1.604 1.62 2.38-2.355 1.605zM168.898 288.796l2.365-1.596 1.613 2.39-2.365 1.597zM171.474 285.749l2.356-1.604 1.621 2.38-2.356 1.605zM176.182 282.553l2.496-1.7 1.621 2.381-2.496 1.7zM185.727 276.037l2.356-1.604 1.62 2.38-2.355 1.605z" />
    <path class="prefix__q"
        d="M188.079 274.442l2.356-1.604 1.62 2.38-2.355 1.605zM190.439 272.831l2.356-1.604 1.62 2.38-2.355 1.605zM145.589 303.369l2.356-1.604 1.62 2.38-2.355 1.605zM148.669 297.785l2.356-1.604 1.62 2.38-2.355 1.604zM151.029 296.184l2.356-1.604 1.62 2.38-2.355 1.605zM155.733 292.984l2.356-1.604 1.62 2.38-2.355 1.604zM160.44 289.77l2.355-1.604 1.621 2.38-2.356 1.604zM165.152 286.564l2.356-1.604 1.62 2.38-2.355 1.604z" />
    <path class="prefix__q"
        d="M167.28 286.408l2.366-1.596 1.613 2.39-2.366 1.597zM169.856 283.373l2.356-1.603 1.62 2.38-2.355 1.604z" />
    <path class="prefix__q" d="M172.202 281.76l2.356-1.604 1.62 2.38-2.355 1.605z" />
    <path class="prefix__q"
        d="M174.563 280.168l2.497-1.7 1.62 2.38-2.496 1.7zM179.396 276.858l2.356-1.604 1.62 2.38-2.355 1.604zM181.756 275.257l2.356-1.604 1.62 2.38-2.355 1.604z" />
    <path class="prefix__q"
        d="M184.108 273.662l2.356-1.604 1.62 2.38-2.355 1.604zM188.812 270.461l2.356-1.604 1.62 2.381-2.355 1.604zM191.167 268.852l2.356-1.604 1.62 2.381-2.355 1.604zM193.522 267.242l2.488-1.694 1.621 2.38-2.488 1.694zM143.97 300.993l2.356-1.604 1.621 2.381-2.356 1.604zM154.114 290.598l2.356-1.604 1.621 2.38-2.356 1.605zM163.533 284.188l2.356-1.604 1.621 2.38-2.356 1.605z" />
    <path class="prefix__q"
        d="M165.885 282.593l2.356-1.604 1.621 2.38-2.356 1.605zM170.584 279.385l2.355-1.604 1.621 2.38-2.355 1.604z" />
    <path class="prefix__q"
        d="M172.935 277.792l2.496-1.7 1.621 2.38-2.496 1.7zM175.431 276.085l2.356-1.604 1.62 2.381-2.355 1.604z" />
    <path class="prefix__q"
        d="M177.777 274.482l2.356-1.604 1.621 2.38-2.356 1.605zM189.548 266.467l2.356-1.604 1.62 2.38-2.355 1.604zM142.352 298.608l2.356-1.604 1.62 2.38-2.355 1.604z" />
    <path class="prefix__q" d="M143.085 294.627l2.356-1.604 1.62 2.38-2.355 1.605z" />
    <path class="prefix__q"
        d="M145.432 293.024l2.355-1.604 1.621 2.38-2.356 1.604zM147.792 291.423l2.356-1.604 1.62 2.38-2.355 1.605z" />
    <path class="prefix__q" d="M150.144 289.818l2.356-1.604 1.62 2.38-2.355 1.604z" />
    <path class="prefix__q"
        d="M152.496 288.223l2.356-1.604 1.62 2.38-2.355 1.604zM157.203 285.009l2.355-1.604 1.621 2.38-2.356 1.604z" />
    <path class="prefix__q"
        d="M159.555 283.413l2.355-1.604 1.621 2.381-2.356 1.604zM171.316 275.406l2.497-1.7 1.62 2.381-2.496 1.7zM176.159 272.107l2.356-1.604 1.62 2.38-2.355 1.604zM180.871 268.9l2.356-1.603 1.62 2.38-2.355 1.604z" />
    <path class="prefix__q"
        d="M183.223 267.295l2.356-1.603 1.62 2.38-2.355 1.604zM190.285 262.49l2.488-1.694 1.621 2.381-2.488 1.694zM140.733 296.232l2.356-1.604 1.62 2.38-2.355 1.605z" />
    <g class="prefix__r">
        <path class="prefix__e"
            d="M136.05 306.28a1 1 0 01-1.41-.28l-7.86-11.54A1 1 0 01127 293l11.51-7.83a1 1 0 011.16 1.69L129 294.17l7.28 10.69a1 1 0 01-.23 1.42zM203.86 260.19a1 1 0 01-1.41-.28l-7.36-10.8-10.57 7.2a1 1 0 01-1.15-1.69l11.41-7.77a1 1 0 011.41.28l7.93 11.64a1 1 0 01-.26 1.42z" />
    </g>
    <g class="prefix__r">
        <path class="prefix__e"
            d="M243.35 318.2l-11.51 7.8a1 1 0 01-1.16-1.7l10.68-7.27-7.28-10.69a1 1 0 111.67-1.14l7.86 11.54a1 1 0 01-.26 1.46zM187 356.62l-11.42 7.77a1 1 0 01-1.41-.28l-7.93-11.64a1 1 0 111.67-1.14l7.36 10.8 10.57-7.2a1 1 0 011.16 1.69z" />
    </g><text transform="rotate(-37 431.565 -25.487)" font-size="27" font-family="AzkasiaDemo,Azkasia">MENU</text>
    <g class="prefix__p">
        <path class="prefix__e" d="M523.25 166.71h120.84v120.84H523.25z" />
    </g>
    <path class="prefix__q"
        d="M535.37 274.87h4.8v4.8h-4.8zM540.17 274.87h4.8v4.8h-4.8zM544.97 274.87h4.8v4.8h-4.8zM549.77 274.87h4.8v4.8h-4.8zM554.58 274.87h4.8v4.8h-4.8zM564.18 274.87h4.8v4.8h-4.8zM568.98 274.87h4.8v4.8h-4.8zM583.39 274.87h4.8v4.8h-4.8zM592.99 274.87h5.09v4.8h-5.09zM598.08 274.87h4.8v4.8h-4.8zM607.68 274.87h4.8v4.8h-4.8zM612.49 274.87h4.8v4.8h-4.8zM617.29 274.87h4.8v4.8h-4.8zM622.09 274.87h4.8v4.8h-4.8zM626.89 274.87h4.8v4.8h-4.8zM631.7 274.87h5.09v4.8h-5.09zM530.57 274.87h4.8v4.8h-4.8zM554.58 270.07h4.8v4.8h-4.8zM568.98 270.07h4.8v4.8h-4.8zM578.59 270.07h4.8v4.8h-4.8zM583.39 270.07h4.8v4.8h-4.8zM588.19 270.07h4.8v4.8h-4.8zM592.99 270.07h5.09v4.8h-5.09zM607.68 270.07h4.8v4.8h-4.8zM631.7 270.07h5.09v4.8h-5.09zM530.57 270.07h4.8v4.8h-4.8zM540.17 265.26h4.8v4.8h-4.8zM544.97 265.26h4.8v4.8h-4.8zM554.58 265.26h4.8v4.8h-4.8zM564.18 265.26h4.8v4.8h-4.8zM568.98 265.26h4.8v4.8h-4.8zM573.78 265.26h4.8v4.8h-4.8zM583.39 265.26h4.8v4.8h-4.8zM588.19 265.26h4.8v4.8h-4.8zM592.99 265.26h5.09v4.8h-5.09zM598.08 265.26h4.8v4.8h-4.8zM607.68 265.26h4.8v4.8h-4.8zM617.29 265.26h4.8v4.8h-4.8zM622.09 265.26h4.8v4.8h-4.8zM631.7 265.26h5.09v4.8h-5.09zM530.57 265.26h4.8v4.8h-4.8zM540.17 260.46h4.8v4.8h-4.8zM544.97 260.46h4.8v4.8h-4.8zM554.58 260.46h4.8v4.8h-4.8zM564.18 260.46h4.8v4.8h-4.8zM573.78 260.46h4.8v4.8h-4.8zM583.39 260.46h4.8v4.8h-4.8zM607.68 260.46h4.8v4.8h-4.8zM617.29 260.46h4.8v4.8h-4.8zM622.09 260.46h4.8v4.8h-4.8zM631.7 260.46h5.09v4.8h-5.09zM530.57 260.46h4.8v4.8h-4.8zM554.58 255.66h4.8v4.8h-4.8zM564.18 255.66h4.8v4.8h-4.8zM568.98 255.66h4.8v4.8h-4.8zM573.78 255.66h4.8v4.8h-4.8zM583.39 255.66h4.8v4.8h-4.8zM588.19 255.66h4.8v4.8h-4.8zM598.08 255.66h4.8v4.8h-4.8zM607.68 255.66h4.8v4.8h-4.8zM631.7 255.66h5.09v4.8h-5.09zM530.57 255.66h4.8v4.8h-4.8zM535.37 250.86h4.8v4.8h-4.8zM540.17 250.86h4.8v4.8h-4.8zM544.97 250.86h4.8v4.8h-4.8zM549.77 250.86h4.8v4.8h-4.8z" />
    <path class="prefix__q"
        d="M554.58 250.86h4.8v4.8h-4.8zM564.18 250.86h4.8v4.8h-4.8zM573.78 250.86h4.8v4.8h-4.8zM578.59 250.86h4.8v4.8h-4.8zM588.19 250.86h4.8v4.8h-4.8zM607.68 250.86h4.8v4.8h-4.8zM612.49 250.86h4.8v4.8h-4.8zM617.29 250.86h4.8v4.8h-4.8zM622.09 250.86h4.8v4.8h-4.8zM626.89 250.86h4.8v4.8h-4.8zM631.7 250.86h5.09v4.8h-5.09zM530.57 250.86h4.8v4.8h-4.8zM578.59 246.06h4.8v4.8h-4.8zM583.39 246.06h4.8v4.8h-4.8zM588.19 246.06h4.8v4.8h-4.8zM598.08 246.06h4.8v4.8h-4.8zM535.37 241.25h4.8v4.8h-4.8zM540.17 241.25h4.8v4.8h-4.8zM544.97 241.25h4.8v4.8h-4.8zM549.77 241.25h4.8v4.8h-4.8zM564.18 241.25h4.8v4.8h-4.8zM568.98 241.25h4.8v4.8h-4.8zM573.78 241.25h4.8v4.8h-4.8zM583.39 241.25h4.8v4.8h-4.8zM588.19 241.25h4.8v4.8h-4.8zM592.99 241.25h5.09v4.8h-5.09zM598.08 241.25h4.8v4.8h-4.8zM602.88 241.25h4.8v4.8h-4.8zM607.68 241.25h4.8v4.8h-4.8zM612.49 241.25h4.8v4.8h-4.8zM617.29 241.25h4.8v4.8h-4.8zM626.89 241.25h4.8v4.8h-4.8zM631.7 241.25h5.09v4.8h-5.09zM540.17 236.45h4.8v4.8h-4.8zM544.97 236.45h4.8v4.8h-4.8zM559.38 236.45h4.8v4.8h-4.8zM564.18 236.45h4.8v4.8h-4.8zM573.78 236.45h4.8v4.8h-4.8zM588.19 236.45h4.8v4.8h-4.8zM598.08 236.45h4.8v4.8h-4.8zM602.88 236.45h4.8v4.8h-4.8zM612.49 236.45h4.8v4.8h-4.8zM617.29 236.45h4.8v4.8h-4.8zM535.37 231.65h4.8v4.8h-4.8z" />
    <path class="prefix__q"
        d="M544.97 231.65h4.8v4.8h-4.8zM549.77 231.65h4.8v4.8h-4.8zM554.58 231.65h4.8v4.8h-4.8zM559.38 231.65h4.8v4.8h-4.8zM568.98 231.65h4.8v4.8h-4.8zM573.78 231.65h4.8v4.8h-4.8zM578.59 231.65h4.8v4.8h-4.8zM583.39 231.65h4.8v4.8h-4.8zM588.19 231.65h4.8v4.8h-4.8zM592.99 231.65h5.09v4.8h-5.09zM617.29 231.65h4.8v4.8h-4.8zM622.09 231.65h4.8v4.8h-4.8zM631.7 231.65h5.09v4.8h-5.09zM530.57 231.65h4.8v4.8h-4.8zM535.37 226.85h4.8v4.8h-4.8zM540.17 226.85h4.8v4.8h-4.8zM544.97 226.85h4.8v4.8h-4.8zM564.18 226.85h4.8v4.8h-4.8zM568.98 226.85h4.8v4.8h-4.8zM588.19 226.85h4.8v4.8h-4.8zM602.88 226.85h4.8v4.8h-4.8zM607.68 226.85h4.8v4.8h-4.8zM617.29 226.85h4.8v4.8h-4.8zM622.09 226.85h4.8v4.8h-4.8zM626.89 226.85h4.8v4.8h-4.8zM631.7 226.85h5.09v4.8h-5.09zM530.57 226.85h4.8v4.8h-4.8zM544.97 222.04h4.8v4.8h-4.8zM549.77 222.04h4.8v4.8h-4.8zM554.58 222.04h4.8v4.8h-4.8zM559.38 222.04h4.8v4.8h-4.8zM564.18 222.04h4.8v4.8h-4.8zM568.98 222.04h4.8v4.8h-4.8zM583.39 222.04h4.8v4.8h-4.8zM598.08 222.04h4.8v4.8h-4.8zM602.88 222.04h4.8v4.8h-4.8zM622.09 222.04h4.8v4.8h-4.8zM530.57 222.04h4.8v4.8h-4.8zM535.37 217.24h4.8v4.8h-4.8zM540.17 217.24h4.8v4.8h-4.8z" />
    <path class="prefix__q"
        d="M544.97 217.24h4.8v4.8h-4.8zM549.77 217.24h4.8v4.8h-4.8zM559.38 217.24h4.8v4.8h-4.8zM568.98 217.24h4.8v4.8h-4.8zM573.78 217.24h4.8v4.8h-4.8zM583.39 217.24h4.8v4.8h-4.8zM588.19 217.24h4.8v4.8h-4.8zM592.99 217.24h5.09v4.8h-5.09zM598.08 217.24h4.8v4.8h-4.8zM607.68 217.24h4.8v4.8h-4.8zM612.49 217.24h4.8v4.8h-4.8zM617.29 217.24h4.8v4.8h-4.8zM622.09 217.24h4.8v4.8h-4.8zM631.7 217.24h5.09v4.8h-5.09zM535.37 212.44h4.8v4.8h-4.8zM544.97 212.44h4.8v4.8h-4.8zM554.58 212.44h4.8v4.8h-4.8zM559.38 212.44h4.8v4.8h-4.8zM573.78 212.44h4.8v4.8h-4.8zM578.59 212.44h4.8v4.8h-4.8zM583.39 212.44h4.8v4.8h-4.8zM592.99 212.44h5.09v4.8h-5.09zM598.08 212.44h4.8v4.8h-4.8zM602.88 212.44h4.8v4.8h-4.8zM612.49 212.44h4.8v4.8h-4.8zM622.09 212.44h4.8v4.8h-4.8zM626.89 212.44h4.8v4.8h-4.8zM631.7 212.44h5.09v4.8h-5.09zM530.57 212.44h4.8v4.8h-4.8zM535.37 207.64h4.8v4.8h-4.8zM554.58 207.64h4.8v4.8h-4.8zM559.38 207.64h4.8v4.8h-4.8zM568.98 207.64h4.8v4.8h-4.8zM573.78 207.64h4.8v4.8h-4.8zM583.39 207.64h4.8v4.8h-4.8zM588.19 207.64h4.8v4.8h-4.8zM598.08 207.64h4.8v4.8h-4.8zM602.88 207.64h4.8v4.8h-4.8zM607.68 207.64h4.8v4.8h-4.8zM612.49 207.64h4.8v4.8h-4.8zM617.29 207.64h4.8v4.8h-4.8zM622.09 207.64h4.8v4.8h-4.8zM530.57 207.64h4.8v4.8h-4.8z" />
    <path class="prefix__q"
        d="M568.98 202.84h4.8v4.8h-4.8zM578.59 202.84h4.8v4.8h-4.8zM583.39 202.84h4.8v4.8h-4.8zM592.99 202.84h5.09v4.8h-5.09zM598.08 202.84h4.8v4.8h-4.8zM602.88 202.84h4.8v4.8h-4.8zM535.37 198.03h4.8v4.8h-4.8zM540.17 198.03h4.8v4.8h-4.8zM544.97 198.03h4.8v4.8h-4.8zM549.77 198.03h4.8v4.8h-4.8zM554.58 198.03h4.8v4.8h-4.8zM564.18 198.03h4.8v4.8h-4.8zM568.98 198.03h4.8v4.8h-4.8zM583.39 198.03h4.8v4.8h-4.8zM602.88 198.03h4.8v4.8h-4.8zM607.68 198.03h4.8v4.8h-4.8zM617.29 198.03h4.8v4.8h-4.8zM631.7 198.03h5.09v4.8h-5.09zM530.57 198.03h4.8v4.8h-4.8zM554.58 193.23h4.8v4.8h-4.8zM592.99 193.23h5.09v4.8h-5.09zM598.08 193.23h4.8v4.8h-4.8zM607.68 193.23h4.8v4.8h-4.8zM612.49 193.23h4.8v4.8h-4.8zM622.09 193.23h4.8v4.8h-4.8zM626.89 193.23h4.8v4.8h-4.8zM631.7 193.23h5.09v4.8h-5.09zM530.57 193.23h4.8v4.8h-4.8zM540.17 188.43h4.8v4.8h-4.8zM544.97 188.43h4.8v4.8h-4.8z" />
    <path class="prefix__q"
        d="M554.58 188.43h4.8v4.8h-4.8zM564.18 188.43h4.8v4.8h-4.8zM568.98 188.43h4.8v4.8h-4.8zM578.59 188.43h4.8v4.8h-4.8zM583.39 188.43h4.8v4.8h-4.8zM592.99 188.43h5.09v4.8h-5.09zM612.49 188.43h4.8v4.8h-4.8zM617.29 188.43h4.8v4.8h-4.8zM622.09 188.43h4.8v4.8h-4.8zM530.57 188.43h4.8v4.8h-4.8zM540.17 183.63h4.8v4.8h-4.8zM544.97 183.63h4.8v4.8h-4.8zM554.58 183.63h4.8v4.8h-4.8zM564.18 183.63h4.8v4.8h-4.8zM573.78 183.63h4.8v4.8h-4.8zM578.59 183.63h4.8v4.8h-4.8zM583.39 183.63h4.8v4.8h-4.8zM588.19 183.63h4.8v4.8h-4.8zM592.99 183.63h5.09v4.8h-5.09zM602.88 183.63h4.8v4.8h-4.8zM607.68 183.63h4.8v4.8h-4.8zM612.49 183.63h4.8v4.8h-4.8zM622.09 183.63h4.8v4.8h-4.8zM626.89 183.63h4.8v4.8h-4.8zM631.7 183.63h5.09v4.8h-5.09zM530.57 183.63h4.8v4.8h-4.8z" />
    <path class="prefix__q"
        d="M554.58 178.83h4.8v4.8h-4.8zM573.78 178.83h4.8v4.8h-4.8zM578.59 178.83h4.8v4.8h-4.8zM588.19 178.83h4.8v4.8h-4.8zM592.99 178.83h5.09v4.8h-5.09zM598.08 178.83h4.8v4.8h-4.8zM602.88 178.83h4.8v4.8h-4.8zM626.89 178.83h4.8v4.8h-4.8zM530.57 178.83h4.8v4.8h-4.8zM535.37 174.02h4.8v4.8h-4.8zM540.17 174.02h4.8v4.8h-4.8zM544.97 174.02h4.8v4.8h-4.8zM549.77 174.02h4.8v4.8h-4.8zM554.58 174.02h4.8v4.8h-4.8zM564.18 174.02h4.8v4.8h-4.8zM568.98 174.02h4.8v4.8h-4.8zM592.99 174.02h5.09v4.8h-5.09zM602.88 174.02h4.8v4.8h-4.8zM612.49 174.02h4.8v4.8h-4.8zM617.29 174.02h4.8v4.8h-4.8zM631.7 174.02h5.09v4.8h-5.09zM530.57 174.02h4.8v4.8h-4.8z" />
    <g class="prefix__r">
        <path class="prefix__e"
            d="M514.52 183.48a1.7 1.7 0 01-1.71-1.71v-23.29a1.71 1.71 0 011.71-1.71H538a1.71 1.71 0 110 3.42h-21.78v21.58a1.7 1.7 0 01-1.7 1.71zM652.83 183.58a1.71 1.71 0 01-1.71-1.7v-21.8h-21.58a1.71 1.71 0 110-3.41h23.29a1.71 1.71 0 011.71 1.71v23.5a1.71 1.71 0 01-1.71 1.7z" />
    </g>
    <g class="prefix__r">
        <path class="prefix__e"
            d="M652.83 300.63h-23.5a1.71 1.71 0 010-3.42h21.79v-21.58a1.71 1.71 0 113.42 0v23.29a1.72 1.72 0 01-1.71 1.71zM537.81 300.73h-23.29a1.7 1.7 0 01-1.71-1.71v-23.5a1.71 1.71 0 013.41 0v21.8h21.59a1.71 1.71 0 010 3.41z" />
    </g>
</svg>