<svg xmlns="http://www.w3.org/2000/svg" xmlns:xlink="http://www.w3.org/1999/xlink" viewBox="0 0 792.29 631.57"><defs><style>.a{fill:url(#a);}.b{fill:#fda57d;}.c{fill:url(#b);}.d{fill:url(#c);}.e{fill:#fff;}.f,.s{fill:#6c63ff;}.g{fill:#dbdbdb;}.h{fill:url(#d);}.i{fill:url(#e);}.j{fill:#4d8af0;}.k{fill:url(#f);}.l{fill:url(#g);}.m{opacity:0.5;}.n{fill:url(#h);}.o{fill:url(#i);}.p{opacity:0.9;}.q{fill:#25468f;}.r{opacity:0.8;}.s{opacity:0.3;}.s,.t{isolation:isolate;}.t{opacity:0.1;}.u{fill:#f2f2f2;}.v{fill:#3f3d56;}.w{font-size:27px;font-family:AzkasiaDemo, Azkasia;}</style><linearGradient id="a" x1="783.68" y1="-101.65" x2="783.68" y2="140.27" gradientTransform="matrix(1, 0, 0, -1, -163.09, 499.14)" gradientUnits="userSpaceOnUse"><stop offset="0" stop-color="gray" stop-opacity="0.25"/><stop offset="0.54" stop-color="gray" stop-opacity="0.12"/><stop offset="1" stop-color="gray" stop-opacity="0.1"/></linearGradient><linearGradient id="b" x1="634.55" y1="312.94" x2="634.55" y2="437.85" xlink:href="#a"/><linearGradient id="c" x1="746.77" y1="12.4" x2="746.77" y2="499.13" gradientTransform="matrix(1, 0, 0, -1, -163.09, 499.13)" xlink:href="#a"/><linearGradient id="d" x1="897.64" y1="57.79" x2="897.64" y2="289.67" xlink:href="#a"/><linearGradient id="e" x1="824.06" y1="-132.44" x2="824.06" y2="-74.73" gradientTransform="matrix(1, 0, 0, -1, -163.09, 499.13)" xlink:href="#a"/><linearGradient id="f" x1="614.09" y1="140.36" x2="614.09" y2="243.57" xlink:href="#a"/><linearGradient id="g" x1="610.07" y1="54.81" x2="610.07" y2="146.41" xlink:href="#a"/><linearGradient id="h" x1="583.68" y1="259.77" x2="583.68" y2="410.21" gradientTransform="matrix(1, 0, 0, -1, 0, 578.36)" xlink:href="#a"/><linearGradient id="i" x1="621.79" y1="225.28" x2="621.79" y2="339.89" xlink:href="#a"/></defs><path class="a" d="M792.29,426.79a67.92,67.92,0,0,0-134.65-12.66l-208.75-5.66,2.29,35.87s-29.76,68.68,126.67,87v69.45H758.71V485.36A67.87,67.87,0,0,0,792.29,426.79Z"/><path class="b" d="M458.35,445.79s-28.5,65.77,121.32,83.32v66.51h173.2V419.5l-296.72-8Z"/><path class="c" d="M544.91,171.34h0a31.93,31.93,0,0,1-43.91,10l-93-61.28a31.94,31.94,0,0,1-10-43.91h0a31.93,31.93,0,0,1,43.91-10l93,61.28A31.92,31.92,0,0,1,544.91,171.34Z"/><path class="b" d="M539.74,168h0a29.69,29.69,0,0,1-40.82,9.28l-86.45-57a29.7,29.7,0,0,1-9.28-40.82h0A29.69,29.69,0,0,1,444,70.17l86.45,57A29.69,29.69,0,0,1,539.74,168Z"/><circle class="b" cx="719.98" cy="429" r="65.04"/><rect class="d" x="448.85" width="269.65" height="486.73" rx="10.24"/><rect class="e" x="452.5" y="6.58" width="262.37" height="473.58" rx="13.64"/><path class="f" d="M649.6,18.46a21.27,21.27,0,0,1-21,18.09H538a21.28,21.28,0,0,1-21-18.09H469a10,10,0,0,0-10,10v429.9a10,10,0,0,0,10,10h229.3a10,10,0,0,0,10-10V28.42a10,10,0,0,0-10-10Z"/><path class="g" d="M556.65,24.12h54.81a1.83,1.83,0,0,1,1.83,1.82h0a1.83,1.83,0,0,1-1.83,1.83H556.65a1.83,1.83,0,0,1-1.83-1.83h0A1.83,1.83,0,0,1,556.65,24.12Z"/><circle class="g" cx="625.71" cy="25.58" r="2.19"/><path class="h" d="M762,440.47h0c-18.87,4.36-31.83-7.94-36.2-26.82l-43.35-161a35.33,35.33,0,0,1,26.38-42.25h0a35.31,35.31,0,0,1,42.23,26.43L786.48,402C790.85,420.79,780.9,436.11,762,440.47Z"/><path class="b" d="M710.71,218.51h0a29.6,29.6,0,0,1,35.5,22.18l39.88,172.62a29.59,29.59,0,0,1-22.17,35.5h0a29.6,29.6,0,0,1-35.51-22.17L688.53,254A29.6,29.6,0,0,1,710.71,218.51Z"/><rect class="i" x="537.19" y="573.86" width="247.56" height="57.71"/><rect class="j" x="543.88" y="580.55" width="234.18" height="45.16"/><path class="k" d="M508.8,344.11h0A31.55,31.55,0,0,1,465.42,354l-62.36-40.35a31.56,31.56,0,0,1-9.86-43.38h0a31.55,31.55,0,0,1,43.38-9.86l62.36,40.35A31.55,31.55,0,0,1,508.8,344.11Z"/><path class="l" d="M493.16,429.53h0a31.83,31.83,0,0,1-43.77,10L410.76,411.3a31.84,31.84,0,0,1-9.95-43.77h0a31.83,31.83,0,0,1,43.77-9.95l38.63,28.21A31.82,31.82,0,0,1,493.16,429.53Z"/><g class="m"><circle class="n" cx="583.68" cy="243.37" r="75.22"/></g><path class="b" d="M490,427.43h0a29.69,29.69,0,0,1-40.82,9.28l-36-26.27a29.7,29.7,0,0,1-9.28-40.82h0a29.69,29.69,0,0,1,40.82-9.28l36,26.27A29.69,29.69,0,0,1,490,427.43Z"/><path class="b" d="M505.39,341.93h0a29.69,29.69,0,0,1-40.82,9.28l-58.68-38a29.7,29.7,0,0,1-9.28-40.82h0a29.69,29.69,0,0,1,40.87-9.25l58.68,38A29.68,29.68,0,0,1,505.39,341.93Z"/><path class="o" d="M524.94,259.12h0A31.68,31.68,0,0,1,481.36,269l-79-51.46A31.7,31.7,0,0,1,392.45,174h0A31.69,31.69,0,0,1,436,164.08l79,51.46A31.69,31.69,0,0,1,524.94,259.12Z"/><path class="b" d="M515.74,255.42h0a29.69,29.69,0,0,1-40.82,9.28l-74-48.2a29.7,29.7,0,0,1-9.28-40.82h0a29.7,29.7,0,0,1,40.84-9.28l74,48.2A29.69,29.69,0,0,1,515.74,255.42Z"/><g class="p"><rect class="e" x="523.25" y="166.71" width="120.84" height="120.84"/></g><rect class="q" x="535.37" y="274.87" width="4.8" height="4.8"/><rect class="q" x="540.17" y="274.87" width="4.8" height="4.8"/><rect class="q" x="544.97" y="274.87" width="4.8" height="4.8"/><rect class="q" x="549.77" y="274.87" width="4.8" height="4.8"/><rect class="q" x="554.58" y="274.87" width="4.8" height="4.8"/><rect class="q" x="564.18" y="274.87" width="4.8" height="4.8"/><rect class="q" x="568.98" y="274.87" width="4.8" height="4.8"/><rect class="q" x="583.39" y="274.87" width="4.8" height="4.8"/><rect class="q" x="592.99" y="274.87" width="5.09" height="4.8"/><rect class="q" x="598.08" y="274.87" width="4.8" height="4.8"/><rect class="q" x="607.68" y="274.87" width="4.8" height="4.8"/><rect class="q" x="612.49" y="274.87" width="4.8" height="4.8"/><rect class="q" x="617.29" y="274.87" width="4.8" height="4.8"/><rect class="q" x="622.09" y="274.87" width="4.8" height="4.8"/><rect class="q" x="626.89" y="274.87" width="4.8" height="4.8"/><rect class="q" x="631.7" y="274.87" width="5.09" height="4.8"/><rect class="q" x="530.57" y="274.87" width="4.8" height="4.8"/><rect class="q" x="554.58" y="270.07" width="4.8" height="4.8"/><rect class="q" x="568.98" y="270.07" width="4.8" height="4.8"/><rect class="q" x="578.59" y="270.07" width="4.8" height="4.8"/><rect class="q" x="583.39" y="270.07" width="4.8" height="4.8"/><rect class="q" x="588.19" y="270.07" width="4.8" height="4.8"/><rect class="q" x="592.99" y="270.07" width="5.09" height="4.8"/><rect class="q" x="607.68" y="270.07" width="4.8" height="4.8"/><rect class="q" x="631.7" y="270.07" width="5.09" height="4.8"/><rect class="q" x="530.57" y="270.07" width="4.8" height="4.8"/><rect class="q" x="540.17" y="265.26" width="4.8" height="4.8"/><rect class="q" x="544.97" y="265.26" width="4.8" height="4.8"/><rect class="q" x="554.58" y="265.26" width="4.8" height="4.8"/><rect class="q" x="564.18" y="265.26" width="4.8" height="4.8"/><rect class="q" x="568.98" y="265.26" width="4.8" height="4.8"/><rect class="q" x="573.78" y="265.26" width="4.8" height="4.8"/><rect class="q" x="583.39" y="265.26" width="4.8" height="4.8"/><rect class="q" x="588.19" y="265.26" width="4.8" height="4.8"/><rect class="q" x="592.99" y="265.26" width="5.09" height="4.8"/><rect class="q" x="598.08" y="265.26" width="4.8" height="4.8"/><rect class="q" x="607.68" y="265.26" width="4.8" height="4.8"/><rect class="q" x="617.29" y="265.26" width="4.8" height="4.8"/><rect class="q" x="622.09" y="265.26" width="4.8" height="4.8"/><rect class="q" x="631.7" y="265.26" width="5.09" height="4.8"/><rect class="q" x="530.57" y="265.26" width="4.8" height="4.8"/><rect class="q" x="540.17" y="260.46" width="4.8" height="4.8"/><rect class="q" x="544.97" y="260.46" width="4.8" height="4.8"/><rect class="q" x="554.58" y="260.46" width="4.8" height="4.8"/><rect class="q" x="564.18" y="260.46" width="4.8" height="4.8"/><rect class="q" x="573.78" y="260.46" width="4.8" height="4.8"/><rect class="q" x="583.39" y="260.46" width="4.8" height="4.8"/><rect class="q" x="607.68" y="260.46" width="4.8" height="4.8"/><rect class="q" x="617.29" y="260.46" width="4.8" height="4.8"/><rect class="q" x="622.09" y="260.46" width="4.8" height="4.8"/><rect class="q" x="631.7" y="260.46" width="5.09" height="4.8"/><rect class="q" x="530.57" y="260.46" width="4.8" height="4.8"/><rect class="q" x="554.58" y="255.66" width="4.8" height="4.8"/><rect class="q" x="564.18" y="255.66" width="4.8" height="4.8"/><rect class="q" x="568.98" y="255.66" width="4.8" height="4.8"/><rect class="q" x="573.78" y="255.66" width="4.8" height="4.8"/><rect class="q" x="583.39" y="255.66" width="4.8" height="4.8"/><rect class="q" x="588.19" y="255.66" width="4.8" height="4.8"/><rect class="q" x="598.08" y="255.66" width="4.8" height="4.8"/><rect class="q" x="607.68" y="255.66" width="4.8" height="4.8"/><rect class="q" x="631.7" y="255.66" width="5.09" height="4.8"/><rect class="q" x="530.57" y="255.66" width="4.8" height="4.8"/><rect class="q" x="535.37" y="250.86" width="4.8" height="4.8"/><rect class="q" x="540.17" y="250.86" width="4.8" height="4.8"/><rect class="q" x="544.97" y="250.86" width="4.8" height="4.8"/><rect class="q" x="549.77" y="250.86" width="4.8" height="4.8"/><rect class="q" x="554.58" y="250.86" width="4.8" height="4.8"/><rect class="q" x="564.18" y="250.86" width="4.8" height="4.8"/><rect class="q" x="573.78" y="250.86" width="4.8" height="4.8"/><rect class="q" x="578.59" y="250.86" width="4.8" height="4.8"/><rect class="q" x="588.19" y="250.86" width="4.8" height="4.8"/><rect class="q" x="607.68" y="250.86" width="4.8" height="4.8"/><rect class="q" x="612.49" y="250.86" width="4.8" height="4.8"/><rect class="q" x="617.29" y="250.86" width="4.8" height="4.8"/><rect class="q" x="622.09" y="250.86" width="4.8" height="4.8"/><rect class="q" x="626.89" y="250.86" width="4.8" height="4.8"/><rect class="q" x="631.7" y="250.86" width="5.09" height="4.8"/><rect class="q" x="530.57" y="250.86" width="4.8" height="4.8"/><rect class="q" x="578.59" y="246.06" width="4.8" height="4.8"/><rect class="q" x="583.39" y="246.06" width="4.8" height="4.8"/><rect class="q" x="588.19" y="246.06" width="4.8" height="4.8"/><rect class="q" x="598.08" y="246.06" width="4.8" height="4.8"/><rect class="q" x="535.37" y="241.25" width="4.8" height="4.8"/><rect class="q" x="540.17" y="241.25" width="4.8" height="4.8"/><rect class="q" x="544.97" y="241.25" width="4.8" height="4.8"/><rect class="q" x="549.77" y="241.25" width="4.8" height="4.8"/><rect class="q" x="564.18" y="241.25" width="4.8" height="4.8"/><rect class="q" x="568.98" y="241.25" width="4.8" height="4.8"/><rect class="q" x="573.78" y="241.25" width="4.8" height="4.8"/><rect class="q" x="583.39" y="241.25" width="4.8" height="4.8"/><rect class="q" x="588.19" y="241.25" width="4.8" height="4.8"/><rect class="q" x="592.99" y="241.25" width="5.09" height="4.8"/><rect class="q" x="598.08" y="241.25" width="4.8" height="4.8"/><rect class="q" x="602.88" y="241.25" width="4.8" height="4.8"/><rect class="q" x="607.68" y="241.25" width="4.8" height="4.8"/><rect class="q" x="612.49" y="241.25" width="4.8" height="4.8"/><rect class="q" x="617.29" y="241.25" width="4.8" height="4.8"/><rect class="q" x="626.89" y="241.25" width="4.8" height="4.8"/><rect class="q" x="631.7" y="241.25" width="5.09" height="4.8"/><rect class="q" x="540.17" y="236.45" width="4.8" height="4.8"/><rect class="q" x="544.97" y="236.45" width="4.8" height="4.8"/><rect class="q" x="559.38" y="236.45" width="4.8" height="4.8"/><rect class="q" x="564.18" y="236.45" width="4.8" height="4.8"/><rect class="q" x="573.78" y="236.45" width="4.8" height="4.8"/><rect class="q" x="588.19" y="236.45" width="4.8" height="4.8"/><rect class="q" x="598.08" y="236.45" width="4.8" height="4.8"/><rect class="q" x="602.88" y="236.45" width="4.8" height="4.8"/><rect class="q" x="612.49" y="236.45" width="4.8" height="4.8"/><rect class="q" x="617.29" y="236.45" width="4.8" height="4.8"/><rect class="q" x="535.37" y="231.65" width="4.8" height="4.8"/><rect class="q" x="544.97" y="231.65" width="4.8" height="4.8"/><rect class="q" x="549.77" y="231.65" width="4.8" height="4.8"/><rect class="q" x="554.58" y="231.65" width="4.8" height="4.8"/><rect class="q" x="559.38" y="231.65" width="4.8" height="4.8"/><rect class="q" x="568.98" y="231.65" width="4.8" height="4.8"/><rect class="q" x="573.78" y="231.65" width="4.8" height="4.8"/><rect class="q" x="578.59" y="231.65" width="4.8" height="4.8"/><rect class="q" x="583.39" y="231.65" width="4.8" height="4.8"/><rect class="q" x="588.19" y="231.65" width="4.8" height="4.8"/><rect class="q" x="592.99" y="231.65" width="5.09" height="4.8"/><rect class="q" x="617.29" y="231.65" width="4.8" height="4.8"/><rect class="q" x="622.09" y="231.65" width="4.8" height="4.8"/><rect class="q" x="631.7" y="231.65" width="5.09" height="4.8"/><rect class="q" x="530.57" y="231.65" width="4.8" height="4.8"/><rect class="q" x="535.37" y="226.85" width="4.8" height="4.8"/><rect class="q" x="540.17" y="226.85" width="4.8" height="4.8"/><rect class="q" x="544.97" y="226.85" width="4.8" height="4.8"/><rect class="q" x="564.18" y="226.85" width="4.8" height="4.8"/><rect class="q" x="568.98" y="226.85" width="4.8" height="4.8"/><rect class="q" x="588.19" y="226.85" width="4.8" height="4.8"/><rect class="q" x="602.88" y="226.85" width="4.8" height="4.8"/><rect class="q" x="607.68" y="226.85" width="4.8" height="4.8"/><rect class="q" x="617.29" y="226.85" width="4.8" height="4.8"/><rect class="q" x="622.09" y="226.85" width="4.8" height="4.8"/><rect class="q" x="626.89" y="226.85" width="4.8" height="4.8"/><rect class="q" x="631.7" y="226.85" width="5.09" height="4.8"/><rect class="q" x="530.57" y="226.85" width="4.8" height="4.8"/><rect class="q" x="544.97" y="222.04" width="4.8" height="4.8"/><rect class="q" x="549.77" y="222.04" width="4.8" height="4.8"/><rect class="q" x="554.58" y="222.04" width="4.8" height="4.8"/><rect class="q" x="559.38" y="222.04" width="4.8" height="4.8"/><rect class="q" x="564.18" y="222.04" width="4.8" height="4.8"/><rect class="q" x="568.98" y="222.04" width="4.8" height="4.8"/><rect class="q" x="583.39" y="222.04" width="4.8" height="4.8"/><rect class="q" x="598.08" y="222.04" width="4.8" height="4.8"/><rect class="q" x="602.88" y="222.04" width="4.8" height="4.8"/><rect class="q" x="622.09" y="222.04" width="4.8" height="4.8"/><rect class="q" x="530.57" y="222.04" width="4.8" height="4.8"/><rect class="q" x="535.37" y="217.24" width="4.8" height="4.8"/><rect class="q" x="540.17" y="217.24" width="4.8" height="4.8"/><rect class="q" x="544.97" y="217.24" width="4.8" height="4.8"/><rect class="q" x="549.77" y="217.24" width="4.8" height="4.8"/><rect class="q" x="559.38" y="217.24" width="4.8" height="4.8"/><rect class="q" x="568.98" y="217.24" width="4.8" height="4.8"/><rect class="q" x="573.78" y="217.24" width="4.8" height="4.8"/><rect class="q" x="583.39" y="217.24" width="4.8" height="4.8"/><rect class="q" x="588.19" y="217.24" width="4.8" height="4.8"/><rect class="q" x="592.99" y="217.24" width="5.09" height="4.8"/><rect class="q" x="598.08" y="217.24" width="4.8" height="4.8"/><rect class="q" x="607.68" y="217.24" width="4.8" height="4.8"/><rect class="q" x="612.49" y="217.24" width="4.8" height="4.8"/><rect class="q" x="617.29" y="217.24" width="4.8" height="4.8"/><rect class="q" x="622.09" y="217.24" width="4.8" height="4.8"/><rect class="q" x="631.7" y="217.24" width="5.09" height="4.8"/><rect class="q" x="535.37" y="212.44" width="4.8" height="4.8"/><rect class="q" x="544.97" y="212.44" width="4.8" height="4.8"/><rect class="q" x="554.58" y="212.44" width="4.8" height="4.8"/><rect class="q" x="559.38" y="212.44" width="4.8" height="4.8"/><rect class="q" x="573.78" y="212.44" width="4.8" height="4.8"/><rect class="q" x="578.59" y="212.44" width="4.8" height="4.8"/><rect class="q" x="583.39" y="212.44" width="4.8" height="4.8"/><rect class="q" x="592.99" y="212.44" width="5.09" height="4.8"/><rect class="q" x="598.08" y="212.44" width="4.8" height="4.8"/><rect class="q" x="602.88" y="212.44" width="4.8" height="4.8"/><rect class="q" x="612.49" y="212.44" width="4.8" height="4.8"/><rect class="q" x="622.09" y="212.44" width="4.8" height="4.8"/><rect class="q" x="626.89" y="212.44" width="4.8" height="4.8"/><rect class="q" x="631.7" y="212.44" width="5.09" height="4.8"/><rect class="q" x="530.57" y="212.44" width="4.8" height="4.8"/><rect class="q" x="535.37" y="207.64" width="4.8" height="4.8"/><rect class="q" x="554.58" y="207.64" width="4.8" height="4.8"/><rect class="q" x="559.38" y="207.64" width="4.8" height="4.8"/><rect class="q" x="568.98" y="207.64" width="4.8" height="4.8"/><rect class="q" x="573.78" y="207.64" width="4.8" height="4.8"/><rect class="q" x="583.39" y="207.64" width="4.8" height="4.8"/><rect class="q" x="588.19" y="207.64" width="4.8" height="4.8"/><rect class="q" x="598.08" y="207.64" width="4.8" height="4.8"/><rect class="q" x="602.88" y="207.64" width="4.8" height="4.8"/><rect class="q" x="607.68" y="207.64" width="4.8" height="4.8"/><rect class="q" x="612.49" y="207.64" width="4.8" height="4.8"/><rect class="q" x="617.29" y="207.64" width="4.8" height="4.8"/><rect class="q" x="622.09" y="207.64" width="4.8" height="4.8"/><rect class="q" x="530.57" y="207.64" width="4.8" height="4.8"/><rect class="q" x="568.98" y="202.84" width="4.8" height="4.8"/><rect class="q" x="578.59" y="202.84" width="4.8" height="4.8"/><rect class="q" x="583.39" y="202.84" width="4.8" height="4.8"/><rect class="q" x="592.99" y="202.84" width="5.09" height="4.8"/><rect class="q" x="598.08" y="202.84" width="4.8" height="4.8"/><rect class="q" x="602.88" y="202.84" width="4.8" height="4.8"/><rect class="q" x="535.37" y="198.03" width="4.8" height="4.8"/><rect class="q" x="540.17" y="198.03" width="4.8" height="4.8"/><rect class="q" x="544.97" y="198.03" width="4.8" height="4.8"/><rect class="q" x="549.77" y="198.03" width="4.8" height="4.8"/><rect class="q" x="554.58" y="198.03" width="4.8" height="4.8"/><rect class="q" x="564.18" y="198.03" width="4.8" height="4.8"/><rect class="q" x="568.98" y="198.03" width="4.8" height="4.8"/><rect class="q" x="583.39" y="198.03" width="4.8" height="4.8"/><rect class="q" x="602.88" y="198.03" width="4.8" height="4.8"/><rect class="q" x="607.68" y="198.03" width="4.8" height="4.8"/><rect class="q" x="617.29" y="198.03" width="4.8" height="4.8"/><rect class="q" x="631.7" y="198.03" width="5.09" height="4.8"/><rect class="q" x="530.57" y="198.03" width="4.8" height="4.8"/><rect class="q" x="554.58" y="193.23" width="4.8" height="4.8"/><rect class="q" x="592.99" y="193.23" width="5.09" height="4.8"/><rect class="q" x="598.08" y="193.23" width="4.8" height="4.8"/><rect class="q" x="607.68" y="193.23" width="4.8" height="4.8"/><rect class="q" x="612.49" y="193.23" width="4.8" height="4.8"/><rect class="q" x="622.09" y="193.23" width="4.8" height="4.8"/><rect class="q" x="626.89" y="193.23" width="4.8" height="4.8"/><rect class="q" x="631.7" y="193.23" width="5.09" height="4.8"/><rect class="q" x="530.57" y="193.23" width="4.8" height="4.8"/><rect class="q" x="540.17" y="188.43" width="4.8" height="4.8"/><rect class="q" x="544.97" y="188.43" width="4.8" height="4.8"/><rect class="q" x="554.58" y="188.43" width="4.8" height="4.8"/><rect class="q" x="564.18" y="188.43" width="4.8" height="4.8"/><rect class="q" x="568.98" y="188.43" width="4.8" height="4.8"/><rect class="q" x="578.59" y="188.43" width="4.8" height="4.8"/><rect class="q" x="583.39" y="188.43" width="4.8" height="4.8"/><rect class="q" x="592.99" y="188.43" width="5.09" height="4.8"/><rect class="q" x="612.49" y="188.43" width="4.8" height="4.8"/><rect class="q" x="617.29" y="188.43" width="4.8" height="4.8"/><rect class="q" x="622.09" y="188.43" width="4.8" height="4.8"/><rect class="q" x="530.57" y="188.43" width="4.8" height="4.8"/><rect class="q" x="540.17" y="183.63" width="4.8" height="4.8"/><rect class="q" x="544.97" y="183.63" width="4.8" height="4.8"/><rect class="q" x="554.58" y="183.63" width="4.8" height="4.8"/><rect class="q" x="564.18" y="183.63" width="4.8" height="4.8"/><rect class="q" x="573.78" y="183.63" width="4.8" height="4.8"/><rect class="q" x="578.59" y="183.63" width="4.8" height="4.8"/><rect class="q" x="583.39" y="183.63" width="4.8" height="4.8"/><rect class="q" x="588.19" y="183.63" width="4.8" height="4.8"/><rect class="q" x="592.99" y="183.63" width="5.09" height="4.8"/><rect class="q" x="602.88" y="183.63" width="4.8" height="4.8"/><rect class="q" x="607.68" y="183.63" width="4.8" height="4.8"/><rect class="q" x="612.49" y="183.63" width="4.8" height="4.8"/><rect class="q" x="622.09" y="183.63" width="4.8" height="4.8"/><rect class="q" x="626.89" y="183.63" width="4.8" height="4.8"/><rect class="q" x="631.7" y="183.63" width="5.09" height="4.8"/><rect class="q" x="530.57" y="183.63" width="4.8" height="4.8"/><rect class="q" x="554.58" y="178.83" width="4.8" height="4.8"/><rect class="q" x="573.78" y="178.83" width="4.8" height="4.8"/><rect class="q" x="578.59" y="178.83" width="4.8" height="4.8"/><rect class="q" x="588.19" y="178.83" width="4.8" height="4.8"/><rect class="q" x="592.99" y="178.83" width="5.09" height="4.8"/><rect class="q" x="598.08" y="178.83" width="4.8" height="4.8"/><rect class="q" x="602.88" y="178.83" width="4.8" height="4.8"/><rect class="q" x="626.89" y="178.83" width="4.8" height="4.8"/><rect class="q" x="530.57" y="178.83" width="4.8" height="4.8"/><rect class="q" x="535.37" y="174.02" width="4.8" height="4.8"/><rect class="q" x="540.17" y="174.02" width="4.8" height="4.8"/><rect class="q" x="544.97" y="174.02" width="4.8" height="4.8"/><rect class="q" x="549.77" y="174.02" width="4.8" height="4.8"/><rect class="q" x="554.58" y="174.02" width="4.8" height="4.8"/><rect class="q" x="564.18" y="174.02" width="4.8" height="4.8"/><rect class="q" x="568.98" y="174.02" width="4.8" height="4.8"/><rect class="q" x="592.99" y="174.02" width="5.09" height="4.8"/><rect class="q" x="602.88" y="174.02" width="4.8" height="4.8"/><rect class="q" x="612.49" y="174.02" width="4.8" height="4.8"/><rect class="q" x="617.29" y="174.02" width="4.8" height="4.8"/><rect class="q" x="631.7" y="174.02" width="5.09" height="4.8"/><rect class="q" x="530.57" y="174.02" width="4.8" height="4.8"/><g class="r"><path class="e" d="M514.52,183.48a1.7,1.7,0,0,1-1.71-1.71V158.48a1.71,1.71,0,0,1,1.71-1.71H538a1.71,1.71,0,1,1,0,3.42H516.22v21.58A1.7,1.7,0,0,1,514.52,183.48Z"/><path class="e" d="M652.83,183.58a1.71,1.71,0,0,1-1.71-1.7v-21.8H629.54a1.71,1.71,0,1,1,0-3.41h23.29a1.71,1.71,0,0,1,1.71,1.71v23.5A1.71,1.71,0,0,1,652.83,183.58Z"/></g><g class="r"><path class="e" d="M652.83,300.63h-23.5a1.71,1.71,0,0,1,0-3.42h21.79V275.63a1.71,1.71,0,1,1,3.42,0v23.29A1.72,1.72,0,0,1,652.83,300.63Z"/><path class="e" d="M537.81,300.73H514.52a1.7,1.7,0,0,1-1.71-1.71v-23.5a1.71,1.71,0,0,1,3.41,0v21.8h21.59a1.71,1.71,0,0,1,0,3.41Z"/></g><circle class="s" cx="171.62" cy="295.42" r="158.77"/><polygon class="f" points="106.42 93.44 0.7 221.7 157.16 406.35 261.46 283.72 106.42 93.44"/><polygon class="t" points="106.42 93.44 0.7 221.7 157.16 406.35 261.46 283.72 106.42 93.44"/><path class="u" d="M4.93,223.11h0a53.27,53.27,0,0,1,8.62-11.51l97.1-98.43s33.82-5.64,40.87,11.28l-124,101.48Z"/><path class="f" d="M0,221,143.77,440.88s14.09,9.87,28.19,4.23l147.29-99.37L162.8,108.94l-141,109.94Z"/><rect class="v" x="45.23" y="175.46" width="111.09" height="2.28" transform="translate(-84.11 92) rotate(-35.7)"/><rect class="v" x="110.91" y="215.17" width="2.28" height="214.62" transform="translate(-159.31 115.33) rotate(-33.48)"/><rect class="v" x="173.79" y="381.24" width="118.97" height="2.28" transform="translate(-181.24 212.63) rotate(-36.34)"/><rect class="v" x="221.56" y="127.76" width="2.28" height="214.66" transform="translate(-94.38 169.36) rotate(-34.84)"/><rect class="v" x="-6.54" y="162.77" width="151.39" height="1.41" transform="translate(-92.33 89.8) rotate(-42.54)"/><rect class="v" x="-1.82" y="163.93" width="155.49" height="1.41" transform="translate(-89.95 91.46) rotate(-41.44)"/><rect class="v" x="2.21" y="164.97" width="157.53" height="1.41" transform="translate(-87.3 90.26) rotate(-39.81)"/><g class="p"><rect class="e" x="148.85" y="268.62" width="71.63" height="72.45" transform="translate(-139.54 156.78) rotate(-34.25)"/></g><rect class="q" x="177.67" y="343.57" width="2.85" height="2.88" transform="translate(-163.11 160.61) rotate(-34.25)"/><rect class="q" x="180.02" y="341.96" width="2.85" height="2.88" transform="translate(-161.8 161.66) rotate(-34.25)"/><rect class="q" x="182.37" y="340.36" width="2.85" height="2.88" transform="translate(-160.49 162.7) rotate(-34.25)"/><rect class="q" x="184.73" y="338.76" width="2.85" height="2.88" transform="translate(-159.18 163.75) rotate(-34.25)"/><rect class="q" x="187.08" y="337.16" width="2.85" height="2.88" transform="translate(-157.87 164.79) rotate(-34.25)"/><rect class="q" x="191.79" y="333.95" width="2.85" height="2.88" transform="translate(-155.25 166.89) rotate(-34.25)"/><rect class="q" x="194.14" y="332.35" width="2.85" height="2.88" transform="translate(-153.94 167.93) rotate(-34.25)"/><rect class="q" x="201.2" y="327.55" width="2.85" height="2.88" transform="translate(-150.01 171.07) rotate(-34.25)"/><rect class="q" x="205.89" y="324.3" width="3.02" height="2.88" transform="translate(-147.35 173.2) rotate(-34.25)"/><rect class="q" x="208.4" y="322.65" width="2.85" height="2.88" transform="translate(-146.01 174.27) rotate(-34.25)"/><rect class="q" x="213.1" y="319.44" width="2.85" height="2.88" transform="translate(-143.39 176.37) rotate(-34.25)"/><rect class="q" x="215.46" y="317.84" width="2.85" height="2.88" transform="translate(-142.08 177.41) rotate(-34.25)"/><rect class="q" x="217.81" y="316.24" width="2.85" height="2.88" transform="translate(-140.77 178.46) rotate(-34.25)"/><rect class="q" x="220.16" y="314.64" width="2.85" height="2.88" transform="translate(-139.46 179.51) rotate(-34.25)"/><rect class="q" x="222.51" y="313.03" width="2.85" height="2.88" transform="translate(-138.15 180.55) rotate(-34.25)"/><rect class="q" x="224.85" y="311.38" width="3.01" height="2.88" transform="translate(-136.8 181.63) rotate(-34.25)"/><rect class="q" x="175.31" y="345.17" width="2.85" height="2.88" transform="translate(-164.42 159.56) rotate(-34.25)"/><rect class="q" x="185.46" y="334.78" width="2.85" height="2.88" transform="translate(-156.81 163.47) rotate(-34.25)"/><rect class="q" x="192.52" y="329.97" width="2.85" height="2.88" transform="translate(-152.88 166.61) rotate(-34.25)"/><rect class="q" x="197.22" y="326.77" width="2.85" height="2.88" transform="translate(-150.26 168.7) rotate(-34.25)"/><rect class="q" x="199.58" y="325.17" width="2.85" height="2.88" transform="translate(-148.95 169.75) rotate(-34.25)"/><rect class="q" x="201.93" y="323.56" width="2.85" height="2.88" transform="translate(-147.64 170.8) rotate(-34.25)"/><rect class="q" x="204.27" y="321.92" width="3.02" height="2.88" transform="translate(-146.3 171.87) rotate(-34.25)"/><rect class="q" x="211.48" y="317.06" width="2.85" height="2.88" transform="translate(-142.33 175.04) rotate(-34.25)"/><rect class="q" x="223.23" y="309" width="3.01" height="2.88" transform="translate(-135.74 180.31) rotate(-34.25)"/><rect class="q" x="173.69" y="342.79" width="2.85" height="2.88" transform="translate(-163.36 158.24) rotate(-34.25)"/><rect class="q" x="176.78" y="337.2" width="2.85" height="2.88" transform="translate(-159.68 159.01) rotate(-34.25)"/><rect class="q" x="179.13" y="335.6" width="2.85" height="2.88" transform="translate(-158.37 160.05) rotate(-34.25)"/><rect class="q" x="183.84" y="332.4" width="2.85" height="2.88" transform="translate(-155.75 162.15) rotate(-34.25)"/><rect class="q" x="188.55" y="329.19" width="2.85" height="2.88" transform="translate(-153.13 164.24) rotate(-34.25)"/><rect class="q" x="190.9" y="327.59" width="2.85" height="2.88" transform="translate(-151.82 165.29) rotate(-34.25)"/><rect class="q" x="193.25" y="325.99" width="2.85" height="2.88" transform="translate(-150.51 166.33) rotate(-34.25)"/><rect class="q" x="197.96" y="322.79" width="2.85" height="2.88" transform="translate(-147.9 168.42) rotate(-34.25)"/><rect class="q" x="200.31" y="321.18" width="2.85" height="2.88" transform="translate(-146.59 169.47) rotate(-34.25)"/><rect class="q" x="202.65" y="319.54" width="3.02" height="2.88" transform="translate(-145.24 170.55) rotate(-34.25)"/><rect class="q" x="205.16" y="317.89" width="2.85" height="2.88" transform="translate(-143.89 171.63) rotate(-34.25)"/><rect class="q" x="209.86" y="314.68" width="2.85" height="2.88" transform="translate(-141.27 173.72) rotate(-34.25)"/><rect class="q" x="214.57" y="311.48" width="2.85" height="2.88" transform="translate(-138.65 175.81) rotate(-34.25)"/><rect class="q" x="216.92" y="309.88" width="2.85" height="2.88" transform="translate(-137.34 176.86) rotate(-34.25)"/><rect class="q" x="221.61" y="306.62" width="3.01" height="2.88" transform="translate(-134.68 178.98) rotate(-34.25)"/><rect class="q" x="172.07" y="340.41" width="2.85" height="2.88" transform="translate(-162.3 156.91) rotate(-34.25)"/><rect class="q" x="175.16" y="334.82" width="2.85" height="2.88" transform="translate(-158.62 157.68) rotate(-34.25)"/><rect class="q" x="177.51" y="333.22" width="2.85" height="2.88" transform="translate(-157.31 158.73) rotate(-34.25)"/><rect class="q" x="182.22" y="330.02" width="2.85" height="2.88" transform="translate(-154.69 160.82) rotate(-34.25)"/><rect class="q" x="186.93" y="326.81" width="2.85" height="2.88" transform="translate(-152.08 162.91) rotate(-34.25)"/><rect class="q" x="191.63" y="323.61" width="2.85" height="2.88" transform="translate(-149.46 165.01) rotate(-34.25)"/><rect class="q" x="196.34" y="320.41" width="2.85" height="2.88" transform="translate(-146.84 167.1) rotate(-34.25)"/><rect class="q" x="208.24" y="312.3" width="2.85" height="2.88" transform="translate(-140.21 172.39) rotate(-34.25)"/><rect class="q" x="212.95" y="309.1" width="2.85" height="2.88" transform="translate(-137.59 174.49) rotate(-34.25)"/><rect class="q" x="215.3" y="307.5" width="2.85" height="2.88" transform="translate(-136.28 175.53) rotate(-34.25)"/><rect class="q" x="219.99" y="304.24" width="3.01" height="2.88" transform="translate(-133.63 177.66) rotate(-34.25)"/><rect class="q" x="170.45" y="338.03" width="2.85" height="2.88" transform="translate(-161.24 155.59) rotate(-34.25)"/><rect class="q" x="180.6" y="327.64" width="2.85" height="2.88" transform="translate(-153.64 159.5) rotate(-34.25)"/><rect class="q" x="185.3" y="324.43" width="2.85" height="2.88" transform="translate(-151.02 161.59) rotate(-34.25)"/><rect class="q" x="187.66" y="322.83" width="2.85" height="2.88" transform="translate(-149.71 162.64) rotate(-34.25)"/><rect class="q" x="190.01" y="321.23" width="2.85" height="2.88" transform="translate(-148.4 163.68) rotate(-34.25)"/><rect class="q" x="194.72" y="318.03" width="2.85" height="2.88" transform="translate(-145.78 165.78) rotate(-34.25)"/><rect class="q" x="197.07" y="316.42" width="2.85" height="2.88" transform="translate(-144.47 166.82) rotate(-34.25)"/><rect class="q" x="201.92" y="313.13" width="2.85" height="2.88" transform="translate(-141.77 168.98) rotate(-34.25)"/><rect class="q" x="206.62" y="309.92" width="2.85" height="2.88" transform="translate(-139.15 171.07) rotate(-34.25)"/><rect class="q" x="218.37" y="301.86" width="3.01" height="2.88" transform="matrix(0.83, -0.56, 0.56, 0.83, -132.57, 176.33)"/><rect class="q" x="168.83" y="335.65" width="2.85" height="2.88" transform="translate(-160.18 154.26) rotate(-34.25)"/><rect class="q" x="169.57" y="331.67" width="2.85" height="2.88" transform="translate(-157.82 153.99) rotate(-34.25)"/><rect class="q" x="171.92" y="330.06" width="2.85" height="2.88" transform="translate(-156.51 155.03) rotate(-34.25)"/><rect class="q" x="174.27" y="328.46" width="2.85" height="2.88" transform="translate(-155.2 156.08) rotate(-34.25)"/><rect class="q" x="176.63" y="326.86" width="2.85" height="2.88" transform="translate(-153.89 157.13) rotate(-34.25)"/><rect class="q" x="178.98" y="325.26" width="2.85" height="2.88" transform="translate(-152.58 158.17) rotate(-34.25)"/><rect class="q" x="183.68" y="322.05" width="2.85" height="2.88" transform="translate(-149.96 160.26) rotate(-34.25)"/><rect class="q" x="188.39" y="318.85" width="2.85" height="2.88" transform="translate(-147.34 162.36) rotate(-34.25)"/><rect class="q" x="190.74" y="317.25" width="2.85" height="2.88" transform="translate(-146.03 163.4) rotate(-34.25)"/><rect class="q" x="195.45" y="314.04" width="2.85" height="2.88" transform="translate(-143.41 165.5) rotate(-34.25)"/><rect class="q" x="205" y="307.54" width="2.85" height="2.88" transform="translate(-138.1 169.74) rotate(-34.25)"/><rect class="q" x="207.35" y="305.94" width="2.85" height="2.88" transform="translate(-136.79 170.79) rotate(-34.25)"/><rect class="q" x="209.71" y="304.34" width="2.85" height="2.88" transform="translate(-135.48 171.84) rotate(-34.25)"/><rect class="q" x="212.06" y="302.74" width="2.85" height="2.88" transform="translate(-134.17 172.88) rotate(-34.25)"/><rect class="q" x="214.41" y="301.13" width="2.85" height="2.88" transform="translate(-132.86 173.93) rotate(-34.25)"/><rect class="q" x="216.75" y="299.48" width="3.01" height="2.88" transform="translate(-131.51 175.01) rotate(-34.25)"/><rect class="q" x="167.21" y="333.27" width="2.85" height="2.88" transform="translate(-159.13 152.94) rotate(-34.25)"/><rect class="q" x="189.12" y="314.87" width="2.85" height="2.88" transform="translate(-144.97 162.08) rotate(-34.25)"/><rect class="q" x="191.48" y="313.27" width="2.85" height="2.88" transform="translate(-143.66 163.13) rotate(-34.25)"/><rect class="q" x="193.83" y="311.66" width="2.85" height="2.88" transform="translate(-142.35 164.17) rotate(-34.25)"/><rect class="q" x="198.67" y="308.37" width="2.85" height="2.88" transform="translate(-139.66 166.33) rotate(-34.25)"/><rect class="q" x="166.33" y="326.91" width="2.85" height="2.88" transform="translate(-155.7 151.34) rotate(-34.25)"/><rect class="q" x="168.68" y="325.3" width="2.85" height="2.88" transform="translate(-154.39 152.38) rotate(-34.25)"/><rect class="q" x="171.03" y="323.7" width="2.85" height="2.88" transform="translate(-153.08 153.43) rotate(-34.25)"/><rect class="q" x="173.38" y="322.1" width="2.85" height="2.88" transform="translate(-151.77 154.48) rotate(-34.25)"/><rect class="q" x="180.44" y="317.29" width="2.85" height="2.88" transform="translate(-147.84 157.62) rotate(-34.25)"/><rect class="q" x="182.8" y="315.69" width="2.85" height="2.88" transform="translate(-146.53 158.66) rotate(-34.25)"/><rect class="q" x="185.15" y="314.09" width="2.85" height="2.88" transform="translate(-145.22 159.71) rotate(-34.25)"/><rect class="q" x="189.86" y="310.89" width="2.85" height="2.88" transform="translate(-142.6 161.8) rotate(-34.25)"/><rect class="q" x="192.21" y="309.28" width="2.85" height="2.88" transform="translate(-141.29 162.85) rotate(-34.25)"/><rect class="q" x="194.55" y="307.64" width="3.02" height="2.88" transform="translate(-139.95 163.93) rotate(-34.25)"/><rect class="q" x="197.05" y="305.99" width="2.85" height="2.88" transform="translate(-138.6 165) rotate(-34.25)"/><rect class="q" x="199.41" y="304.38" width="2.85" height="2.88" transform="translate(-137.29 166.05) rotate(-34.25)"/><rect class="q" x="201.76" y="302.78" width="2.85" height="2.88" transform="translate(-135.98 167.1) rotate(-34.25)"/><rect class="q" x="204.11" y="301.18" width="2.85" height="2.88" transform="translate(-134.67 168.14) rotate(-34.25)"/><rect class="q" x="206.47" y="299.58" width="2.85" height="2.88" transform="translate(-133.36 169.19) rotate(-34.25)"/><rect class="q" x="211.17" y="296.37" width="2.85" height="2.88" transform="translate(-130.74 171.28) rotate(-34.25)"/><rect class="q" x="213.51" y="294.72" width="3.01" height="2.88" transform="translate(-129.39 172.36) rotate(-34.25)"/><rect class="q" x="167.06" y="322.92" width="2.85" height="2.88" transform="translate(-153.33 151.06) rotate(-34.25)"/><rect class="q" x="169.41" y="321.32" width="2.85" height="2.88" transform="translate(-152.02 152.11) rotate(-34.25)"/><rect class="q" x="176.47" y="316.52" width="2.85" height="2.88" transform="translate(-148.09 155.24) rotate(-34.25)"/><rect class="q" x="178.82" y="314.91" width="2.85" height="2.88" transform="translate(-146.78 156.29) rotate(-34.25)"/><rect class="q" x="183.53" y="311.71" width="2.85" height="2.88" transform="translate(-144.16 158.38) rotate(-34.25)"/><rect class="q" x="190.59" y="306.9" width="2.85" height="2.88" transform="translate(-140.24 161.52) rotate(-34.25)"/><rect class="q" x="195.43" y="303.61" width="2.85" height="2.88" transform="translate(-137.54 163.68) rotate(-34.25)"/><rect class="q" x="197.79" y="302" width="2.85" height="2.88" transform="translate(-136.23 164.72) rotate(-34.25)"/><rect class="q" x="202.49" y="298.8" width="2.85" height="2.88" transform="translate(-133.61 166.82) rotate(-34.25)"/><rect class="q" x="204.85" y="297.2" width="2.85" height="2.88" transform="translate(-132.3 167.86) rotate(-34.25)"/><rect class="q" x="163.08" y="322.15" width="2.85" height="2.88" transform="translate(-153.58 148.69) rotate(-34.25)"/><rect class="q" x="167.79" y="318.94" width="2.85" height="2.88" transform="translate(-150.96 150.78) rotate(-34.25)"/><rect class="q" x="170.14" y="317.34" width="2.85" height="2.88" transform="translate(-149.65 151.83) rotate(-34.25)"/><rect class="q" x="172.5" y="315.74" width="2.85" height="2.88" transform="translate(-148.34 152.87) rotate(-34.25)"/><rect class="q" x="174.85" y="314.14" width="2.85" height="2.88" transform="translate(-147.03 153.92) rotate(-34.25)"/><rect class="q" x="179.56" y="310.93" width="2.85" height="2.88" transform="translate(-144.42 156.01) rotate(-34.25)"/><rect class="q" x="181.91" y="309.33" width="2.85" height="2.88" transform="translate(-143.11 157.06) rotate(-34.25)"/><rect class="q" x="184.26" y="307.73" width="2.85" height="2.88" transform="translate(-141.8 158.11) rotate(-34.25)"/><rect class="q" x="186.62" y="306.13" width="2.85" height="2.88" transform="translate(-140.49 159.15) rotate(-34.25)"/><rect class="q" x="188.97" y="304.52" width="2.85" height="2.88" transform="translate(-139.18 160.2) rotate(-34.25)"/><rect class="q" x="191.31" y="302.88" width="3.02" height="2.88" transform="translate(-137.83 161.28) rotate(-34.25)"/><rect class="q" x="203.23" y="294.82" width="2.85" height="2.88" transform="translate(-131.24 166.54) rotate(-34.25)"/><rect class="q" x="205.58" y="293.22" width="2.85" height="2.88" transform="translate(-129.93 167.59) rotate(-34.25)"/><rect class="q" x="210.27" y="289.96" width="3.01" height="2.88" transform="translate(-127.27 169.71) rotate(-34.25)"/><rect class="q" x="160.73" y="323.75" width="2.85" height="2.88" transform="translate(-154.89 147.64) rotate(-34.25)"/><rect class="q" x="161.46" y="319.77" width="2.85" height="2.88" transform="translate(-152.52 147.36) rotate(-34.25)"/><rect class="q" x="163.82" y="318.16" width="2.85" height="2.88" transform="translate(-151.21 148.41) rotate(-34.25)"/><rect class="q" x="166.17" y="316.56" width="2.85" height="2.88" transform="translate(-149.9 149.46) rotate(-34.25)"/><rect class="q" x="175.58" y="310.15" width="2.85" height="2.88" transform="translate(-144.67 153.64) rotate(-34.25)"/><rect class="q" x="177.94" y="308.55" width="2.85" height="2.88" transform="translate(-143.36 154.69) rotate(-34.25)"/><rect class="q" x="187.35" y="302.14" width="2.85" height="2.88" transform="translate(-138.12 158.87) rotate(-34.25)"/><rect class="q" x="194.55" y="297.24" width="2.85" height="2.88" transform="translate(-134.11 162.08) rotate(-34.25)"/><rect class="q" x="196.9" y="295.64" width="2.85" height="2.88" transform="translate(-132.8 163.12) rotate(-34.25)"/><rect class="q" x="201.61" y="292.44" width="2.85" height="2.88" transform="translate(-130.18 165.22) rotate(-34.25)"/><rect class="q" x="203.96" y="290.84" width="2.85" height="2.88" transform="translate(-128.87 166.26) rotate(-34.25)"/><rect class="q" x="206.31" y="289.23" width="2.85" height="2.88" transform="translate(-127.56 167.31) rotate(-34.25)"/><rect class="q" x="208.65" y="287.58" width="3.01" height="2.88" transform="translate(-126.22 168.39) rotate(-34.25)"/><rect class="q" x="159.11" y="321.37" width="2.85" height="2.88" transform="translate(-153.83 146.32) rotate(-34.25)"/><rect class="q" x="164.55" y="314.18" width="2.85" height="2.88" transform="translate(-148.85 148.13) rotate(-34.25)"/><rect class="q" x="166.9" y="312.58" width="2.85" height="2.88" transform="translate(-147.54 149.18) rotate(-34.25)"/><rect class="q" x="169.26" y="310.98" width="2.85" height="2.88" transform="translate(-146.23 150.22) rotate(-34.25)"/><rect class="q" x="171.61" y="309.38" width="2.85" height="2.88" transform="translate(-144.92 151.27) rotate(-34.25)"/><rect class="q" x="173.96" y="307.77" width="2.85" height="2.88" transform="translate(-143.61 152.32) rotate(-34.25)"/><rect class="q" x="176.32" y="306.17" width="2.85" height="2.88" transform="translate(-142.3 153.36) rotate(-34.25)"/><rect class="q" x="183.37" y="301.37" width="2.85" height="2.88" transform="translate(-138.37 156.5) rotate(-34.25)"/><rect class="q" x="190.57" y="296.47" width="2.85" height="2.88" transform="translate(-134.36 159.7) rotate(-34.25)"/><rect class="q" x="192.93" y="294.86" width="2.85" height="2.88" transform="translate(-133.05 160.75) rotate(-34.25)"/><rect class="q" x="202.34" y="288.46" width="2.85" height="2.88" transform="translate(-127.82 164.94) rotate(-34.25)"/><rect class="q" x="157.49" y="318.99" width="2.85" height="2.88" transform="translate(-152.77 144.99) rotate(-34.25)"/><rect class="q" x="158.22" y="315.01" width="2.85" height="2.88" transform="translate(-150.41 144.71) rotate(-34.25)"/><rect class="q" x="160.58" y="313.4" width="2.85" height="2.88" transform="translate(-149.1 145.76) rotate(-34.25)"/><rect class="q" x="162.93" y="311.8" width="2.85" height="2.88" transform="translate(-147.79 146.81) rotate(-34.25)"/><rect class="q" x="165.28" y="310.2" width="2.85" height="2.88" transform="translate(-146.48 147.85) rotate(-34.25)"/><rect class="q" x="169.99" y="307" width="2.85" height="2.88" transform="translate(-143.86 149.95) rotate(-34.25)"/><rect class="q" x="174.7" y="303.79" width="2.85" height="2.88" transform="translate(-141.24 152.04) rotate(-34.25)"/><rect class="q" x="177.05" y="302.19" width="2.85" height="2.88" transform="translate(-139.93 153.09) rotate(-34.25)"/><rect class="q" x="181.75" y="298.99" width="2.85" height="2.88" transform="translate(-137.31 155.18) rotate(-34.25)"/><rect class="q" x="184.11" y="297.38" width="2.85" height="2.88" transform="translate(-136 156.23) rotate(-34.25)"/><rect class="q" x="186.45" y="295.74" width="3.02" height="2.88" transform="translate(-134.65 157.3) rotate(-34.25)"/><rect class="q" x="188.95" y="294.09" width="2.85" height="2.88" transform="translate(-133.31 158.38) rotate(-34.25)"/><rect class="q" x="193.66" y="290.88" width="2.85" height="2.88" transform="translate(-130.69 160.47) rotate(-34.25)"/><rect class="q" x="196.01" y="289.28" width="2.85" height="2.88" transform="translate(-129.38 161.52) rotate(-34.25)"/><rect class="q" x="198.36" y="287.68" width="2.85" height="2.88" transform="translate(-128.07 162.57) rotate(-34.25)"/><rect class="q" x="200.72" y="286.08" width="2.85" height="2.88" transform="translate(-126.76 163.61) rotate(-34.25)"/><rect class="q" x="205.41" y="282.82" width="3.01" height="2.88" transform="translate(-124.1 165.74) rotate(-34.25)"/><rect class="q" x="156.6" y="312.63" width="2.85" height="2.88" transform="translate(-149.35 143.39) rotate(-34.25)"/><rect class="q" x="161.31" y="309.42" width="2.85" height="2.88" transform="translate(-146.73 145.48) rotate(-34.25)"/><rect class="q" x="166.02" y="306.22" width="2.85" height="2.88" transform="translate(-144.11 147.58) rotate(-34.25)"/><rect class="q" x="168.37" y="304.62" width="2.85" height="2.88" transform="translate(-142.8 148.62) rotate(-34.25)"/><rect class="q" x="175.43" y="299.81" width="2.85" height="2.88" transform="translate(-138.87 151.76) rotate(-34.25)"/><rect class="q" x="177.78" y="298.21" width="2.85" height="2.88" transform="translate(-137.56 152.81) rotate(-34.25)"/><rect class="q" x="180.13" y="296.61" width="2.85" height="2.88" transform="translate(-136.25 153.85) rotate(-34.25)"/><rect class="q" x="184.83" y="293.36" width="3.02" height="2.88" transform="translate(-133.6 155.98) rotate(-34.25)"/><rect class="q" x="187.33" y="291.71" width="2.85" height="2.88" transform="translate(-132.25 157.06) rotate(-34.25)"/><rect class="q" x="189.68" y="290.1" width="2.85" height="2.88" transform="translate(-130.94 158.1) rotate(-34.25)"/><rect class="q" x="194.39" y="286.9" width="2.85" height="2.88" transform="translate(-128.32 160.19) rotate(-34.25)"/><rect class="q" x="199.1" y="283.7" width="2.85" height="2.88" transform="translate(-125.7 162.29) rotate(-34.25)"/><rect class="q" x="201.45" y="282.09" width="2.85" height="2.88" transform="translate(-124.39 163.33) rotate(-34.25)"/><rect class="q" x="203.79" y="280.44" width="3.01" height="2.88" transform="translate(-123.04 164.41) rotate(-34.25)"/><rect class="q" x="154.25" y="314.23" width="2.85" height="2.88" transform="translate(-150.66 142.34) rotate(-34.25)"/><rect class="q" x="154.98" y="310.25" width="2.85" height="2.88" transform="translate(-148.29 142.07) rotate(-34.25)"/><rect class="q" x="164.4" y="303.84" width="2.85" height="2.88" transform="translate(-143.05 146.25) rotate(-34.25)"/><rect class="q" x="166.75" y="302.24" width="2.85" height="2.88" transform="translate(-141.74 147.3) rotate(-34.25)"/><rect class="q" x="171.45" y="299.03" width="2.85" height="2.88" transform="translate(-139.12 149.39) rotate(-34.25)"/><rect class="q" x="173.81" y="297.43" width="2.85" height="2.88" transform="translate(-137.81 150.44) rotate(-34.25)"/><rect class="q" x="178.51" y="294.23" width="2.85" height="2.88" transform="translate(-135.19 152.53) rotate(-34.25)"/><rect class="q" x="180.87" y="292.62" width="2.85" height="2.88" transform="translate(-133.88 153.58) rotate(-34.25)"/><rect class="q" x="185.71" y="289.33" width="2.85" height="2.88" transform="translate(-131.19 155.73) rotate(-34.25)"/><rect class="q" x="188.06" y="287.72" width="2.85" height="2.88" transform="translate(-129.88 156.78) rotate(-34.25)"/><rect class="q" x="190.42" y="286.12" width="2.85" height="2.88" transform="translate(-128.57 157.82) rotate(-34.25)"/><rect class="q" x="192.77" y="284.52" width="2.85" height="2.88" transform="translate(-127.26 158.87) rotate(-34.25)"/><rect class="q" x="195.12" y="282.92" width="2.85" height="2.88" transform="translate(-125.95 159.92) rotate(-34.25)"/><rect class="q" x="197.48" y="281.32" width="2.85" height="2.88" transform="translate(-124.64 160.96) rotate(-34.25)"/><rect class="q" x="152.63" y="311.85" width="2.85" height="2.88" transform="translate(-149.6 141.02) rotate(-34.25)"/><rect class="q" x="169.83" y="296.65" width="2.85" height="2.88" transform="translate(-138.06 148.07) rotate(-34.25)"/><rect class="q" x="174.54" y="293.45" width="2.85" height="2.88" transform="translate(-135.45 150.16) rotate(-34.25)"/><rect class="q" x="176.89" y="291.85" width="2.85" height="2.88" transform="translate(-134.14 151.21) rotate(-34.25)"/><rect class="q" x="181.58" y="288.6" width="3.02" height="2.88" transform="translate(-131.48 153.33) rotate(-34.25)"/><rect class="q" x="184.09" y="286.95" width="2.85" height="2.88" transform="translate(-130.13 154.41) rotate(-34.25)"/><rect class="q" x="186.44" y="285.34" width="2.85" height="2.88" transform="translate(-128.82 155.45) rotate(-34.25)"/><rect class="q" x="151.74" y="305.49" width="2.85" height="2.88" transform="translate(-146.17 139.42) rotate(-34.25)"/><rect class="q" x="154.1" y="303.88" width="2.85" height="2.88" transform="translate(-144.86 140.46) rotate(-34.25)"/><rect class="q" x="156.45" y="302.28" width="2.85" height="2.88" transform="translate(-143.55 141.51) rotate(-34.25)"/><rect class="q" x="158.8" y="300.68" width="2.85" height="2.88" transform="translate(-142.24 142.56) rotate(-34.25)"/><rect class="q" x="161.15" y="299.08" width="2.85" height="2.88" transform="translate(-140.93 143.6) rotate(-34.25)"/><rect class="q" x="165.86" y="295.87" width="2.85" height="2.88" transform="translate(-138.32 145.69) rotate(-34.25)"/><rect class="q" x="168.21" y="294.27" width="2.85" height="2.88" transform="translate(-137.01 146.74) rotate(-34.25)"/><rect class="q" x="175.27" y="289.47" width="2.85" height="2.88" transform="translate(-133.08 149.88) rotate(-34.25)"/><rect class="q" x="184.82" y="282.96" width="2.85" height="2.88" transform="translate(-127.76 154.13) rotate(-34.25)"/><rect class="q" x="187.18" y="281.36" width="2.85" height="2.88" transform="translate(-126.45 155.17) rotate(-34.25)"/><rect class="q" x="191.88" y="278.16" width="2.85" height="2.88" transform="translate(-123.83 157.27) rotate(-34.25)"/><rect class="q" x="198.93" y="273.3" width="3.01" height="2.88" transform="translate(-119.87 160.44) rotate(-34.25)"/><rect class="q" x="149.39" y="307.09" width="2.85" height="2.88" transform="translate(-147.48 138.37) rotate(-34.25)"/><rect class="q" x="159.53" y="296.7" width="2.85" height="2.88" transform="translate(-139.88 142.28) rotate(-34.25)"/><rect class="q" x="178.34" y="283.84" width="3.02" height="2.88" transform="translate(-129.36 150.68) rotate(-34.25)"/><rect class="q" x="180.85" y="282.19" width="2.85" height="2.88" transform="translate(-128.01 151.76) rotate(-34.25)"/><rect class="q" x="185.56" y="278.98" width="2.85" height="2.88" transform="translate(-125.39 153.85) rotate(-34.25)"/><rect class="q" x="187.91" y="277.38" width="2.85" height="2.88" transform="translate(-124.08 154.9) rotate(-34.25)"/><rect class="q" x="192.62" y="274.18" width="2.85" height="2.88" transform="translate(-121.47 156.99) rotate(-34.25)"/><rect class="q" x="194.97" y="272.57" width="2.85" height="2.88" transform="translate(-120.16 158.04) rotate(-34.25)"/><rect class="q" x="197.31" y="270.92" width="3.01" height="2.88" transform="translate(-118.81 159.11) rotate(-34.25)"/><rect class="q" x="147.77" y="304.71" width="2.85" height="2.88" transform="translate(-146.42 137.04) rotate(-34.25)"/><rect class="q" x="150.85" y="299.12" width="2.85" height="2.88" transform="translate(-142.75 137.81) rotate(-34.25)"/><rect class="q" x="153.21" y="297.52" width="2.85" height="2.88" transform="translate(-141.44 138.86) rotate(-34.25)"/><rect class="q" x="157.91" y="294.32" width="2.85" height="2.88" transform="translate(-138.82 140.95) rotate(-34.25)"/><rect class="q" x="162.62" y="291.11" width="2.85" height="2.88" transform="translate(-136.2 143.05) rotate(-34.25)"/><rect class="q" x="164.97" y="289.51" width="2.85" height="2.88" transform="translate(-134.89 144.09) rotate(-34.25)"/><rect class="q" x="169.68" y="286.31" width="2.85" height="2.88" transform="matrix(0.83, -0.56, 0.56, 0.83, -132.27, 146.18)"/><rect class="q" x="172.03" y="284.71" width="2.85" height="2.88" transform="translate(-130.96 147.23) rotate(-34.25)"/><rect class="q" x="176.72" y="281.46" width="3.02" height="2.88" transform="translate(-128.3 149.36) rotate(-34.25)"/><rect class="q" x="186.29" y="275" width="2.85" height="2.88" transform="translate(-123.03 153.57) rotate(-34.25)"/><rect class="q" x="188.64" y="273.4" width="2.85" height="2.88" transform="translate(-121.72 154.62) rotate(-34.25)"/><rect class="q" x="191" y="271.8" width="2.85" height="2.88" transform="translate(-120.41 155.66) rotate(-34.25)"/><rect class="q" x="146.15" y="302.33" width="2.85" height="2.88" transform="translate(-145.37 135.72) rotate(-34.25)"/><rect class="q" x="149.23" y="296.74" width="2.85" height="2.88" transform="translate(-141.69 136.49) rotate(-34.25)"/><rect class="q" x="151.59" y="295.14" width="2.85" height="2.88" transform="translate(-140.38 137.54) rotate(-34.25)"/><rect class="q" x="156.29" y="291.94" width="2.85" height="2.88" transform="translate(-137.76 139.63) rotate(-34.25)"/><rect class="q" x="161" y="288.73" width="2.85" height="2.88" transform="translate(-135.14 141.72) rotate(-34.25)"/><rect class="q" x="165.71" y="285.53" width="2.85" height="2.88" transform="translate(-132.52 143.81) rotate(-34.25)"/><rect class="q" x="168.06" y="283.93" width="2.85" height="2.88" transform="matrix(0.83, -0.56, 0.56, 0.83, -131.21, 144.86)"/><rect class="q" x="170.41" y="282.33" width="2.85" height="2.88" transform="translate(-129.9 145.91) rotate(-34.25)"/><rect class="q" x="172.76" y="280.72" width="2.85" height="2.88" transform="translate(-128.59 146.95) rotate(-34.25)"/><rect class="q" x="175.1" y="279.08" width="3.02" height="2.88" transform="translate(-127.24 148.03) rotate(-34.25)"/><rect class="q" x="179.96" y="275.82" width="2.85" height="2.88" transform="translate(-124.59 150.15) rotate(-34.25)"/><rect class="q" x="182.32" y="274.22" width="2.85" height="2.88" transform="translate(-123.28 151.2) rotate(-34.25)"/><rect class="q" x="184.67" y="272.62" width="2.85" height="2.88" transform="translate(-121.97 152.25) rotate(-34.25)"/><rect class="q" x="189.37" y="269.42" width="2.85" height="2.88" transform="translate(-119.35 154.34) rotate(-34.25)"/><rect class="q" x="191.73" y="267.81" width="2.85" height="2.88" transform="translate(-118.04 155.39) rotate(-34.25)"/><rect class="q" x="194.07" y="266.16" width="3.01" height="2.88" transform="translate(-116.69 156.46) rotate(-34.25)"/><rect class="q" x="144.53" y="299.95" width="2.85" height="2.88" transform="translate(-144.31 134.4) rotate(-34.25)"/><rect class="q" x="154.67" y="289.56" width="2.85" height="2.88" transform="translate(-136.7 138.3) rotate(-34.25)"/><rect class="q" x="164.09" y="283.15" width="2.85" height="2.88" transform="translate(-131.46 142.49) rotate(-34.25)"/><rect class="q" x="166.44" y="281.55" width="2.85" height="2.88" transform="translate(-130.15 143.54) rotate(-34.25)"/><rect class="q" x="171.14" y="278.34" width="2.85" height="2.88" transform="translate(-127.53 145.63) rotate(-34.25)"/><rect class="q" x="173.48" y="276.7" width="3.02" height="2.88" transform="translate(-126.19 146.71) rotate(-34.25)"/><rect class="q" x="175.99" y="275.05" width="2.85" height="2.88" transform="translate(-124.84 147.78) rotate(-34.25)"/><rect class="q" x="178.34" y="273.44" width="2.85" height="2.88" transform="translate(-123.53 148.83) rotate(-34.25)"/><rect class="q" x="190.11" y="265.43" width="2.85" height="2.88" transform="translate(-116.98 154.06) rotate(-34.25)"/><rect class="q" x="142.91" y="297.57" width="2.85" height="2.88" transform="translate(-143.25 133.07) rotate(-34.25)"/><rect class="q" x="143.64" y="293.59" width="2.85" height="2.88" transform="translate(-140.88 132.79) rotate(-34.25)"/><rect class="q" x="145.99" y="291.98" width="2.85" height="2.88" transform="translate(-139.57 133.84) rotate(-34.25)"/><rect class="q" x="148.35" y="290.38" width="2.85" height="2.88" transform="translate(-138.26 134.89) rotate(-34.25)"/><rect class="q" x="150.7" y="288.78" width="2.85" height="2.88" transform="translate(-136.95 135.93) rotate(-34.25)"/><rect class="q" x="153.05" y="287.18" width="2.85" height="2.88" transform="translate(-135.64 136.98) rotate(-34.25)"/><rect class="q" x="157.76" y="283.97" width="2.85" height="2.88" transform="translate(-133.02 139.07) rotate(-34.25)"/><rect class="q" x="160.11" y="282.37" width="2.85" height="2.88" transform="translate(-131.71 140.12) rotate(-34.25)"/><rect class="q" x="171.86" y="274.32" width="3.02" height="2.88" transform="translate(-125.13 145.38) rotate(-34.25)"/><rect class="q" x="176.72" y="271.06" width="2.85" height="2.88" transform="translate(-122.47 147.51) rotate(-34.25)"/><rect class="q" x="181.43" y="267.86" width="2.85" height="2.88" transform="translate(-119.85 149.6) rotate(-34.25)"/><rect class="q" x="183.78" y="266.26" width="2.85" height="2.88" transform="translate(-118.54 150.64) rotate(-34.25)"/><rect class="q" x="190.83" y="261.4" width="3.01" height="2.88" transform="translate(-114.57 153.82) rotate(-34.25)"/><rect class="q" x="141.29" y="295.19" width="2.85" height="2.88" transform="translate(-142.19 131.75) rotate(-34.25)"/><g class="r"><path class="e" d="M136.05,306.28a1,1,0,0,1-1.41-.28l-7.86-11.54A1,1,0,0,1,127,293l11.51-7.83a1,1,0,0,1,1.16,1.69L129,294.17l7.28,10.69A1,1,0,0,1,136.05,306.28Z"/><path class="e" d="M203.86,260.19a1,1,0,0,1-1.41-.28l-7.36-10.8-10.57,7.2a1,1,0,0,1-1.15-1.69l11.41-7.77a1,1,0,0,1,1.41.28l7.93,11.64A1,1,0,0,1,203.86,260.19Z"/></g><g class="r"><path class="e" d="M243.35,318.2,231.84,326a1,1,0,0,1-1.16-1.7l10.68-7.27-7.28-10.69a1,1,0,1,1,1.67-1.14l7.86,11.54A1,1,0,0,1,243.35,318.2Z"/><path class="e" d="M187,356.62l-11.42,7.77a1,1,0,0,1-1.41-.28l-7.93-11.64a1,1,0,1,1,1.67-1.14l7.36,10.8,10.57-7.2a1,1,0,0,1,1.16,1.69Z"/></g><text class="w" transform="translate(102.24 254.59) rotate(-37)">MENU</text><g class="p"><rect class="e" x="523.25" y="166.71" width="120.84" height="120.84"/></g><rect class="q" x="535.37" y="274.87" width="4.8" height="4.8"/><rect class="q" x="540.17" y="274.87" width="4.8" height="4.8"/><rect class="q" x="544.97" y="274.87" width="4.8" height="4.8"/><rect class="q" x="549.77" y="274.87" width="4.8" height="4.8"/><rect class="q" x="554.58" y="274.87" width="4.8" height="4.8"/><rect class="q" x="564.18" y="274.87" width="4.8" height="4.8"/><rect class="q" x="568.98" y="274.87" width="4.8" height="4.8"/><rect class="q" x="583.39" y="274.87" width="4.8" height="4.8"/><rect class="q" x="592.99" y="274.87" width="5.09" height="4.8"/><rect class="q" x="598.08" y="274.87" width="4.8" height="4.8"/><rect class="q" x="607.68" y="274.87" width="4.8" height="4.8"/><rect class="q" x="612.49" y="274.87" width="4.8" height="4.8"/><rect class="q" x="617.29" y="274.87" width="4.8" height="4.8"/><rect class="q" x="622.09" y="274.87" width="4.8" height="4.8"/><rect class="q" x="626.89" y="274.87" width="4.8" height="4.8"/><rect class="q" x="631.7" y="274.87" width="5.09" height="4.8"/><rect class="q" x="530.57" y="274.87" width="4.8" height="4.8"/><rect class="q" x="554.58" y="270.07" width="4.8" height="4.8"/><rect class="q" x="568.98" y="270.07" width="4.8" height="4.8"/><rect class="q" x="578.59" y="270.07" width="4.8" height="4.8"/><rect class="q" x="583.39" y="270.07" width="4.8" height="4.8"/><rect class="q" x="588.19" y="270.07" width="4.8" height="4.8"/><rect class="q" x="592.99" y="270.07" width="5.09" height="4.8"/><rect class="q" x="607.68" y="270.07" width="4.8" height="4.8"/><rect class="q" x="631.7" y="270.07" width="5.09" height="4.8"/><rect class="q" x="530.57" y="270.07" width="4.8" height="4.8"/><rect class="q" x="540.17" y="265.26" width="4.8" height="4.8"/><rect class="q" x="544.97" y="265.26" width="4.8" height="4.8"/><rect class="q" x="554.58" y="265.26" width="4.8" height="4.8"/><rect class="q" x="564.18" y="265.26" width="4.8" height="4.8"/><rect class="q" x="568.98" y="265.26" width="4.8" height="4.8"/><rect class="q" x="573.78" y="265.26" width="4.8" height="4.8"/><rect class="q" x="583.39" y="265.26" width="4.8" height="4.8"/><rect class="q" x="588.19" y="265.26" width="4.8" height="4.8"/><rect class="q" x="592.99" y="265.26" width="5.09" height="4.8"/><rect class="q" x="598.08" y="265.26" width="4.8" height="4.8"/><rect class="q" x="607.68" y="265.26" width="4.8" height="4.8"/><rect class="q" x="617.29" y="265.26" width="4.8" height="4.8"/><rect class="q" x="622.09" y="265.26" width="4.8" height="4.8"/><rect class="q" x="631.7" y="265.26" width="5.09" height="4.8"/><rect class="q" x="530.57" y="265.26" width="4.8" height="4.8"/><rect class="q" x="540.17" y="260.46" width="4.8" height="4.8"/><rect class="q" x="544.97" y="260.46" width="4.8" height="4.8"/><rect class="q" x="554.58" y="260.46" width="4.8" height="4.8"/><rect class="q" x="564.18" y="260.46" width="4.8" height="4.8"/><rect class="q" x="573.78" y="260.46" width="4.8" height="4.8"/><rect class="q" x="583.39" y="260.46" width="4.8" height="4.8"/><rect class="q" x="607.68" y="260.46" width="4.8" height="4.8"/><rect class="q" x="617.29" y="260.46" width="4.8" height="4.8"/><rect class="q" x="622.09" y="260.46" width="4.8" height="4.8"/><rect class="q" x="631.7" y="260.46" width="5.09" height="4.8"/><rect class="q" x="530.57" y="260.46" width="4.8" height="4.8"/><rect class="q" x="554.58" y="255.66" width="4.8" height="4.8"/><rect class="q" x="564.18" y="255.66" width="4.8" height="4.8"/><rect class="q" x="568.98" y="255.66" width="4.8" height="4.8"/><rect class="q" x="573.78" y="255.66" width="4.8" height="4.8"/><rect class="q" x="583.39" y="255.66" width="4.8" height="4.8"/><rect class="q" x="588.19" y="255.66" width="4.8" height="4.8"/><rect class="q" x="598.08" y="255.66" width="4.8" height="4.8"/><rect class="q" x="607.68" y="255.66" width="4.8" height="4.8"/><rect class="q" x="631.7" y="255.66" width="5.09" height="4.8"/><rect class="q" x="530.57" y="255.66" width="4.8" height="4.8"/><rect class="q" x="535.37" y="250.86" width="4.8" height="4.8"/><rect class="q" x="540.17" y="250.86" width="4.8" height="4.8"/><rect class="q" x="544.97" y="250.86" width="4.8" height="4.8"/><rect class="q" x="549.77" y="250.86" width="4.8" height="4.8"/><rect class="q" x="554.58" y="250.86" width="4.8" height="4.8"/><rect class="q" x="564.18" y="250.86" width="4.8" height="4.8"/><rect class="q" x="573.78" y="250.86" width="4.8" height="4.8"/><rect class="q" x="578.59" y="250.86" width="4.8" height="4.8"/><rect class="q" x="588.19" y="250.86" width="4.8" height="4.8"/><rect class="q" x="607.68" y="250.86" width="4.8" height="4.8"/><rect class="q" x="612.49" y="250.86" width="4.8" height="4.8"/><rect class="q" x="617.29" y="250.86" width="4.8" height="4.8"/><rect class="q" x="622.09" y="250.86" width="4.8" height="4.8"/><rect class="q" x="626.89" y="250.86" width="4.8" height="4.8"/><rect class="q" x="631.7" y="250.86" width="5.09" height="4.8"/><rect class="q" x="530.57" y="250.86" width="4.8" height="4.8"/><rect class="q" x="578.59" y="246.06" width="4.8" height="4.8"/><rect class="q" x="583.39" y="246.06" width="4.8" height="4.8"/><rect class="q" x="588.19" y="246.06" width="4.8" height="4.8"/><rect class="q" x="598.08" y="246.06" width="4.8" height="4.8"/><rect class="q" x="535.37" y="241.25" width="4.8" height="4.8"/><rect class="q" x="540.17" y="241.25" width="4.8" height="4.8"/><rect class="q" x="544.97" y="241.25" width="4.8" height="4.8"/><rect class="q" x="549.77" y="241.25" width="4.8" height="4.8"/><rect class="q" x="564.18" y="241.25" width="4.8" height="4.8"/><rect class="q" x="568.98" y="241.25" width="4.8" height="4.8"/><rect class="q" x="573.78" y="241.25" width="4.8" height="4.8"/><rect class="q" x="583.39" y="241.25" width="4.8" height="4.8"/><rect class="q" x="588.19" y="241.25" width="4.8" height="4.8"/><rect class="q" x="592.99" y="241.25" width="5.09" height="4.8"/><rect class="q" x="598.08" y="241.25" width="4.8" height="4.8"/><rect class="q" x="602.88" y="241.25" width="4.8" height="4.8"/><rect class="q" x="607.68" y="241.25" width="4.8" height="4.8"/><rect class="q" x="612.49" y="241.25" width="4.8" height="4.8"/><rect class="q" x="617.29" y="241.25" width="4.8" height="4.8"/><rect class="q" x="626.89" y="241.25" width="4.8" height="4.8"/><rect class="q" x="631.7" y="241.25" width="5.09" height="4.8"/><rect class="q" x="540.17" y="236.45" width="4.8" height="4.8"/><rect class="q" x="544.97" y="236.45" width="4.8" height="4.8"/><rect class="q" x="559.38" y="236.45" width="4.8" height="4.8"/><rect class="q" x="564.18" y="236.45" width="4.8" height="4.8"/><rect class="q" x="573.78" y="236.45" width="4.8" height="4.8"/><rect class="q" x="588.19" y="236.45" width="4.8" height="4.8"/><rect class="q" x="598.08" y="236.45" width="4.8" height="4.8"/><rect class="q" x="602.88" y="236.45" width="4.8" height="4.8"/><rect class="q" x="612.49" y="236.45" width="4.8" height="4.8"/><rect class="q" x="617.29" y="236.45" width="4.8" height="4.8"/><rect class="q" x="535.37" y="231.65" width="4.8" height="4.8"/><rect class="q" x="544.97" y="231.65" width="4.8" height="4.8"/><rect class="q" x="549.77" y="231.65" width="4.8" height="4.8"/><rect class="q" x="554.58" y="231.65" width="4.8" height="4.8"/><rect class="q" x="559.38" y="231.65" width="4.8" height="4.8"/><rect class="q" x="568.98" y="231.65" width="4.8" height="4.8"/><rect class="q" x="573.78" y="231.65" width="4.8" height="4.8"/><rect class="q" x="578.59" y="231.65" width="4.8" height="4.8"/><rect class="q" x="583.39" y="231.65" width="4.8" height="4.8"/><rect class="q" x="588.19" y="231.65" width="4.8" height="4.8"/><rect class="q" x="592.99" y="231.65" width="5.09" height="4.8"/><rect class="q" x="617.29" y="231.65" width="4.8" height="4.8"/><rect class="q" x="622.09" y="231.65" width="4.8" height="4.8"/><rect class="q" x="631.7" y="231.65" width="5.09" height="4.8"/><rect class="q" x="530.57" y="231.65" width="4.8" height="4.8"/><rect class="q" x="535.37" y="226.85" width="4.8" height="4.8"/><rect class="q" x="540.17" y="226.85" width="4.8" height="4.8"/><rect class="q" x="544.97" y="226.85" width="4.8" height="4.8"/><rect class="q" x="564.18" y="226.85" width="4.8" height="4.8"/><rect class="q" x="568.98" y="226.85" width="4.8" height="4.8"/><rect class="q" x="588.19" y="226.85" width="4.8" height="4.8"/><rect class="q" x="602.88" y="226.85" width="4.8" height="4.8"/><rect class="q" x="607.68" y="226.85" width="4.8" height="4.8"/><rect class="q" x="617.29" y="226.85" width="4.8" height="4.8"/><rect class="q" x="622.09" y="226.85" width="4.8" height="4.8"/><rect class="q" x="626.89" y="226.85" width="4.8" height="4.8"/><rect class="q" x="631.7" y="226.85" width="5.09" height="4.8"/><rect class="q" x="530.57" y="226.85" width="4.8" height="4.8"/><rect class="q" x="544.97" y="222.04" width="4.8" height="4.8"/><rect class="q" x="549.77" y="222.04" width="4.8" height="4.8"/><rect class="q" x="554.58" y="222.04" width="4.8" height="4.8"/><rect class="q" x="559.38" y="222.04" width="4.8" height="4.8"/><rect class="q" x="564.18" y="222.04" width="4.8" height="4.8"/><rect class="q" x="568.98" y="222.04" width="4.8" height="4.8"/><rect class="q" x="583.39" y="222.04" width="4.8" height="4.8"/><rect class="q" x="598.08" y="222.04" width="4.8" height="4.8"/><rect class="q" x="602.88" y="222.04" width="4.8" height="4.8"/><rect class="q" x="622.09" y="222.04" width="4.8" height="4.8"/><rect class="q" x="530.57" y="222.04" width="4.8" height="4.8"/><rect class="q" x="535.37" y="217.24" width="4.8" height="4.8"/><rect class="q" x="540.17" y="217.24" width="4.8" height="4.8"/><rect class="q" x="544.97" y="217.24" width="4.8" height="4.8"/><rect class="q" x="549.77" y="217.24" width="4.8" height="4.8"/><rect class="q" x="559.38" y="217.24" width="4.8" height="4.8"/><rect class="q" x="568.98" y="217.24" width="4.8" height="4.8"/><rect class="q" x="573.78" y="217.24" width="4.8" height="4.8"/><rect class="q" x="583.39" y="217.24" width="4.8" height="4.8"/><rect class="q" x="588.19" y="217.24" width="4.8" height="4.8"/><rect class="q" x="592.99" y="217.24" width="5.09" height="4.8"/><rect class="q" x="598.08" y="217.24" width="4.8" height="4.8"/><rect class="q" x="607.68" y="217.24" width="4.8" height="4.8"/><rect class="q" x="612.49" y="217.24" width="4.8" height="4.8"/><rect class="q" x="617.29" y="217.24" width="4.8" height="4.8"/><rect class="q" x="622.09" y="217.24" width="4.8" height="4.8"/><rect class="q" x="631.7" y="217.24" width="5.09" height="4.8"/><rect class="q" x="535.37" y="212.44" width="4.8" height="4.8"/><rect class="q" x="544.97" y="212.44" width="4.8" height="4.8"/><rect class="q" x="554.58" y="212.44" width="4.8" height="4.8"/><rect class="q" x="559.38" y="212.44" width="4.8" height="4.8"/><rect class="q" x="573.78" y="212.44" width="4.8" height="4.8"/><rect class="q" x="578.59" y="212.44" width="4.8" height="4.8"/><rect class="q" x="583.39" y="212.44" width="4.8" height="4.8"/><rect class="q" x="592.99" y="212.44" width="5.09" height="4.8"/><rect class="q" x="598.08" y="212.44" width="4.8" height="4.8"/><rect class="q" x="602.88" y="212.44" width="4.8" height="4.8"/><rect class="q" x="612.49" y="212.44" width="4.8" height="4.8"/><rect class="q" x="622.09" y="212.44" width="4.8" height="4.8"/><rect class="q" x="626.89" y="212.44" width="4.8" height="4.8"/><rect class="q" x="631.7" y="212.44" width="5.09" height="4.8"/><rect class="q" x="530.57" y="212.44" width="4.8" height="4.8"/><rect class="q" x="535.37" y="207.64" width="4.8" height="4.8"/><rect class="q" x="554.58" y="207.64" width="4.8" height="4.8"/><rect class="q" x="559.38" y="207.64" width="4.8" height="4.8"/><rect class="q" x="568.98" y="207.64" width="4.8" height="4.8"/><rect class="q" x="573.78" y="207.64" width="4.8" height="4.8"/><rect class="q" x="583.39" y="207.64" width="4.8" height="4.8"/><rect class="q" x="588.19" y="207.64" width="4.8" height="4.8"/><rect class="q" x="598.08" y="207.64" width="4.8" height="4.8"/><rect class="q" x="602.88" y="207.64" width="4.8" height="4.8"/><rect class="q" x="607.68" y="207.64" width="4.8" height="4.8"/><rect class="q" x="612.49" y="207.64" width="4.8" height="4.8"/><rect class="q" x="617.29" y="207.64" width="4.8" height="4.8"/><rect class="q" x="622.09" y="207.64" width="4.8" height="4.8"/><rect class="q" x="530.57" y="207.64" width="4.8" height="4.8"/><rect class="q" x="568.98" y="202.84" width="4.8" height="4.8"/><rect class="q" x="578.59" y="202.84" width="4.8" height="4.8"/><rect class="q" x="583.39" y="202.84" width="4.8" height="4.8"/><rect class="q" x="592.99" y="202.84" width="5.09" height="4.8"/><rect class="q" x="598.08" y="202.84" width="4.8" height="4.8"/><rect class="q" x="602.88" y="202.84" width="4.8" height="4.8"/><rect class="q" x="535.37" y="198.03" width="4.8" height="4.8"/><rect class="q" x="540.17" y="198.03" width="4.8" height="4.8"/><rect class="q" x="544.97" y="198.03" width="4.8" height="4.8"/><rect class="q" x="549.77" y="198.03" width="4.8" height="4.8"/><rect class="q" x="554.58" y="198.03" width="4.8" height="4.8"/><rect class="q" x="564.18" y="198.03" width="4.8" height="4.8"/><rect class="q" x="568.98" y="198.03" width="4.8" height="4.8"/><rect class="q" x="583.39" y="198.03" width="4.8" height="4.8"/><rect class="q" x="602.88" y="198.03" width="4.8" height="4.8"/><rect class="q" x="607.68" y="198.03" width="4.8" height="4.8"/><rect class="q" x="617.29" y="198.03" width="4.8" height="4.8"/><rect class="q" x="631.7" y="198.03" width="5.09" height="4.8"/><rect class="q" x="530.57" y="198.03" width="4.8" height="4.8"/><rect class="q" x="554.58" y="193.23" width="4.8" height="4.8"/><rect class="q" x="592.99" y="193.23" width="5.09" height="4.8"/><rect class="q" x="598.08" y="193.23" width="4.8" height="4.8"/><rect class="q" x="607.68" y="193.23" width="4.8" height="4.8"/><rect class="q" x="612.49" y="193.23" width="4.8" height="4.8"/><rect class="q" x="622.09" y="193.23" width="4.8" height="4.8"/><rect class="q" x="626.89" y="193.23" width="4.8" height="4.8"/><rect class="q" x="631.7" y="193.23" width="5.09" height="4.8"/><rect class="q" x="530.57" y="193.23" width="4.8" height="4.8"/><rect class="q" x="540.17" y="188.43" width="4.8" height="4.8"/><rect class="q" x="544.97" y="188.43" width="4.8" height="4.8"/><rect class="q" x="554.58" y="188.43" width="4.8" height="4.8"/><rect class="q" x="564.18" y="188.43" width="4.8" height="4.8"/><rect class="q" x="568.98" y="188.43" width="4.8" height="4.8"/><rect class="q" x="578.59" y="188.43" width="4.8" height="4.8"/><rect class="q" x="583.39" y="188.43" width="4.8" height="4.8"/><rect class="q" x="592.99" y="188.43" width="5.09" height="4.8"/><rect class="q" x="612.49" y="188.43" width="4.8" height="4.8"/><rect class="q" x="617.29" y="188.43" width="4.8" height="4.8"/><rect class="q" x="622.09" y="188.43" width="4.8" height="4.8"/><rect class="q" x="530.57" y="188.43" width="4.8" height="4.8"/><rect class="q" x="540.17" y="183.63" width="4.8" height="4.8"/><rect class="q" x="544.97" y="183.63" width="4.8" height="4.8"/><rect class="q" x="554.58" y="183.63" width="4.8" height="4.8"/><rect class="q" x="564.18" y="183.63" width="4.8" height="4.8"/><rect class="q" x="573.78" y="183.63" width="4.8" height="4.8"/><rect class="q" x="578.59" y="183.63" width="4.8" height="4.8"/><rect class="q" x="583.39" y="183.63" width="4.8" height="4.8"/><rect class="q" x="588.19" y="183.63" width="4.8" height="4.8"/><rect class="q" x="592.99" y="183.63" width="5.09" height="4.8"/><rect class="q" x="602.88" y="183.63" width="4.8" height="4.8"/><rect class="q" x="607.68" y="183.63" width="4.8" height="4.8"/><rect class="q" x="612.49" y="183.63" width="4.8" height="4.8"/><rect class="q" x="622.09" y="183.63" width="4.8" height="4.8"/><rect class="q" x="626.89" y="183.63" width="4.8" height="4.8"/><rect class="q" x="631.7" y="183.63" width="5.09" height="4.8"/><rect class="q" x="530.57" y="183.63" width="4.8" height="4.8"/><rect class="q" x="554.58" y="178.83" width="4.8" height="4.8"/><rect class="q" x="573.78" y="178.83" width="4.8" height="4.8"/><rect class="q" x="578.59" y="178.83" width="4.8" height="4.8"/><rect class="q" x="588.19" y="178.83" width="4.8" height="4.8"/><rect class="q" x="592.99" y="178.83" width="5.09" height="4.8"/><rect class="q" x="598.08" y="178.83" width="4.8" height="4.8"/><rect class="q" x="602.88" y="178.83" width="4.8" height="4.8"/><rect class="q" x="626.89" y="178.83" width="4.8" height="4.8"/><rect class="q" x="530.57" y="178.83" width="4.8" height="4.8"/><rect class="q" x="535.37" y="174.02" width="4.8" height="4.8"/><rect class="q" x="540.17" y="174.02" width="4.8" height="4.8"/><rect class="q" x="544.97" y="174.02" width="4.8" height="4.8"/><rect class="q" x="549.77" y="174.02" width="4.8" height="4.8"/><rect class="q" x="554.58" y="174.02" width="4.8" height="4.8"/><rect class="q" x="564.18" y="174.02" width="4.8" height="4.8"/><rect class="q" x="568.98" y="174.02" width="4.8" height="4.8"/><rect class="q" x="592.99" y="174.02" width="5.09" height="4.8"/><rect class="q" x="602.88" y="174.02" width="4.8" height="4.8"/><rect class="q" x="612.49" y="174.02" width="4.8" height="4.8"/><rect class="q" x="617.29" y="174.02" width="4.8" height="4.8"/><rect class="q" x="631.7" y="174.02" width="5.09" height="4.8"/><rect class="q" x="530.57" y="174.02" width="4.8" height="4.8"/><g class="r"><path class="e" d="M514.52,183.48a1.7,1.7,0,0,1-1.71-1.71V158.48a1.71,1.71,0,0,1,1.71-1.71H538a1.71,1.71,0,1,1,0,3.42H516.22v21.58A1.7,1.7,0,0,1,514.52,183.48Z"/><path class="e" d="M652.83,183.58a1.71,1.71,0,0,1-1.71-1.7v-21.8H629.54a1.71,1.71,0,1,1,0-3.41h23.29a1.71,1.71,0,0,1,1.71,1.71v23.5A1.71,1.71,0,0,1,652.83,183.58Z"/></g><g class="r"><path class="e" d="M652.83,300.63h-23.5a1.71,1.71,0,0,1,0-3.42h21.79V275.63a1.71,1.71,0,1,1,3.42,0v23.29A1.72,1.72,0,0,1,652.83,300.63Z"/><path class="e" d="M537.81,300.73H514.52a1.7,1.7,0,0,1-1.71-1.71v-23.5a1.71,1.71,0,0,1,3.41,0v21.8h21.59a1.71,1.71,0,0,1,0,3.41Z"/></g></svg>